<svg xmlns="http://www.w3.org/2000/svg" viewBox="0 0 512 512" fill="currentColor" width="512" height="512" data-name="candle">
  <style>:root{color:#212529;}@media(prefers-color-scheme:dark){:root{color:#f8fafc;}}</style>
  <g transform="scale(0.32000)">
    <path d="M0 0 C3 5 3 5 3 7 C3.567 7.144 3.567 7.144 6.438 7.875 C10 9 10 9 11 11 C11.233 14.372 11.413 17.748 11.562 21.125 C11.646 22.963 11.73 24.801 11.816 26.695 C11.877 28.116 11.938 29.536 12 31 C13.123 31.269 14.246 31.539 15.402 31.816 C19.992 33.326 20.021 34.784 22 39 C25.125 40.812 25.125 40.812 28 42 C29 43 29 43 29.25 47.188 C30 52 30 52 32.52 54.602 C36.917 60.627 35.452 67.897 35.371 75.105 C36 80 36 80 38.973 82.113 C39.972 82.406 40.971 82.699 42 83 C44.408 85.408 43.739 91.753 44 95 C45.134 95.289 46.269 95.577 47.438 95.875 C51 97 51 97 52 99 C52.243 104.133 52.384 109.265 52.523 114.402 C53.205 120.976 55.378 121.627 61 125 C61.659 128.003 61.659 128.003 61.707 131.637 C61.736 132.935 61.765 134.234 61.795 135.572 C61.801 136.93 61.807 138.288 61.812 139.688 C61.838 141.057 61.863 142.427 61.889 143.838 C61.948 147.226 61.984 150.612 62 154 C63.134 154.309 64.269 154.619 65.438 154.938 C69 156 69 156 70 157 C70.166 161.504 70.255 166.006 70.328 170.512 C71 175 71 175 73.496 177.652 C77.591 183.127 76.784 189.224 76.812 195.875 C76.838 197.231 76.863 198.587 76.889 199.984 C76.947 203.323 76.984 206.661 77 210 C79.31 210.66 81.62 211.32 84 212 C84 219.26 84 226.52 84 234 C82.845 234.33 82.845 234.33 77 236 C76.986 236.941 76.972 237.882 76.957 238.852 C76.909 240.097 76.862 241.342 76.812 242.625 C76.778 243.855 76.743 245.085 76.707 246.352 C76 250 76 250 73.492 252.883 C70.145 257.069 70.369 259.955 70.312 265.25 C70.181 273.819 70.181 273.819 68 276 C66.012 276.398 64.011 276.738 62 277 C61.976 277.855 61.976 277.855 61.852 282.18 C61.777 284.411 61.701 286.643 61.625 288.875 C61.594 290.003 61.563 291.131 61.531 292.293 C61.227 300.773 61.227 300.773 59 303 C58.031 303.309 57.061 303.619 56.062 303.938 C53 305 53 305 50 308 C48.35 308.66 46.7 309.32 45 310 C44.526 310.969 44.051 311.939 43.562 312.938 C42 316 42 316 39 317.438 C34.992 319.525 34.53 321.87 33 326 C32.34 326.33 31.68 326.66 31 327 C31 332 31 332 32 333 C37.73 333.205 43.455 333.347 49.188 333.43 C50.391 333.461 51.595 333.492 52.836 333.523 C53.945 333.543 55.054 333.563 56.197 333.583 C59 334 59 334 62 337 C62 337.66 62 338.32 62 339 C62.431 339.002 62.431 339.002 64.615 339.012 C68.515 339.045 72.413 339.116 76.312 339.188 C77.671 339.193 79.029 339.199 80.428 339.205 C81.077 339.22 81.077 339.22 84.363 339.293 C85.563 339.309 86.762 339.324 87.997 339.341 C91 340 91 340 94 345 C97.919 348.919 100.614 348.469 106 349 C109.911 352.911 108.325 360.169 108.312 365.438 C108.329 366.787 108.345 368.136 108.361 369.525 C108.362 370.815 108.363 372.105 108.363 373.434 C108.366 374.62 108.369 375.807 108.372 377.029 C108 380 108 380 105 383 C104.34 383 103.68 383 103 383 C103 384.98 103 386.96 103 389 C104.32 389.66 105.64 390.32 107 391 C108.86 392.86 108.241 395.949 108.316 398.441 C108.337 399.094 108.337 399.094 108.443 402.396 C108.483 403.771 108.522 405.146 108.562 406.562 C108.606 407.941 108.649 409.32 108.693 410.74 C108.8 414.16 108.902 417.58 109 421 C110.134 421.309 111.269 421.619 112.438 421.938 C116 423 116 423 117 424 C117.105 426.443 117.139 428.889 117.145 431.334 C117.148 432.121 117.148 432.121 117.165 436.107 C117.165 436.965 117.165 436.965 117.168 441.309 C117.171 443.056 117.175 444.803 117.178 446.604 C117.183 450.308 117.185 454.013 117.185 457.718 C117.187 463.409 117.206 469.1 117.225 474.791 C117.228 478.38 117.23 481.969 117.23 485.559 C117.238 487.273 117.245 488.988 117.252 490.754 C117.249 492.333 117.246 493.911 117.243 495.537 C117.244 496.933 117.246 498.329 117.247 499.767 C117 503 117 503 115 505 C113.02 505.33 111.04 505.66 109 506 C109 694.76 109 883.52 109 1078 C111.31 1078.66 113.62 1079.32 116 1080 C117.481 1082.962 117.353 1085.835 117.562 1089.125 C117.646 1090.406 117.73 1091.688 117.816 1093.008 C117.877 1093.995 117.938 1094.983 118 1096 C119.134 1096.289 120.269 1096.578 121.438 1096.875 C125 1098 125 1098 126 1100 C126.233 1103.372 126.413 1106.748 126.562 1110.125 C126.646 1111.963 126.73 1113.801 126.816 1115.695 C126.877 1117.116 126.938 1118.536 127 1120 C127.485 1120.155 127.485 1120.155 129.938 1120.938 C133 1122 133 1122 134 1123 C134.205 1125.286 134.314 1127.581 134.375 1129.875 C134.424 1131.131 134.473 1132.386 134.523 1133.68 C134 1137 134 1137 129 1140 C128.196 1140.866 127.391 1141.733 126.562 1142.625 C121.11 1146.26 115.419 1145.903 109 1146 C108.711 1147.134 108.423 1148.269 108.125 1149.438 C107 1153 107 1153 105 1154 C102.458 1154.156 99.913 1154.25 97.367 1154.316 C95.84 1154.358 94.312 1154.4 92.738 1154.443 C91.133 1154.483 89.529 1154.522 87.875 1154.562 C87.069 1154.584 87.069 1154.584 82.988 1154.693 C78.992 1154.8 74.996 1154.902 71 1155 C70.691 1155.969 70.381 1156.939 70.062 1157.938 C69 1161 69 1161 68 1162 C63.286 1162.107 58.587 1162.147 53.873 1162.145 C53.129 1162.147 53.129 1162.147 49.36 1162.155 C44.408 1162.165 39.456 1162.167 34.504 1162.168 C31.08 1162.171 27.656 1162.175 24.232 1162.178 C17.043 1162.184 9.854 1162.186 2.666 1162.185 C-6.57 1162.185 -15.806 1162.199 -25.041 1162.216 C-32.116 1162.227 -39.191 1162.229 -46.265 1162.229 C-49.672 1162.23 -53.078 1162.234 -56.484 1162.242 C-61.237 1162.252 -65.991 1162.249 -70.744 1162.243 C-72.166 1162.249 -73.588 1162.254 -75.053 1162.26 C-76.341 1162.256 -77.63 1162.252 -78.958 1162.247 C-79.52 1162.248 -79.52 1162.248 -82.367 1162.249 C-85 1162 -85 1162 -87 1160 C-87.33 1158.68 -87.66 1157.36 -88 1156 C-91.144 1154.428 -94.253 1154.832 -97.746 1154.789 C-98.526 1154.775 -98.526 1154.775 -102.471 1154.703 C-105.778 1154.651 -109.085 1154.607 -112.393 1154.57 C-113.953 1154.539 -115.513 1154.508 -117.121 1154.477 C-118.559 1154.457 -119.997 1154.437 -121.478 1154.417 C-125 1154 -125 1154 -128 1151 C-128.33 1149.35 -128.66 1147.7 -129 1146 C-131.938 1144.812 -131.938 1144.812 -135 1144 C-139.716 1139.284 -137.323 1127.401 -137.312 1121.062 C-137.329 1119.093 -137.345 1117.124 -137.361 1115.096 C-137.362 1114.158 -137.362 1114.158 -137.363 1109.41 C-137.366 1107.679 -137.369 1105.948 -137.372 1104.164 C-137 1100 -137 1100 -134 1097 C-132.35 1096.67 -130.7 1096.34 -129 1096 C-129 1056.4 -129 1016.8 -129 976 C-130.98 975.34 -132.96 974.68 -135 974 C-138.424 970.576 -137.283 966.581 -137 962 C-134 959 -134 959 -129 958 C-129 953.05 -129 948.1 -129 943 C-131.31 942.34 -133.62 941.68 -136 941 C-138.185 938.815 -137.225 933.421 -137.25 930.625 C-137.263 929.765 -137.263 929.765 -137.328 925.414 C-137 921 -137 921 -134 918 C-132.35 917.67 -130.7 917.34 -129 917 C-129 772.79 -129 628.58 -129 480 C-130.98 479.34 -132.96 478.68 -135 478 C-142.007 472.596 -142.875 468.877 -142.824 460.176 C-142.824 459.152 -142.823 458.128 -142.823 457.073 C-142.815 454.919 -142.789 452.765 -142.748 450.611 C-142.687 447.312 -142.686 444.016 -142.693 440.717 C-142.575 424.575 -142.575 424.575 -138 420 C-137.501 416.958 -137.501 416.958 -137.502 413.351 C-137.492 412 -137.482 410.648 -137.471 409.256 C-137.479 407.799 -137.488 406.341 -137.496 404.84 C-137.491 404.092 -137.491 404.092 -137.468 400.305 C-137.439 395.516 -137.436 390.727 -137.438 385.938 C-137.434 381.145 -137.424 376.352 -137.397 371.559 C-137.38 368.575 -137.377 365.59 -137.39 362.605 C-137.386 361.931 -137.386 361.931 -137.369 358.519 C-137.37 357.33 -137.371 356.141 -137.372 354.915 C-137 352 -137 352 -134 349 C-130.645 348.488 -130.645 348.488 -126.812 348.312 C-125.54 348.247 -124.268 348.181 -122.957 348.113 C-121.981 348.076 -121.005 348.039 -120 348 C-119.691 346.866 -119.381 345.731 -119.062 344.562 C-118 341 -118 341 -117 340 C-112.496 339.834 -107.994 339.745 -103.488 339.672 C-99 339 -99 339 -96.23 336.5 C-92.172 333.359 -89.911 333.362 -84.828 333.328 C-83.277 333.304 -81.727 333.279 -80.129 333.254 C-79.324 333.253 -79.324 333.253 -75.25 333.25 C-72.047 333.217 -68.844 333.181 -65.641 333.141 C-64.932 333.138 -64.932 333.138 -61.345 333.126 C-58 333 -58 333 -56 332 C-56 330.68 -56 329.36 -56 328 C-58.938 326.312 -58.938 326.312 -62 325 C-64.439 322.561 -63.498 318.097 -63.719 314.785 C-64 312 -64 312 -65 310 C-66.072 309.567 -67.145 309.134 -68.25 308.688 C-72.125 306.944 -74.194 305.136 -77 302 C-77.33 301.67 -77.66 301.34 -78 301 C-78.122 298.817 -78.18 296.631 -78.211 294.445 C-78.225 293.777 -78.225 293.777 -78.297 290.395 C-78.349 287.556 -78.393 284.718 -78.43 281.879 C-78.461 280.54 -78.492 279.2 -78.523 277.82 C-78.543 276.586 -78.563 275.351 -78.583 274.079 C-79 271 -79 271 -82 268 C-83.32 267.34 -84.64 266.68 -86 266 C-85.67 264.35 -85.34 262.7 -85 261 C-83.02 260.67 -81.04 260.34 -79 260 C-78.996 258.88 -78.992 257.761 -78.988 256.607 C-78.955 251.529 -78.884 246.452 -78.812 241.375 C-78.807 239.613 -78.801 237.851 -78.795 236.035 C-78.766 234.34 -78.737 232.645 -78.707 230.898 C-78.699 230.118 -78.699 230.118 -78.659 226.169 C-77.89 221.303 -76.27 219.567 -73 216 C-72.363 211.547 -72.363 211.547 -72.312 206.75 C-72.181 198.181 -72.181 198.181 -70 196 C-68.012 195.602 -66.011 195.262 -64 195 C-63.996 194.046 -63.992 193.093 -63.988 192.11 C-63.955 187.802 -63.884 183.495 -63.812 179.188 C-63.81 178.437 -63.81 178.437 -63.795 174.639 C-63.766 173.205 -63.737 171.771 -63.707 170.293 C-63.691 168.968 -63.676 167.643 -63.659 166.278 C-63 163 -63 163 -58 160 C-53.364 155.364 -54.634 150.228 -54.602 143.906 C-53.794 138.661 -51.587 138.294 -47 136 C-46.645 132.933 -46.297 129.863 -46.051 126.785 C-45 124 -45 124 -41.418 122.621 C-40.29 122.416 -39.162 122.211 -38 122 C-37.996 121.153 -37.992 120.306 -37.988 119.433 C-37.955 115.58 -37.884 111.728 -37.812 107.875 C-37.81 107.209 -37.81 107.209 -37.795 103.836 C-37.628 96.424 -37.479 92.411 -32 87 C-31.363 83.859 -31.363 83.859 -31.312 80.75 C-31 75 -31 75 -29 73 C-27.012 72.602 -25.011 72.262 -23 72 C-22.976 71.47 -22.976 71.47 -22.852 68.789 C-22.814 68.102 -22.814 68.102 -22.625 64.625 C-22.555 63.256 -22.486 61.887 -22.414 60.477 C-22 57 -22 57 -20 55 C-18.012 54.602 -16.011 54.262 -14 54 C-13.98 52.435 -13.96 50.87 -13.94 49.258 C-13.864 43.47 -13.775 37.681 -13.683 31.893 C-13.644 29.385 -13.609 26.876 -13.578 24.368 C-13.533 20.768 -13.475 17.169 -13.414 13.57 C-13.403 12.443 -13.391 11.316 -13.379 10.155 C-13.172 -0.697 -10.681 -0.84 0 0 Z M4 66 C1.375 69.75 1.375 69.75 -1 74 C-1.99 75.32 -2.98 76.64 -4 78 C-4.66 79.32 -5.32 80.64 -6 82 C-7.65 82.66 -9.3 83.32 -11 84 C-13.573 86.573 -12.396 94.656 -12.5 98.438 C-12.569 100.936 -12.641 103.435 -12.719 105.934 C-12.749 107.048 -12.779 108.162 -12.811 109.31 C-13 112 -13 112 -14 114 C-16 114.667 -18 115.333 -20 116 C-21 118 -21 118 -21.125 122.375 C-22 127 -22 127 -25.5 129.438 C-26.077 129.695 -26.077 129.695 -29 131 C-30.725 134.45 -30.234 138.179 -30.328 141.957 C-31 145 -31 145 -33.523 147.039 C-38.126 152.542 -36.461 160.41 -36.273 167.295 C-36.273 176.433 -36.273 176.433 -40.477 179.715 C-41.058 179.927 -41.058 179.927 -44 181 C-45 183 -45 183 -45.125 188.875 C-45.525 194.644 -45.525 194.644 -49.5 197.625 C-50.655 198.079 -51.81 198.533 -53 199 C-54.733 202.467 -54.089 206.308 -54.062 210.125 C-54.053 211.778 -54.044 213.43 -54.035 215.133 C-54.024 216.409 -54.012 217.685 -54 219 C-54.474 219.144 -54.474 219.144 -56.875 219.875 C-60 221 -60 221 -62 223 C-62.263 227.341 -62.402 231.616 -62.441 235.961 C-62.455 237.258 -62.469 238.555 -62.483 239.892 C-62.506 242.641 -62.524 245.39 -62.535 248.139 C-62.562 252.351 -62.637 256.561 -62.713 260.773 C-62.73 263.44 -62.743 266.107 -62.754 268.773 C-62.784 270.037 -62.814 271.301 -62.844 272.603 C-62.8 281.395 -62.8 281.395 -58.5 284.647 C-57.345 285.093 -56.19 285.54 -55 286 C-54.238 288.875 -54.238 288.875 -54.312 292 C-54.403 297.573 -54.338 297.662 -50 302 C-48.35 302.99 -46.7 303.98 -45 305 C-43.68 305.99 -42.36 306.98 -41 308 C-35 308 -35 308 -33 307 C-34 303 -34 303 -36 300 C-36.336 296.935 -36.442 293.893 -36.559 290.812 C-37 288 -37 288 -40 285 C-41.65 284.67 -43.3 284.34 -45 284 C-45.309 282.886 -45.619 281.773 -45.938 280.625 C-47 277 -47 277 -50.125 275.75 C-53 274 -53 274 -53.812 268.562 C-53 263 -53 263 -49.562 260.5 C-48.387 260.005 -47.211 259.51 -46 259 C-44.905 255.715 -44.9 253.263 -44.938 249.812 C-44.948 248.853 -44.948 248.853 -45 244 C-44.433 243.856 -44.433 243.856 -41.562 243.125 C-38 242 -38 242 -37 240 C-36.918 238.597 -36.835 237.195 -36.75 235.75 C-35.917 230.477 -34.605 228.781 -31 225 C-30.67 224.34 -30.67 224.34 -29 221 C-28.031 220.546 -27.061 220.092 -26.062 219.625 C-23 218 -23 218 -21.5 215 C-19.622 211.244 -17.765 210.637 -14 209 C-11.76 204.521 -12.875 198.093 -12.867 193.16 C-12 189 -12 189 -8.508 187.059 C-7.35 186.709 -6.193 186.36 -5 186 C-3.195 182.39 -3.785 178.185 -3.719 174.215 C-3.681 172.241 -3.644 170.266 -3.605 168.232 C-3.552 165.076 -3.5 161.92 -3.448 158.764 C-3.396 155.727 -3.339 152.69 -3.281 149.652 C-3.251 147.827 -3.221 146.002 -3.189 144.121 C-3 140 -3 140 -2 139 C8.756 138.756 8.756 138.756 10 140 C10.194 143.038 10.384 146.076 10.523 149.117 C11 152 11 152 14 155 C15.65 155.66 17.3 156.32 19 157 C19.421 160.323 19.753 163.659 20 167 C23 170 23 170 28 172 C29.069 174.303 30.072 176.637 31 179 C31.495 179.33 31.495 179.33 34 181 C34.306 185.853 34.247 190.662 34.203 195.523 C35 200 35 200 38.449 202.41 C39.621 202.935 40.793 203.459 42 204 C43.016 205.992 44.017 207.992 45 210 C46.004 210.369 47.008 210.737 48.043 211.117 C51 213 51 213 51.734 217.16 C51.737 217.969 51.737 217.969 51.75 222.062 C51.834 230.834 51.834 230.834 54 233 C59 232 59 232 60 231 C60.285 224.38 60.232 217.751 60.25 211.125 C60.271 209.247 60.291 207.369 60.312 205.434 C60.318 203.643 60.323 201.853 60.328 200.008 C60.337 198.354 60.347 196.7 60.356 194.997 C60 191 60 191 57 188 C55.35 187.34 53.7 186.68 52 186 C52.009 184.025 52.018 182.05 52.027 180.016 C51.999 177.427 51.969 174.839 51.938 172.25 C51.948 170.948 51.959 169.646 51.971 168.305 C51.795 158.569 51.795 158.569 47.484 155.484 C46.335 154.995 45.185 154.505 44 154 C43.238 151.125 43.238 151.125 43.312 148 C43.403 142.427 43.338 142.338 39 138 C38.34 137.67 38.34 137.67 35 136 C34.499 131.429 34.563 126.951 34.566 122.355 C33.903 117.256 32.653 116.368 29 113 C28.434 110.027 28.434 110.027 28.438 106.938 C28 101 28 101 24 97 C22.68 96.34 21.36 95.68 20 95 C19.496 90.973 19.496 90.973 19.438 86.062 C19.319 77.319 19.319 77.319 16 74 C14.35 73.34 12.7 72.68 11 72 C9.688 68.875 9.688 68.875 9 66 C7.35 66 5.7 66 4 66 Z M13 204 C11 206 11 206 9 211 C8.031 211.309 7.061 211.619 6.062 211.938 C1.952 213.364 1.682 215.1 0 219 C-1.319 220.678 -2.651 222.346 -4 224 C-4.66 225.32 -5.32 226.64 -6 228 C-7.983 229.033 -9.983 230.034 -12 231 C-12.66 231.99 -13.32 232.98 -14 234 C-15.992 234.691 -17.992 235.359 -20 236 C-21.405 238.811 -21.076 241.305 -21.125 244.438 C-21.359 248.004 -21.359 248.004 -22 251 C-25.375 252.875 -25.375 252.875 -29 254 C-30.812 257.562 -30.812 257.562 -32 261 C-32.66 261.66 -33.32 262.32 -34 263 C-32.731 268.077 -30.69 271.31 -27 275 C-16.702 275.702 -16.702 275.702 -13 272 C-12.34 270.68 -11.68 269.36 -11 268 C-9 267 -7 266 -5 265 C-0.591 261.256 1.72 258.889 2 253 C8.875 252.875 8.875 252.875 10 254 C10.247 258.6 10.385 263.2 10.523 267.805 C11 272 11 272 14 275 C24.298 275.702 24.298 275.702 28 272 C28.99 270.35 29.98 268.7 31 267 C31.99 265.68 32.98 264.36 34 263 C34.469 259.285 34.469 259.285 34.5 255.062 C34.531 253.672 34.562 252.281 34.594 250.848 C34 247 34 247 31.508 244.848 C27.343 240.118 28.337 234.454 28.375 228.375 C28.375 225.924 28.363 223.474 28.336 221.023 C28.339 220.482 28.339 220.482 28.353 217.74 C28 215 28 215 25 212 C24.175 211.67 24.175 211.67 20 210 C19.34 208.35 18.68 206.7 18 205 C16.35 204.67 14.7 204.34 13 204 Z M12 360 C13 365 13 365 14 366 C16.81 366.126 19.624 366.176 22.438 366.188 C23.983 366.202 25.529 366.216 27.121 366.23 C31 366 31 366 33 364 C32 359 32 359 30 358 C27.523 357.877 25.042 357.824 22.562 357.812 C21.223 357.798 19.884 357.784 18.504 357.77 C15 358 15 358 12 360 Z M-103 375 C-103.309 375.949 -103.619 376.898 -103.938 377.875 C-105 381 -105 381 -109 385 C-109.435 387.885 -109.435 387.885 -109.363 391.191 C-109.364 392.383 -109.365 393.575 -109.365 394.803 C-109.33 397.313 -109.283 399.824 -109.225 402.334 C-109.237 405.685 -109.271 408.727 -110 412 C-113.48 414.215 -113.48 414.215 -117 415 C-119.625 420.249 -118.231 428.177 -118.25 433.938 C-118.271 435.525 -118.291 437.112 -118.312 438.748 C-118.318 440.263 -118.323 441.779 -118.328 443.34 C-118.337 444.736 -118.347 446.132 -118.356 447.57 C-118 451 -118 451 -115 454 C-111.345 454.442 -107.675 454.784 -104 455 C-103.864 457.373 -103.768 459.749 -103.688 462.125 C-103.658 462.786 -103.658 462.786 -103.512 466.133 C-104 470 -104 470 -106.48 472.523 C-110.647 478.273 -109.72 484.597 -109.625 491.5 C-109.644 492.901 -109.664 494.302 -109.684 495.746 C-109.677 497.098 -109.671 498.451 -109.664 499.844 C-109.661 500.458 -109.661 500.458 -109.647 503.568 C-109 507 -109 507 -106.5 509.478 C-102.387 515.272 -103.288 521.579 -103.336 528.504 C-103.331 530.015 -103.326 531.526 -103.321 533.083 C-103.318 536.275 -103.327 539.466 -103.348 542.658 C-103.375 547.548 -103.348 552.436 -103.316 557.326 C-103.32 560.427 -103.326 563.528 -103.336 566.629 C-103.326 568.094 -103.316 569.558 -103.305 571.067 C-103.313 571.748 -103.313 571.748 -103.353 575.194 C-103.357 576.39 -103.361 577.587 -103.365 578.82 C-104 582 -104 582 -106.5 584.267 C-109.643 587.703 -109.628 589.31 -109.635 593.908 C-109.649 595.312 -109.663 596.717 -109.678 598.165 C-109.668 599.7 -109.657 601.236 -109.647 602.818 C-109.656 604.44 -109.664 606.061 -109.674 607.732 C-109.696 613.103 -109.681 618.473 -109.664 623.844 C-109.667 627.569 -109.672 631.294 -109.679 635.019 C-109.687 643.831 -109.669 652.644 -109.643 661.456 C-109.624 668.487 -109.631 675.517 -109.652 682.547 C-109.681 692.234 -109.685 701.92 -109.669 711.606 C-109.666 715.303 -109.67 719 -109.681 722.696 C-109.694 727.859 -109.675 733.02 -109.647 738.182 C-109.657 739.717 -109.667 741.253 -109.678 742.835 C-109.664 744.24 -109.649 745.645 -109.635 747.092 C-109.633 748.313 -109.631 749.533 -109.629 750.791 C-109 754 -109 754 -106.5 756.121 C-102.479 760.752 -103.313 766.129 -103.365 771.975 C-103.357 773.31 -103.349 774.646 -103.341 776.022 C-103.321 780.511 -103.337 785 -103.353 789.49 C-103.346 792.703 -103.337 795.915 -103.326 799.128 C-103.304 807.865 -103.313 816.603 -103.328 825.34 C-103.341 834.473 -103.329 843.606 -103.321 852.738 C-103.312 868.078 -103.324 883.417 -103.348 898.757 C-103.375 916.504 -103.367 934.251 -103.339 951.999 C-103.316 967.221 -103.313 982.443 -103.326 997.665 C-103.334 1006.763 -103.335 1015.861 -103.319 1024.959 C-103.304 1033.513 -103.314 1042.066 -103.343 1050.62 C-103.35 1053.763 -103.348 1056.907 -103.337 1060.05 C-103.323 1064.333 -103.34 1068.615 -103.365 1072.898 C-103.354 1074.149 -103.343 1075.401 -103.331 1076.69 C-103.41 1083.601 -104.06 1087.122 -109 1092 C-109.615 1096.581 -109.615 1096.581 -109.594 1101.887 C-109.592 1102.84 -109.592 1102.84 -109.586 1107.666 C-109.571 1108.654 -109.557 1109.642 -109.542 1110.659 C-109.5 1113.688 -109.501 1116.715 -109.508 1119.744 C-109.407 1134.593 -109.407 1134.593 -106 1138 C-102.861 1138.388 -102.861 1138.388 -99.031 1138.398 C-97.656 1138.402 -96.28 1138.406 -94.863 1138.41 C-93.423 1138.399 -91.984 1138.387 -90.5 1138.375 C-89.78 1138.381 -89.78 1138.381 -86.137 1138.41 C-84.761 1138.406 -83.386 1138.402 -81.969 1138.398 C-80.705 1138.395 -79.441 1138.392 -78.139 1138.388 C-75 1138 -75 1138 -72 1135 C-71.67 1134.175 -71.67 1134.175 -70 1130 C-65.27 1129.602 -60.713 1129.356 -56 1130 C-53.25 1133.438 -53.25 1133.438 -52 1137 C-47.868 1139.066 -42.376 1138.157 -37.795 1138.161 C-36.522 1138.166 -35.249 1138.171 -33.937 1138.176 C-29.709 1138.191 -25.482 1138.198 -21.254 1138.203 C-18.327 1138.209 -15.4 1138.215 -12.473 1138.22 C-6.33 1138.231 -0.187 1138.237 5.955 1138.24 C13.842 1138.246 21.729 1138.27 29.616 1138.298 C35.663 1138.317 41.71 1138.322 47.757 1138.324 C50.666 1138.327 53.575 1138.335 56.483 1138.348 C60.544 1138.365 64.605 1138.363 68.666 1138.356 C69.877 1138.366 71.088 1138.375 72.336 1138.384 C80.658 1138.342 80.658 1138.342 84 1135 C84.33 1134.175 84.33 1134.175 86 1130 C89.042 1129.68 92.094 1129.373 95.152 1129.336 C98 1129 98 1129 101 1126 C101.5 1120.5 101.5 1120.5 101 1115 C96 1112 96 1112 94 1111 C93.739 1106.715 93.577 1102.477 93.5 1098.188 C93.457 1095.806 93.405 1093.424 93.344 1091.043 C93.325 1089.981 93.306 1088.919 93.287 1087.825 C93 1085 93 1085 91 1081 C89.983 1080.555 88.967 1080.11 87.919 1079.652 C85 1078 85 1078 84.267 1075.123 C84.275 1073.951 84.283 1072.78 84.291 1071.573 C84.287 1070.908 84.287 1070.908 84.27 1067.548 C84.281 1066.829 84.281 1066.829 84.336 1063.191 C84.332 1061.718 84.327 1060.245 84.323 1058.727 C84.312 1054.005 84.34 1049.284 84.375 1044.562 C84.399 1039.845 84.414 1035.127 84.405 1030.409 C84.401 1027.47 84.416 1024.531 84.452 1021.591 C84.452 1020.926 84.452 1020.926 84.451 1017.557 C84.455 1016.971 84.455 1016.971 84.479 1014.004 C83.662 1008.877 80.383 1007.191 76 1005 C75.44 1000.956 75.826 997.097 76 993 C77.134 992.546 78.269 992.092 79.438 991.625 C83 990 83 990 84 988 C84.114 985.224 84.16 982.445 84.177 979.667 C84.19 977.898 84.203 976.129 84.216 974.307 C84.223 972.383 84.231 970.459 84.238 968.477 C84.242 967.495 84.242 967.495 84.263 962.528 C84.278 958.366 84.288 954.205 84.295 950.044 C84.306 944.708 84.341 939.373 84.38 934.037 C84.413 928.955 84.417 923.872 84.426 918.789 C84.435 917.829 84.435 917.829 84.479 912.971 C84.476 911.196 84.473 909.421 84.47 907.592 C84.476 906.026 84.482 904.46 84.488 902.846 C84 899 84 899 80 895 C78.68 894.34 77.36 893.68 76 893 C75.632 888.397 75.516 884.022 75.566 879.418 C75.557 876.622 75.547 873.826 75.537 871.029 C75.546 866.605 75.563 862.181 75.585 857.757 C75.599 853.498 75.584 849.239 75.566 844.98 C75.575 844.318 75.575 844.318 75.616 840.968 C75.557 830.013 75.557 830.013 70 826 C69.336 823.062 69.336 823.062 69.375 820 C69.362 818.989 69.349 817.979 69.336 816.938 C70 814 70 814 72.5 811.906 C76.434 807.333 75.723 802.24 75.625 796.5 C75.644 795.372 75.664 794.244 75.684 793.082 C75.633 784.534 75.633 784.534 72.494 781.885 C68.655 777.445 69.351 772.648 69.434 767.059 C69.431 766.479 69.431 766.479 69.417 763.544 C69.4 759.841 69.416 756.14 69.438 752.438 C69.454 748.732 69.463 745.026 69.448 741.32 C69.438 739.015 69.448 736.71 69.477 734.406 C69.45 726.45 69.45 726.45 65 722 C63.68 721.34 62.36 720.68 61 720 C60.642 715.407 60.538 711.054 60.609 706.461 C60.612 705.785 60.612 705.785 60.627 702.367 C60.649 698.036 60.699 693.706 60.75 689.375 C60.77 686.445 60.788 683.516 60.805 680.586 C60.849 673.39 60.918 666.195 61 659 C62.134 658.546 63.269 658.092 64.438 657.625 C68 656 68 656 69 654 C69.096 651.37 69.132 648.737 69.141 646.105 C69.16 644.51 69.179 642.915 69.199 641.271 C69.233 637.894 69.251 634.516 69.254 631.139 C69.278 629.54 69.303 627.941 69.328 626.293 C69.333 625.558 69.333 625.558 69.356 621.841 C70.474 615.171 74.414 613.352 80 610 C84.865 605.135 84.504 603.919 84.518 597.256 C84.524 596.352 84.524 596.352 84.556 591.775 C84.548 589.818 84.54 587.86 84.531 585.844 C84.534 583.819 84.538 581.794 84.543 579.769 C84.549 575.525 84.54 571.282 84.521 567.039 C84.499 561.597 84.512 556.157 84.536 550.716 C84.55 546.535 84.546 542.354 84.535 538.172 C84.531 535.19 84.543 532.207 84.556 529.225 C84.543 527.416 84.531 525.608 84.518 523.744 C84.514 522.148 84.511 520.553 84.508 518.909 C84 515 84 515 80 511 C78.68 510.34 77.36 509.68 76 509 C75.312 503.625 75.312 503.625 76 498 C79.438 495.438 79.438 495.438 83 494 C84 492 84 492 84.125 486.125 C84.348 482.828 84.348 482.828 85 480 C87.308 478.623 89.641 477.287 92 476 C92.875 471 92.875 471 92 466 C88.688 463.75 88.688 463.75 85 462 C84 460 83 458 82 456 C80.35 456 78.7 456 77 456 C76.587 457.072 76.175 458.145 75.75 459.25 C74 463 74 463 70 467 C69.34 468.65 68.68 470.3 68 472 C64.938 473.188 64.938 473.188 62 474 C61 476 61 476 60.5 480.562 C60 485 60 485 59 486 C55.194 486.234 51.434 486.371 47.625 486.438 C46.558 486.483 45.49 486.529 44.391 486.576 C41.289 486.621 41.289 486.621 36 486 C34.023 483.16 34.023 483.16 33 480 C31.68 479.01 30.36 478.02 29 477 C28.612 473.128 28.467 469.53 28.496 465.656 C28.491 465.096 28.491 465.096 28.468 462.26 C28.439 458.673 28.436 455.087 28.438 451.5 C28.434 447.913 28.424 444.327 28.397 440.74 C28.38 438.506 28.377 436.272 28.39 434.039 C28.337 426.337 28.337 426.337 25 423 C23.35 422.34 21.7 421.68 20 421 C20 419.02 20 417.04 20 415 C21.093 414.629 22.186 414.257 23.312 413.875 C27.592 411.699 28.041 410.198 30 406 C31.32 406 32.64 406 34 406 C34.206 406.928 34.413 407.856 34.625 408.812 C36.381 412.884 38.12 413.1 42 415 C43 417 44 419 45 421 C45.99 421.495 46.98 421.99 48 422.5 C51.756 424.378 52.363 426.235 54 430 C57.788 431.894 61.876 431.204 66 431 C69.599 427.401 69.319 426.517 69.375 421.625 C69.671 415.948 70.312 413.545 75 410 C75.66 408.68 76.32 407.36 77 406 C78.975 404.952 80.975 403.948 83 403 C84.599 399.803 84.212 396.605 84.25 393.062 C84.276 391.63 84.302 390.198 84.328 388.723 C84 385 84 385 81 382 C79.35 381.34 77.7 380.68 76 380 C75.67 379.175 75.67 379.175 74 375 C73.01 375 72.02 375 71 375 C70.69 375.975 70.379 376.95 70.059 377.955 C68 381 68 381 62.838 381.739 C60.575 381.765 58.312 381.758 56.049 381.725 C54.815 381.731 53.58 381.737 52.308 381.743 C48.216 381.756 44.124 381.727 40.031 381.699 C37.195 381.703 34.359 381.71 31.524 381.719 C24.048 381.738 16.572 381.724 9.096 381.701 C-2.871 381.666 -14.838 381.672 -26.805 381.697 C-30.995 381.699 -35.184 381.681 -39.374 381.662 C-41.932 381.661 -44.491 381.662 -47.049 381.663 C-48.221 381.652 -49.393 381.641 -50.6 381.63 C-58.659 381.659 -58.659 381.659 -62 385 C-62.417 387.803 -62.417 387.803 -62.477 391.164 C-62.507 392.368 -62.538 393.572 -62.57 394.812 C-62.588 396.071 -62.606 397.329 -62.625 398.625 C-62.895 411.895 -62.895 411.895 -64 413 C-65.998 413.099 -68 413.13 -70 413.125 C-71.093 413.128 -72.186 413.13 -73.312 413.133 C-76 413 -76 413 -77 412 C-77.247 407.4 -77.385 402.8 -77.523 398.195 C-78 394 -78 394 -81 391 C-82.65 390.67 -84.3 390.34 -86 390 C-86.037 388.94 -86.075 387.881 -86.113 386.789 C-86.179 385.415 -86.245 384.041 -86.312 382.625 C-86.371 381.256 -86.429 379.887 -86.488 378.477 C-87 375 -87 375 -90 373 C-99.302 372.535 -99.302 372.535 -103 375 Z " fill="currentColor" transform="translate(804,219)"/>
    <path d="M0 0 C3.37 3.37 2.26 7.575 2.266 12.188 C2.268 13.201 2.269 14.214 2.271 15.259 C2.273 17.404 2.269 19.549 2.261 21.694 C2.25 24.987 2.261 28.278 2.273 31.57 C2.272 33.651 2.27 35.732 2.266 37.812 C2.263 39.716 2.261 41.62 2.259 43.582 C2 48 2 48 0 50 C-2.532 50.302 -5.078 50.495 -7.625 50.625 C-8.999 50.7 -10.373 50.775 -11.789 50.852 C-12.849 50.901 -13.908 50.95 -15 51 C-15.247 52.114 -15.495 53.227 -15.75 54.375 C-17 58 -17 58 -21 60 C-21.496 64.027 -21.496 64.027 -21.438 68.938 C-21.437 69.746 -21.437 69.746 -21.434 73.84 C-21 78 -21 78 -18 81 C-13.84 81.441 -13.84 81.441 -8.938 81.562 C-0.208 81.792 -0.208 81.792 2 84 C2.199 87.391 2.262 90.791 2.266 94.188 C2.268 95.201 2.269 96.214 2.271 97.259 C2.273 99.404 2.269 101.549 2.261 103.694 C2.25 106.987 2.261 110.278 2.273 113.57 C2.272 115.651 2.27 117.732 2.266 119.812 C2.263 121.716 2.261 123.62 2.259 125.582 C2 130 2 130 0 132 C-4.796 132.464 -9.622 132.324 -14.438 132.312 C-15.112 132.321 -15.112 132.321 -18.525 132.361 C-19.815 132.362 -21.105 132.363 -22.434 132.363 C-23.62 132.366 -24.807 132.369 -26.029 132.372 C-29 132 -29 132 -32 129 C-32.33 128.01 -32.66 127.02 -33 126 C-34.966 124.935 -36.967 123.932 -39 123 C-41.716 120.284 -40.412 111.889 -40.523 108.195 C-41.231 101.967 -43.673 101.196 -49 98 C-49.66 96.35 -50.32 94.7 -51 93 C-51.928 92.567 -52.856 92.134 -53.812 91.688 C-58.17 89.38 -59.591 86.215 -62 82 C-62.66 81.34 -63.32 80.68 -64 80 C-64.407 76.341 -64.744 72.673 -65 69 C-66.134 68.794 -67.269 68.587 -68.438 68.375 C-72 67 -72 67 -73.125 64.062 C-73 61 -73 61 -70 58 C-69.175 57.835 -69.175 57.835 -65 57 C-63.812 53.5 -63.812 53.5 -63 50 C-59.071 48.035 -54.322 48.352 -50 48 C-49.986 46.591 -49.972 45.182 -49.957 43.73 C-49.909 41.901 -49.862 40.072 -49.812 38.188 C-49.778 36.366 -49.743 34.545 -49.707 32.668 C-49 28 -49 28 -44 25 C-40.504 21.504 -40.616 20.67 -40.438 15.938 C-40 10 -40 10 -38 8 C-34.812 7.734 -34.812 7.734 -31 7.75 C-29.742 7.745 -28.484 7.74 -27.188 7.734 C-24 8 -24 8 -22 10 C-21.699 12.365 -21.505 14.744 -21.375 17.125 C-21.3 18.406 -21.225 19.688 -21.148 21.008 C-21.099 21.995 -21.05 22.983 -21 24 C-20.01 24 -19.02 24 -18 24 C-17.997 23.024 -17.995 22.048 -17.992 21.043 C-17.954 19.771 -17.915 18.498 -17.875 17.188 C-17.852 15.923 -17.829 14.658 -17.805 13.355 C-17 10 -17 10 -14.07 8.051 C-11 7 -11 7 -9 7 C-8.845 6.515 -8.845 6.515 -8.062 4.062 C-6.232 -1.215 -6.59 0 0 0 Z " fill="currentColor" transform="translate(790,624)"/>
  </g>
</svg>
