<svg xmlns="http://www.w3.org/2000/svg" viewBox="0 0 512 512" fill="currentColor" width="512" height="512" data-name="pair-of-scales">
  <style>:root{color:#212529;}@media(prefers-color-scheme:dark){:root{color:#f8fafc;}}</style>
  <g transform="scale(0.32000)">
    <path d="M0 0 C8.8 3.2 18.1 2.6 27.3 2.5 C29.4 2.5 31.5 2.5 33.6 2.5 C38.1 2.6 42.6 2.6 47.1 2.5 C54.2 2.5 61.3 2.6 68.4 2.6 C79.6 2.6 90.9 2.6 102.1 2.6 C122.2 2.6 142.4 2.7 162.5 2.7 C169.6 2.7 176.6 2.7 183.7 2.7 C188.1 2.7 192.5 2.7 196.9 2.7 C199.9 2.7 202.9 2.7 205.9 2.7 C207.7 2.7 209.5 2.7 211.3 2.7 C212.8 2.8 214.4 2.8 216 2.8 C219.5 3 219.5 3 221.5 5 C221.7 8 221.8 11 221.8 14 C221.8 15.6 221.8 17.3 221.8 18.9 C221.5 23 221.5 23 219.5 25 C216.9 25.2 214.3 25.3 211.7 25.3 C210 25.3 208.3 25.3 206.6 25.3 C204.7 25.3 202.9 25.3 201 25.3 C200 25.3 200 25.3 195.1 25.4 C189.7 25.4 184.3 25.4 179 25.4 C173.4 25.4 167.8 25.4 162.2 25.5 C151.5 25.5 140.9 25.6 130.3 25.6 C118.2 25.6 106.2 25.7 94.1 25.7 C69.2 25.8 44.4 25.9 19.5 26 C19.5 27 19.4 28 19.4 29.1 C19.3 30.4 19.2 31.7 19.2 33.1 C19.1 34.4 19 35.7 18.9 37.1 C17.6 49.9 12.2 57.9 2.5 66 C-1.5 70 -0.5 71.4 0.3 76.9 C1.1 82.4 1.7 87.8 2.1 93.4 C2.5 99 2.5 99 3.5 102 C3.8 105.4 4.1 108.9 4.3 112.4 C4.4 113.4 4.4 114.4 4.5 115.4 C4.7 118.7 4.9 121.9 5.1 125.2 C5.2 127.4 5.4 129.6 5.5 131.8 C5.9 137.2 6.2 142.6 6.5 148 C11.6 149.3 13.5 147.7 18 145.5 C41.3 135.4 72.7 131.5 96.5 142 C97.6 142.5 98.7 142.9 99.8 143.4 C108.2 147.6 115.5 153.2 123 158.8 C129.5 163.4 136.4 167.3 143.5 171 C144.8 171.7 146 172.3 147.3 173 C152.4 175.4 157.6 177.1 163 178.7 C163.5 178.8 163.5 178.8 166.1 179.6 C187.3 186 210.4 184.4 228.5 171 C237 163.7 243.7 155.6 250.1 146.4 C257.7 135.9 265.8 127.6 279.2 126.6 C290.2 127.5 296.7 134.3 302.2 143.5 C303 145.3 303.8 147.1 304.5 149 C305.1 150.2 305.6 151.4 306.2 152.7 C311.9 166.7 313.2 181.7 307.5 196 C307.1 196.7 307.1 196.7 304.7 200.3 C302.5 204 302.5 204 304.5 209 C304.5 212.2 304.5 212.2 304 215.9 C303.3 225.1 304.1 234 306.7 242.9 C307.6 247.2 307.5 250.7 307.4 255.1 C307.3 261.5 308 264.6 311.5 270 C314.5 279.8 315 289.1 315.1 299.4 C315.5 304 315.5 304 318.5 309 C321.3 317.5 322.8 325.6 322.5 334.4 C322.3 341.6 324.1 345.7 327.5 352 C329.2 359.2 329.6 365.4 329.4 372.8 C329.3 380 330.5 383 334.5 389 C337.7 398.9 338.8 407.6 337.6 417.9 C337.5 423 340.1 426.6 342.5 431 C345.4 440.7 346.5 450 344.5 460 C345.3 461.1 346 462.1 346.7 463.2 C352.7 473.5 354.9 486.3 352.5 498 C353.9 501.5 353.9 501.5 355.5 505 C359.2 514.1 360.7 522.7 360.5 532.4 C360.4 538.7 361.1 541.7 364.5 547 C367.4 556.4 368.7 565.9 368.4 575.7 C368.6 581.5 369.7 583.1 372.5 588 C374.8 595.8 375.7 603.3 375.5 611.5 C375.4 617.7 376.1 620.7 379.5 626 C382.5 635.8 382.9 644.9 383 655.1 C383.6 660.4 385.1 663.4 387.5 668 C390 676.1 392.1 684.1 391 692.6 C390.5 699.2 392 700.7 395.5 706 C397.9 713.3 398.7 720.2 398.5 727.8 C398.3 734.2 399.6 738.2 402.5 744 C402.9 745.8 403.2 747.6 403.6 749.4 C404.5 754 404.5 754 407.5 756 C409.6 756.5 411.7 756.9 413.8 757.2 C415.1 757.4 416.3 757.6 417.6 757.8 C419 758 420.3 758.2 421.7 758.4 C424.4 758.9 427.2 759.3 429.9 759.8 C432.5 760.2 435 760.6 437.5 761 C479.4 767.8 479.4 767.8 485.5 778 C485.9 781.6 485.9 781.6 485.9 785.5 C485.9 786.8 485.9 788.1 485.9 789.4 C485.3 795.1 482.1 798.7 478.3 802.8 C474.8 806.5 471.7 810.4 468.6 814.5 C465 819 461.2 823.2 457.5 827.6 C455 830.5 452.7 833.4 450.4 836.4 C443.1 845 435.4 849.1 424.5 852 C423.4 852.3 422.3 852.6 421.1 853 C407.6 856.4 393.8 858.3 380 860.4 C377 860.9 373.9 861.5 370.9 862.1 C364.8 863.1 358.7 863.6 352.5 864.1 C340.9 864.9 340.9 864.9 337.5 866 C335.3 866.2 333.1 866.2 330.9 866.3 C329.5 866.4 328.2 866.4 326.8 866.4 C326 866.5 326 866.5 322.3 866.6 C321.5 866.6 321.5 866.6 317.7 866.7 C296.5 867.2 275.4 867.2 254.3 866.6 C252.9 866.5 251.4 866.5 250 866.4 C248.6 866.4 247.3 866.4 246 866.3 C244.8 866.3 243.6 866.2 242.4 866.2 C239.5 866 239.5 866 236.5 865 C234.3 864.8 232.1 864.6 229.9 864.4 C212.4 863 195.6 860.9 178.5 857 C176.9 856.7 175.3 856.3 173.6 856 C145.7 850 125.3 843.3 108.5 818.8 C106.2 815.5 103.5 812.5 100.9 809.4 C93.6 800.8 89.3 794.7 90.5 783 C93.2 775.8 96 772.9 103.6 770.9 C112.8 769 122 767.4 131.3 766.5 C134.5 766 134.5 766 138.5 764 C140.1 760 140.1 760 141.5 755.1 C144.1 746.4 144.1 746.4 148.5 742 C148.5 739 148.5 735.9 148.4 732.9 C148.7 723.3 150.8 713.7 156.5 706 C158.5 703 158.5 703 158.4 697.9 C158.3 688.1 159.8 677.6 165.8 669.8 C169.1 665.2 168.7 662.4 168.4 656.9 C168.7 648.3 170.5 637.5 176.2 631 C179.3 627 179.1 624.6 179 619.6 C179.4 609.2 180.9 598.8 187.4 590.3 C190.2 586 189.7 582.7 189.5 577.7 C189.6 569.3 191.3 560.7 196.7 554.1 C200.6 548.4 200.1 543.6 200.2 536.8 C200.8 528.5 202.5 519 208.5 513 C209.5 509 209.5 509 209.3 503.8 C209.2 494.7 211.2 483.9 217.2 476.9 C220 473.4 220 472 219.6 467.6 C219.3 457.5 220.8 447.8 226.7 439.5 C230.3 433.9 230 429.9 230.2 423.4 C230.9 414.8 232.5 404.6 238.2 397.8 C241.4 393.9 240.6 390.7 240.4 385.9 C240.7 377.5 242.9 367.8 247.7 360.9 C249.9 357.4 250 355.4 250 351.3 C250.4 341 252.2 329.8 258.2 321.3 C261 317.4 260.7 315 260.5 310.4 C260.7 300 263.1 288.5 270.5 281 C270.9 277.6 270.9 277.6 271 273.3 C271.5 261.2 274.7 250.4 278.5 239 C279.2 235.7 279.9 232.3 280.5 229 C280.7 228.4 280.7 228.4 281.7 225.5 C283.3 218.6 281.8 212.5 279.4 206.1 C277.2 199.9 277.3 195.5 278.5 189 C282.1 185.5 284.8 184.4 289.5 183 C293.5 184 293.5 184 296.5 187 C297.5 187.3 298.5 187.7 299.5 188 C300.5 172.9 297.7 157.7 285.5 147.4 C282.5 146 282.5 146 277.5 146 C268.9 151.8 263.8 160.1 258.7 168.9 C255.3 174.4 251.6 179.1 247.5 184 C246.4 185.4 245.3 186.7 244.2 188.1 C223.2 210.5 193.4 218.2 163.5 214 C142 209.9 121.1 202.5 102.3 191 C83.1 179.3 66.2 179.5 45.4 186.8 C43.8 187.5 42.2 188.3 40.5 189 C39.5 189.5 38.5 189.9 37.4 190.4 C22.6 197.4 8.1 204.3 5.1 221.7 C3.1 231.7 0.3 245.1 -9.5 250 C-18.4 241.1 -20.6 228.4 -23.2 216.5 C-28.1 199.2 -51 189.9 -66.5 184 C-86.5 177.8 -104.6 179.3 -122.5 191 C-141.9 202.2 -162.6 210.7 -185.1 212.7 C-188.5 213 -188.5 213 -191.5 214 C-222.2 215.1 -249.8 203.1 -268.7 178.5 C-271.1 175.1 -273.3 171.6 -275.5 168 C-277.8 164.5 -280.1 161.1 -282.5 157.6 C-283.3 156.5 -284.1 155.3 -284.9 154.2 C-290 147.8 -293.3 145 -301.5 145 C-310.7 150.3 -315.3 163.2 -317.5 173 C-317.9 181.8 -317.9 181.8 -316.5 186 C-310.6 185.1 -310.6 185.1 -309.5 184 C-305.1 183.5 -303.2 183.5 -299.6 186.2 C-294 193.4 -295.8 198.5 -298 206.8 C-299.7 213.4 -300.7 220.3 -298.5 227 C-298.5 229.4 -298.6 231.8 -298.8 234.3 C-298.8 241.4 -297.5 243.8 -292.5 249 C-289.5 257.7 -289.1 265.8 -289.1 274.9 C-288.3 279.8 -286.7 281.3 -283.5 285 C-280.1 294 -277 303.4 -277.3 313.1 C-277.5 318 -277.5 318 -273.5 322 C-272.2 325.2 -272.2 325.2 -271.3 328.9 C-270.9 330.1 -270.6 331.3 -270.3 332.5 C-269 338 -268.4 342.7 -268.8 348.4 C-268.8 355.1 -266.7 357.7 -262.5 363 C-258.9 372.3 -258 381.4 -258 391.2 C-257.3 395.9 -255.5 397.5 -252.5 401 C-249.4 409.3 -247.1 418 -247.3 426.9 C-247.5 432 -247.5 432 -244.5 437 C-239.3 445.7 -237.4 454.9 -237 465 C-236.7 471.4 -235.3 473.9 -231.5 479 C-228.7 486.8 -227.2 494.3 -227.5 502.6 C-227.7 508.6 -226.8 510.7 -222.5 515 C-218.8 524 -216.2 533.7 -216.6 543.4 C-216.4 549.9 -215.4 550.3 -211.5 555 C-207.5 565 -206.2 574.3 -206.6 584.9 C-206.4 589.3 -204.4 590.9 -201.5 594 C-197.3 603 -197 612 -197 621.8 C-196.3 626.8 -195.1 627.7 -191.5 631 C-186.9 641.5 -186.5 652.8 -186.5 664 C-185.5 665.1 -184.6 666.2 -183.7 667.3 C-176.9 677.1 -176 688.8 -176 700.5 C-175.3 704.9 -173.4 706.6 -170.5 710 C-167.1 718.4 -166 727.1 -165.9 736.1 C-165.5 739 -165.5 739 -161.5 743 C-160.3 746.9 -160.3 746.9 -159.4 751.4 C-158.3 756.9 -157.4 760.1 -154.5 765 C-149.6 766.8 -144.6 767.6 -139.6 768.4 C-123.6 771.5 -123.6 771.5 -119.4 777 C-116.3 784.9 -115.9 791.1 -120.3 798.5 C-123.8 803.5 -127.8 807.9 -132 812.3 C-134.3 814.8 -136.2 817.5 -138.2 820.3 C-160.2 851 -197.3 856.3 -232.6 860.5 C-235.9 860.9 -239.1 861.4 -242.3 862 C-250.4 863.2 -258.4 863.6 -266.6 864.1 C-269.5 864.2 -272.5 864.4 -275.4 864.5 C-276.7 864.6 -278 864.7 -279.3 864.7 C-282.5 865 -282.5 865 -285.5 866 C-289.9 866.1 -294.3 866.1 -298.8 866.1 C-300.1 866.1 -301.4 866.1 -302.8 866.1 C-305.6 866.1 -308.4 866.1 -311.1 866.1 C-315.4 866.1 -319.7 866.1 -324 866.1 C-326.7 866.1 -329.4 866.1 -332.1 866.1 C-333.4 866.1 -334.7 866.1 -336 866.1 C-345.1 866.1 -345.1 866.1 -348.5 865 C-350.6 864.8 -352.8 864.7 -354.9 864.6 C-379.3 863.4 -403.5 861.1 -427.5 856 C-428 855.9 -428 855.9 -431 855.3 C-435.1 854.4 -439.2 853.5 -443.3 852.6 C-444.7 852.3 -446 852.1 -447.4 851.8 C-464.4 848 -474.6 840.2 -484.9 826.3 C-488.1 822.2 -491.6 818.4 -495.1 814.6 C-498.5 810.9 -501.4 806.9 -504.5 803 C-505.7 801.7 -506.9 800.3 -508.2 798.9 C-514.1 791.8 -515.5 786.1 -513.5 777 C-508.1 768 -501.1 766.9 -491.5 765 C-490.5 764.8 -489.5 764.6 -488.5 764.4 C-481.8 763.1 -475.2 761.8 -468.5 760.6 C-465.9 760.1 -463.3 759.6 -460.7 759.1 C-451.4 757.3 -442.2 756.3 -432.8 755.6 C-428.6 755 -425.9 754.4 -422.5 752 C-420.8 747.3 -420.8 747.3 -419.5 742 C-418.7 740.9 -418 739.9 -417.3 738.8 C-414.9 733.7 -415.3 729.6 -415.5 724.1 C-415.4 716.1 -414.2 708.1 -410.3 701.1 C-407.8 695.6 -408.3 691.1 -408.5 685.2 C-408.4 674.6 -405.1 665.4 -400.5 656 C-400.4 653.4 -400.5 650.8 -400.6 648.3 C-400.7 637.4 -399.1 627.4 -393.5 618 C-393.2 614.3 -393.2 614.3 -393.4 610.2 C-393.5 604.4 -393.3 599.6 -391.5 594 C-391 592.1 -390.5 590.2 -390 588.3 C-388.5 583 -388.5 583 -385.5 579 C-385.3 575.5 -385.3 575.5 -385.5 571.3 C-385.7 558.4 -384 548.1 -377.5 537 C-377.8 535.4 -378.1 533.7 -378.5 532 C-378.7 526 -378 520.8 -376.7 514.9 C-376.4 513.4 -376.1 511.9 -375.7 510.3 C-374.5 506 -374.5 506 -372.3 502.5 C-370 498.1 -370.2 495.4 -370.5 490.6 C-370.7 480.8 -370.1 470.1 -364.3 461.9 C-362 458.3 -362.3 456.9 -363 452.8 C-364.2 441.8 -361.1 430.4 -355.5 421 C-355.3 417.9 -355.3 417.9 -355.5 414.4 C-355.7 404.1 -354.6 392.4 -349.3 383.4 C-347.1 379.4 -347.2 377.2 -347.5 372.6 C-347.7 362.9 -346.5 352.6 -341.8 343.9 C-340.2 340.4 -340.2 338 -340.5 334.1 C-340.6 324.1 -339.5 314.5 -334.8 305.6 C-331.7 299.6 -332.3 294 -332.5 287.4 C-332.4 278.5 -330 270.6 -325.5 263 C-325.3 259.4 -325.3 259.4 -325.5 255.3 C-325.7 245.9 -324.7 235.5 -320.5 227 C-320.1 223.1 -319.8 219.2 -319.6 215.3 C-319.6 214.2 -319.5 213.1 -319.4 212 C-319.1 205.7 -319.2 201.8 -323.5 197 C-332.9 180.7 -328.5 162.9 -321.6 146.7 C-317.1 137.1 -313.1 130.8 -303.5 126 C-288.4 124.1 -280.8 131.1 -270.7 141.4 C-266.8 145.7 -263.7 150.2 -260.5 155 C-245.7 173 -227.1 183.1 -203.6 182.4 C-178.5 180.1 -154.9 168.1 -134.8 153.5 C-118.5 141.6 -101.4 134.6 -81 134.6 C-80.4 134.6 -80.4 134.6 -77.5 134.6 C-68 134.8 -59.5 136.2 -50.5 139 C-49.3 139.3 -48.2 139.7 -47.1 140 C-42.4 141.5 -38 143.2 -33.5 145.3 C-29.5 147 -29.5 147 -24.5 147 C-24.3 145.3 -24.2 143.7 -24.1 142 C-23.7 137.4 -23.4 132.9 -23 128.3 C-22.9 127.3 -22.9 126.2 -22.8 125.1 C-22.4 121.9 -22 118.8 -21.5 115.6 C-20.8 111.2 -20.2 106.9 -19.9 102.6 C-19.8 101.4 -19.7 100.2 -19.6 99 C-19.5 96.6 -19.3 94.2 -19.1 91.8 C-18.6 83.3 -18.6 83.3 -17.5 80 C-15.9 68.4 -15.9 68.4 -21.1 63.7 C-22.5 62.8 -24 61.9 -25.5 61 C-34.8 50.1 -35.5 39.9 -35.5 26 C-36.5 26 -37.5 26 -38.6 26 C-63.6 25.9 -88.6 25.8 -113.6 25.7 C-125.7 25.7 -137.8 25.6 -149.9 25.6 C-160.4 25.5 -170.9 25.5 -181.5 25.5 C-187 25.4 -192.6 25.4 -198.2 25.4 C-204.4 25.4 -210.6 25.4 -216.9 25.3 C-218.7 25.3 -220.6 25.3 -222.5 25.3 C-224.2 25.3 -225.9 25.3 -227.6 25.3 C-229.1 25.3 -230.6 25.3 -232.1 25.3 C-235.5 25 -235.5 25 -237.5 23 C-237.6 20 -237.7 17 -237.7 14 C-237.7 12.4 -237.7 10.7 -237.7 9.1 C-237.5 5 -237.5 5 -235.5 3 C-232.7 2.8 -230 2.8 -227.2 2.7 C-226.4 2.7 -226.4 2.7 -221.9 2.7 C-220.9 2.7 -220.9 2.7 -215.9 2.7 C-213.9 2.7 -211.8 2.7 -209.7 2.7 C-205.3 2.7 -200.8 2.7 -196.3 2.7 C-189.2 2.7 -182.2 2.7 -175.1 2.7 C-155 2.6 -134.9 2.6 -114.7 2.6 C-103.6 2.6 -92.5 2.6 -81.4 2.6 C-74.4 2.5 -67.4 2.5 -60.4 2.6 C-56 2.6 -51.6 2.5 -47.2 2.5 C-44.2 2.5 -41.2 2.5 -38.3 2.5 C-25.8 2.5 -11.3 -5.1 0 0 Z M-16.5 28 C-18 31.1 -17.7 33.6 -17.5 37 C-14.5 42 -14.5 42 -11.6 42.6 C-11.1 42.6 -11.1 42.6 -8.5 42.6 C-7.4 42.6 -6.3 42.6 -5.3 42.6 C-2.5 42 -2.5 42 0.5 38 C2.1 33 1.3 30.4 -1.5 26 C-6.7 23.4 -12.5 24 -16.5 28 Z M283.5 282 C283.5 283.7 283.5 285.3 283.5 287 C286.5 284 286.5 284 286.5 282 C285.6 282 284.6 282 283.5 282 Z M-300.5 302 C-300.6 302.9 -300.7 303.7 -300.8 304.6 C-302.2 314.3 -302.2 314.3 -303.7 319.1 C-304.5 322 -304.5 322 -302.5 326 C-302.2 329.1 -302.2 329.1 -302.2 332.7 C-302.2 333.4 -302.2 333.4 -302.2 336.7 C-302.2 338 -302.2 339.4 -302.2 340.8 C-302.2 342.2 -302.2 343.5 -302.2 344.9 C-302.2 346.2 -302.2 347.5 -302.2 348.9 C-302.2 350.1 -302.2 351.3 -302.2 352.5 C-302.5 356 -302.5 356 -303.6 359.7 C-304.5 363 -304.5 363 -302.5 367 C-302.2 370.2 -302.2 370.2 -302.2 373.9 C-302.2 375.2 -302.2 376.5 -302.2 377.9 C-302.2 379.3 -302.3 380.7 -302.3 382.1 C-302.3 383.5 -302.3 384.9 -302.3 386.4 C-302.3 396.7 -302.3 396.7 -303.5 399 C-303.7 403.9 -303.3 406.3 -301.5 411 C-301.3 414.8 -301.2 418.6 -301.2 422.4 C-301.2 423.5 -301.2 424.5 -301.2 425.5 C-301.2 430.8 -301.6 435.1 -303.5 440 C-303.5 446 -303.5 446 -301.5 451 C-301.2 455.1 -301.1 459.1 -301.1 463.3 C-301.1 464.3 -301.1 465.4 -301.1 466.6 C-301.1 471.9 -301.4 475.8 -303.2 480.9 C-304.8 486 -303.7 487.2 -301.5 492 C-301.2 496.3 -301.1 500.4 -301.1 504.6 C-301.1 505.7 -301.1 506.9 -301.1 508 C-301.2 513.3 -301.5 517 -303.5 522 C-303.5 528 -303.5 528 -301.5 532 C-301.3 536.4 -301.2 540.6 -301.2 545 C-301.2 546.2 -301.2 547.4 -301.2 548.6 C-301.2 557.5 -301.2 557.5 -303.5 562 C-303.5 568 -303.5 568 -301.5 572 C-301.2 574.9 -301.2 574.9 -301.2 578.2 C-301.2 579.3 -301.2 580.5 -301.2 581.8 C-301.2 583 -301.2 584.2 -301.2 585.5 C-301.2 586.7 -301.2 588 -301.2 589.2 C-301.2 590.4 -301.2 591.6 -301.2 592.8 C-301.2 593.9 -301.2 595 -301.2 596.1 C-301.5 599 -301.5 599 -303.5 603 C-303.5 609 -303.5 609 -301.5 613 C-301.2 615.9 -301.2 615.9 -301.2 619.1 C-301.2 619.7 -301.2 619.7 -301.2 622.7 C-301.2 623.9 -301.2 625.2 -301.2 626.4 C-301.2 627.7 -301.2 628.9 -301.2 630.2 C-301.2 631.3 -301.2 632.5 -301.2 633.7 C-301.2 634.8 -301.2 635.9 -301.2 637 C-301.5 640 -301.5 640 -303.5 645 C-303.2 648 -302.8 650.3 -301.5 653 C-301.2 657.6 -301.3 662.2 -301.3 666.9 C-301.3 667.5 -301.3 667.5 -301.2 670.8 C-301.2 672 -301.2 673.3 -301.2 674.6 C-301.2 675.1 -301.2 675.1 -301.2 678 C-301.5 681 -301.5 681 -303.5 685 C-302.9 691 -302.9 691 -301.5 694 C-301.2 698.6 -301.3 703.2 -301.3 707.9 C-301.3 708.5 -301.3 708.5 -301.2 711.8 C-301.2 713 -301.2 714.3 -301.2 715.6 C-301.2 716.1 -301.2 716.1 -301.2 719 C-301.5 722 -301.5 722 -303.5 726 C-303.1 729.2 -302.5 731.9 -301.5 735 C-301.2 738.3 -301.1 741.6 -300.9 745 C-300.5 748 -300.5 748 -297.5 751 C-293.6 751.4 -289.8 751.6 -286 751.6 C-274.8 751.9 -274.8 751.9 -271.5 753 C-269.1 753.2 -266.7 753.4 -264.3 753.5 C-262.8 753.6 -261.4 753.7 -260 753.8 C-258.5 753.8 -257 753.9 -255.5 754 C-252.5 754.2 -249.6 754.3 -246.6 754.5 C-245.3 754.6 -244 754.6 -242.7 754.7 C-239.5 755 -239.5 755 -236.5 756 C-234.1 756.3 -231.8 756.5 -229.4 756.7 C-228 756.8 -226.6 756.9 -225.1 757.1 C-222.1 757.3 -219.2 757.6 -216.2 757.8 C-207.5 758.6 -199 759.6 -190.5 761 C-178.8 762.4 -178.8 762.4 -177.5 761 C-177.5 758.6 -177.7 756.1 -177.8 753.7 C-177.9 752.4 -178 751 -178.1 749.6 C-178.5 745.2 -179.5 742 -181.3 737.9 C-184.9 729.7 -186.5 722.7 -186.8 713.8 C-187.1 707.1 -188.3 704.3 -192.5 699 C-196.1 690.1 -196.9 681.4 -196.9 671.8 C-197.6 667.1 -199.4 665.6 -202.5 662 C-205.6 653.5 -207.8 644.8 -207.5 635.7 C-207.4 629.8 -207.8 628.3 -211.5 624 C-216.3 615.9 -217.5 607 -217.8 597.8 C-218.1 590.9 -219.6 587.7 -223.5 582 C-226.2 574.1 -228.5 566.6 -228.3 558.3 C-228.5 551.8 -230.7 548.3 -233.7 542.7 C-237.4 534.9 -238.7 526.5 -238.4 517.9 C-238.5 512.6 -238.9 511.6 -242.5 508 C-246.7 499.9 -248.7 490.7 -248.4 481.6 C-248.5 475.7 -249 474.4 -252.5 470 C-253.5 467 -254.5 464 -255.5 461 C-255.8 459.9 -256.2 458.8 -256.5 457.7 C-257.5 453.7 -257.7 450.2 -257.8 446.1 C-258.1 439.1 -259.6 435.8 -263.5 430 C-266.5 421.4 -268.6 413 -269 403.8 C-269.2 397.5 -270.6 395 -274.5 390 C-277.3 382.3 -278.6 374.7 -278.9 366.5 C-279.2 359.9 -280.4 357.2 -284.5 352 C-287.3 344.3 -288.6 336.8 -288.8 328.6 C-289.1 321.4 -291.1 317.8 -295.5 312 C-297.3 306.4 -297.3 306.4 -298.5 302 C-299.1 302 -299.8 302 -300.5 302 Z M280.5 304 C280.3 304.9 280.3 304.9 278.8 309.7 C277.3 314.3 275.6 317.3 272.5 321 C271.7 324.6 271.5 327.8 271.7 331.5 C271.4 340.8 268.8 350.3 263.5 358 C261.1 361.7 261.3 363.8 261.2 368.2 C260.1 388.8 260.1 388.8 253.9 396.1 C250.7 400.1 251.5 403.1 251.8 407.9 C251.2 418.3 248.2 429.9 241.5 438 C241.6 440.5 241.7 442.9 241.8 445.4 C241.2 454.8 238.1 465.5 233.4 473.7 C231.4 477.3 231.1 479.4 231 483.4 C230.6 493.5 229.1 503.3 223.3 511.8 C220.2 516.5 220.3 519 220.6 524.5 C220.5 534 218.1 543.4 212.5 551 C210.5 555 210.5 555 210.7 559.1 C210.5 569 209.2 579.9 203.4 588.1 C200 594 200.1 598.1 199.9 604.7 C199.3 612.4 197.5 621.6 192.4 627.5 C189.9 630.9 190.1 633.2 190 637.4 C189.6 648.1 187.9 658.1 181.5 667 C179.5 670 179.5 670 180.1 673.5 C181.2 683.6 177.9 695.5 172.3 703.8 C168.7 709.3 169 713.4 168.8 719.8 C168.2 728.9 166.2 739.3 159.5 746 C159.6 748.5 159.8 751 160 753.6 C160.1 754.9 160.2 756.3 160.3 757.8 C160.4 758.8 160.5 759.9 160.5 761 C165.3 762.2 168.8 761.7 173.6 761.1 C175.2 760.9 176.8 760.8 178.5 760.6 C182.5 760 182.5 760 185.5 759 C188.3 758.7 191.1 758.5 193.8 758.3 C194.7 758.2 194.7 758.2 198.8 757.9 C202.3 757.6 205.8 757.4 209.3 757.1 C210.1 757 210.1 757 214.3 756.7 C215.8 756.6 217.3 756.5 218.9 756.4 C222.5 756 222.5 756 225.5 755 C228.6 754.8 231.6 754.7 234.6 754.5 C235.5 754.5 235.5 754.5 240.2 754.3 C244 754.1 247.9 754 251.7 753.8 C277.8 752.7 277.8 752.7 282.5 748 C283 744.2 283 744.2 283.2 739.7 C283.5 731.4 283.5 731.4 284.1 727.6 C284.5 725 284.5 725 283.5 722 C283.4 717.7 283.3 713.5 283.3 709.2 C283.3 708 283.3 706.8 283.2 705.6 C283.2 696.7 283.2 696.7 285.3 692.7 C287.3 688.4 285.1 685.4 283.5 681 C283.1 676.8 283.1 672.7 283.2 668.5 C283.2 667.4 283.1 666.3 283.1 665.2 C283.2 660 283.5 656.2 285.3 651.2 C286.9 646 285.8 644.8 283.5 640 C283.3 636 283.1 632.2 283.2 628.2 C283.2 627.2 283.1 626.1 283.1 625.1 C283.2 619.9 283.6 615.7 285.3 610.7 C286.8 605 285.8 603.3 283.5 598 C283.3 594 283.2 590.2 283.2 586.3 C283.2 585.2 283.2 584.2 283.2 583.1 C283.3 578.4 283.4 575.3 285.5 571 C285.9 563.7 285.9 563.7 284.5 561 C283.2 549.4 282.1 538 286.5 527 C285.5 522 285.5 522 284.5 520 C284.3 515.2 284.4 510.4 284.4 505.6 C284.3 504.3 284.3 502.9 284.3 501.6 C284.3 500.3 284.3 499 284.3 497.7 C284.3 496.5 284.3 495.3 284.3 494.1 C284.5 491 284.5 491 286.5 487 C286.3 484 285.9 481.7 284.5 479 C284.5 476.8 284.4 474.7 284.4 472.5 C284.4 471.2 284.4 469.9 284.4 468.6 C284.4 467.3 284.4 465.9 284.4 464.5 C284.4 463.1 284.4 461.8 284.4 460.4 C284.4 459.1 284.4 457.8 284.4 456.5 C284.4 455.3 284.4 454.1 284.4 452.9 C284.5 450 284.5 450 285.5 448 C285.8 440.5 285.8 440.5 284.5 438 C284.3 433.4 284.4 428.8 284.4 424.2 C284.3 422.9 284.3 421.6 284.3 420.3 C284.3 419.1 284.3 417.8 284.3 416.5 C284.3 415.4 284.3 414.3 284.3 413.1 C284.5 410 284.5 410 286.5 405 C286.3 402 285.9 399.7 284.5 397 C284.4 392.6 284.4 388.3 284.4 383.9 C284.3 382.7 284.3 381.5 284.3 380.2 C284.3 375 284.4 370.6 285.7 365.5 C286.7 361.4 285.9 360 284.5 356 C284.3 352.9 284.3 352.9 284.3 349.6 C284.3 349 284.3 349 284.3 346 C284.3 344.8 284.3 343.6 284.3 342.3 C284.3 341.7 284.3 341.7 284.3 338.6 C284.3 329.4 284.3 329.4 286.5 326 C286.9 321.3 286.7 319.3 284.5 315 C283.8 311.3 283.2 307.7 282.5 304 C281.9 304 281.2 304 280.5 304 Z M-318.5 317 C-320.5 321 -320.5 321 -321.4 325.8 C-322.7 332.3 -324.5 336.7 -328.5 342 C-328.4 345.3 -328.4 345.3 -327.9 349.2 C-326.9 361.7 -329.4 372.6 -336.5 383 C-336.1 384.7 -335.8 386.3 -335.5 388 C-334.7 397.9 -336.4 409 -341.6 417.6 C-343.7 421.5 -343.7 423.1 -343 427.4 C-341.9 437.2 -343.8 447.2 -348.6 455.9 C-350.8 460.7 -351 464.3 -351 469.6 C-351.7 489.5 -351.7 489.5 -356.6 497.4 C-358.8 501.7 -358.8 504.3 -358.6 509.2 C-358.3 520.3 -359.2 529.6 -365.5 539 C-365.7 542.1 -365.8 545.1 -365.8 548.2 C-366.3 559.5 -367.6 570.2 -373.5 580 C-373.6 583.6 -373.6 583.6 -373.4 587.8 C-373.2 598.8 -374.1 610.3 -381.5 619 C-381.2 621.8 -381.2 621.8 -380.5 625 C-380.2 631 -380.9 636.3 -382.2 642.1 C-382.5 643.7 -382.9 645.2 -383.2 646.8 C-384.5 651 -384.5 651 -386.6 654 C-389.2 658.1 -388.7 661.1 -388.5 665.9 C-388.2 677.2 -389.1 688 -396.5 697 C-397 703 -397 703 -395.5 706 C-395.8 711.6 -396.8 717.1 -397.8 722.7 C-398 723.9 -398.2 725.2 -398.4 726.5 C-399.5 730 -399.5 730 -401.5 733 C-403.9 736.7 -403.9 738.9 -403.8 743.3 C-403.7 744.5 -403.7 745.7 -403.7 747 C-403.5 750 -403.5 750 -402.5 752 C-398.5 753 -398.5 753 -395.5 752 C-392.3 751.8 -389.1 751.6 -385.9 751.5 C-384.9 751.5 -383.8 751.4 -382.8 751.4 C-374.4 751.1 -366.1 750.9 -357.8 750.8 C-355.5 750.8 -353.2 750.8 -351 750.7 C-346.4 750.7 -341.8 750.6 -337.2 750.6 C-335.1 750.5 -332.9 750.5 -330.8 750.5 C-329.8 750.5 -329.8 750.5 -325 750.4 C-320.5 750 -320.5 750 -317.5 747 C-317.1 743.3 -316.7 739.7 -316.5 736 C-316.3 735.2 -316.3 735.2 -315.3 731.1 C-314.5 727 -314.5 727 -316.5 722 C-316.7 718.9 -316.7 718.9 -316.7 715.5 C-316.7 714.9 -316.7 714.9 -316.7 711.8 C-316.7 710.5 -316.7 709.3 -316.7 707.9 C-316.7 707.3 -316.7 707.3 -316.7 704.1 C-316.7 702.8 -316.7 701.6 -316.7 700.3 C-316.7 699.2 -316.7 698.1 -316.7 696.9 C-316.5 694 -316.5 694 -314.5 690 C-315 684 -315 684 -316.5 681 C-316.6 676.6 -316.6 672.3 -316.6 667.9 C-316.7 666.7 -316.7 665.5 -316.7 664.3 C-316.7 657.5 -315.9 651.6 -314.5 645 C-315.1 643.7 -315.8 642.4 -316.5 641 C-316.7 637.9 -316.7 637.9 -316.7 634.4 C-316.7 633.1 -316.7 631.9 -316.7 630.5 C-316.7 629.2 -316.7 627.9 -316.7 626.5 C-316.7 625.8 -316.7 625.8 -316.7 622.5 C-316.7 621.2 -316.7 619.9 -316.7 618.6 C-316.7 617.4 -316.7 616.3 -316.7 615.1 C-316.5 612 -316.5 612 -314.5 608 C-315 602.5 -315 602.5 -316.5 601 C-316.7 596.3 -316.6 591.6 -316.6 586.9 C-316.7 585.6 -316.7 584.2 -316.7 582.9 C-316.7 581.6 -316.7 580.3 -316.7 579 C-316.7 577.8 -316.7 576.6 -316.7 575.4 C-316.5 572 -316.5 572 -315.4 568.3 C-314.1 563.6 -315.8 560.6 -317.5 556 C-318.2 546.9 -318.6 537.4 -315.8 528.7 C-314.5 524 -314.5 524 -315.8 520.5 C-317.8 514.9 -317.9 509.9 -317.8 504.1 C-317.8 503 -317.9 502 -317.9 500.9 C-317.8 495.9 -317.4 491.9 -315.7 487.2 C-314.1 482 -315.2 480.8 -317.5 476 C-317.7 472 -317.9 468.2 -317.8 464.2 C-317.8 463.2 -317.9 462.1 -317.9 461.1 C-317.8 455.8 -317.3 451.6 -315.7 446.6 C-314.2 441.1 -314.9 440.8 -317.5 436 C-317.9 431.6 -317.8 427.3 -317.8 422.9 C-317.8 421.7 -317.8 420.5 -317.8 419.3 C-317.7 410.5 -317.7 410.5 -315.5 406 C-315.1 401.3 -315.3 399.3 -317.5 395 C-317.6 390.6 -317.7 386.4 -317.7 382 C-317.7 381.4 -317.7 381.4 -317.7 378.4 C-317.7 369.5 -317.7 369.5 -315.5 365 C-315.5 359 -315.5 359 -317.5 355 C-317.7 352 -317.7 352 -317.7 348.6 C-317.7 347.4 -317.7 346.2 -317.7 344.9 C-317.7 343.6 -317.7 342.3 -317.7 341 C-317.7 340.4 -317.7 340.4 -317.7 337.1 C-317.7 335.9 -317.7 334.6 -317.7 333.4 C-317.7 332.2 -317.7 331.1 -317.7 330 C-317.5 327 -317.5 327 -315.5 323 C-315.8 319.8 -315.8 319.8 -316.5 317 C-317.1 317 -317.8 317 -318.5 317 Z M298.5 320 C298.5 326 298.5 326 299.5 328 C299.8 332.7 299.7 337.5 299.7 342.2 C299.7 343.5 299.8 344.8 299.8 346.2 C299.8 347.5 299.8 348.7 299.8 350 C299.8 351.2 299.8 352.4 299.8 353.6 C299.5 357 299.5 357 298.4 360.6 C297.5 364 297.5 364 299.5 369 C299.8 372.1 299.8 372.1 299.8 375.4 C299.8 376.7 299.8 377.9 299.8 379.1 C299.8 380.4 299.8 381.7 299.8 383 C299.8 384.3 299.8 385.5 299.8 386.9 C299.8 388.1 299.8 389.3 299.8 390.6 C299.8 391.7 299.8 392.8 299.8 393.9 C299.5 397 299.5 397 297.5 402 C297.9 405.2 298.5 407.9 299.5 411 C299.7 415.3 299.7 419.6 299.7 423.9 C299.7 425.1 299.8 426.2 299.8 427.5 C299.8 428.6 299.8 429.8 299.8 430.9 C299.8 432 299.8 433 299.8 434.1 C299.5 437 299.5 437 297.5 442 C297.8 445.3 298.1 448 299.5 451 C299.7 455.5 299.7 459.9 299.7 464.4 C299.7 465.6 299.8 466.9 299.8 468.1 C299.8 469.3 299.8 470.5 299.8 471.8 C299.8 472.9 299.8 474 299.8 475.1 C299.5 478 299.5 478 297.5 482 C297.2 486.7 297.4 488.7 299.5 493 C299.7 497.4 299.8 501.6 299.8 506 C299.8 507.2 299.8 508.4 299.8 509.6 C299.8 518.5 299.8 518.5 297.5 523 C297.5 529 297.5 529 299.5 533 C299.7 537.4 299.8 541.6 299.8 546 C299.8 547.2 299.8 548.4 299.8 549.6 C299.8 558.5 299.8 558.5 297.5 563 C297.2 567.7 297.4 569.7 299.5 574 C299.8 578.3 299.9 582.6 299.9 586.9 C299.9 588 299.9 589.2 299.9 590.4 C299.9 599.3 299.9 599.3 297.8 603.2 C295.8 607.7 298.1 611.4 299.5 616 C299.8 620.1 300 624 299.9 628.1 C299.9 629.1 299.9 630.1 300 631.2 C299.9 636.1 299.5 640 297.8 644.7 C296.2 650.1 297.4 651.9 299.5 657 C299.9 662.5 299.9 662.5 299.9 668.4 C299.9 670.3 299.9 672.3 299.9 674.3 C299.5 680 299.5 680 297.9 685.4 C296.5 690 296.5 690 298.5 695 C298.8 698 298.8 698 298.8 701.4 C298.8 702.6 298.8 703.8 298.8 705.1 C298.8 706.4 298.7 707.6 298.7 708.9 C298.7 710.2 298.7 711.5 298.7 712.8 C298.7 722.2 298.7 722.2 298 726.3 C297.5 729 297.5 729 298.5 731 C298.8 735.4 298.9 739.7 299.1 744.1 C299.5 748 299.5 748 302.5 751 C306.8 751.4 306.8 751.4 312.1 751.5 C313.1 751.5 313.1 751.5 317.9 751.6 C320 751.6 322 751.6 324 751.6 C328 751.7 332 751.7 336 751.8 C337.7 751.8 339.5 751.8 341.3 751.8 C345.5 752 345.5 752 348.5 753 C354.2 753.4 359.9 753.5 365.6 753.6 C367.2 753.7 368.8 753.7 370.4 753.8 C371.2 753.8 371.2 753.8 375 753.9 C376.4 754 377.8 754 379.2 754 C382.5 754 382.5 754 384.5 753 C384.8 749.4 384.8 749.4 384.9 744.9 C384.9 744.1 384.9 744.1 384.9 740.4 C384.5 735.9 383.4 733 381.5 729 C379 719.8 378.3 711.1 378.8 701.6 C378.5 697.2 377 695.5 374.5 692 C371.4 682.6 369 672.7 371.3 662.8 C371.5 660 371.5 660 369.9 657.1 C365 648.5 360.3 634 363.9 624.5 C364.8 619.7 362.7 617.8 360.2 613.9 C355.8 605.9 353.9 593.9 356.4 585.1 C356.5 582 356.5 582 354.3 578 C348.5 567.4 348.2 556.9 348.8 545 C348.5 540.4 347.2 538.8 344.5 535 C343.3 530.5 343.3 530.5 342.3 525.6 C342 524 341.6 522.4 341.3 520.7 C340.4 515.3 340 510.3 341.3 504.9 C341.6 500.9 339.8 499.3 337.5 496 C333.4 486.1 333.1 476.2 332.9 465.6 C332.5 461 332.5 461 329.5 456 C328.5 452.3 327.6 448.7 326.8 445 C326.7 444.5 326.7 444.5 326.1 442 C325 437.1 324.6 434 325.5 429 C326.1 424.1 325.6 422.2 323.2 417.8 C318.6 409.4 318.5 402.2 318.7 392.9 C318.8 385.3 317.6 381.4 313.5 375 C311.4 366.2 311.5 358 311.8 349 C311.5 343.4 308.8 340.4 305.5 336 C304.9 332.9 304.9 332.9 304.5 329.4 C303.8 323.3 303.8 323.3 301.5 320 C300.6 320 299.6 320 298.5 320 Z M-341.5 769 C-344.5 769.1 -347.5 769.2 -350.5 769.3 C-352.4 769.3 -354.2 769.4 -356.1 769.4 C-358.1 769.4 -360 769.5 -362 769.5 C-369.5 769.6 -377 769.8 -384.5 770 C-386.1 770 -387.8 770.1 -389.6 770.1 C-390.4 770.1 -390.4 770.1 -394.4 770.3 C-395.7 770.3 -397.1 770.4 -398.5 770.4 C-403.2 771.1 -406.4 772.6 -410.5 775 C-412.3 780.3 -411.1 784.7 -409.5 790 C-404.9 794.5 -396.3 793.4 -390.2 793.7 C-386.5 794 -386.5 794 -382.5 795 C-352.4 797.5 -321.9 797.2 -291.7 797.2 C-286.2 797.2 -280.6 797.2 -275 797.2 C-257.3 797.3 -239.7 797 -222.1 796.1 C-220.6 796 -219.1 796 -217.6 795.9 C-208.8 795.4 -200.2 794.4 -191.5 793 C-189.1 792.7 -186.8 792.3 -184.5 792 C-175.2 790.5 -175.2 790.5 -171.5 789 C-171.1 787.7 -170.8 786.4 -170.5 785 C-175.4 781.3 -178.8 781.2 -184.9 780.4 C-186.9 780.2 -188.9 779.9 -190.9 779.7 C-192.7 779.5 -194.6 779.2 -196.5 779 C-198.8 778.7 -201.2 778.3 -203.5 777.9 C-204.4 777.8 -205.4 777.6 -206.3 777.5 C-209.2 777 -212.1 776.5 -215 776 C-224.5 774.6 -234 774.1 -243.6 773.4 C-247.3 773.2 -251 772.9 -254.6 772.7 C-256.3 772.6 -257.9 772.5 -259.6 772.4 C-263.5 772 -263.5 772 -266.5 771 C-297.5 768.7 -297.5 768.7 -302.5 772 C-302.9 773 -303.4 774 -303.8 775.1 C-305.5 778 -305.5 778 -310.5 779 C-313.5 775 -313.5 775 -315.5 771 C-318.3 769.6 -321 769.7 -324.1 769.5 C-328 769.3 -331.8 769 -335.6 768.4 C-338.5 768 -338.5 768 -341.5 769 Z M299.5 773 C298.8 775.3 298.1 777.6 297.5 780 C293.3 780 289 780 284.5 780 C284.1 778.7 283.6 777.4 283.2 776.1 C281.5 772 281.5 772 279.5 771 C275.7 770.9 271.9 770.9 268.1 770.9 C267 770.9 266 770.9 264.9 770.9 C256.9 770.9 256.9 770.9 253.5 772 C250.1 772.3 246.7 772.5 243.3 772.7 C242.3 772.8 241.3 772.8 240.2 772.9 C235.9 773.2 231.6 773.4 227.3 773.7 C224.1 773.9 221 774.1 217.8 774.3 C216.9 774.3 216.9 774.3 212.1 774.6 C207.5 775 207.5 775 204.5 776 C199.9 776.4 195.2 776.8 190.5 777.2 C183.8 777.7 177.2 778.8 170.5 780 C166.1 780.5 161.7 780.9 157.3 781.2 C153.5 782 153.5 782 149.5 786 C149.5 787.7 149.5 789.3 149.5 791 C159.2 794.9 169.6 795.4 179.9 796.1 C180.5 796.1 180.5 796.1 183.5 796.3 C193.4 797 203.3 797.4 213.2 797.8 C217.5 798 217.5 798 220.5 799 C223 799.1 225.4 799.1 227.8 799.1 C229.3 799.1 230.8 799.1 232.4 799.1 C234 799.1 235.7 799.1 237.4 799.1 C238.2 799.1 238.2 799.1 242.4 799.1 C246 799.1 249.5 799.1 253.1 799.1 C258.5 799.1 264 799.1 269.4 799.1 C272.9 799.1 276.3 799.1 279.7 799.1 C280.6 799.1 280.6 799.1 284.7 799.1 C285.5 799.1 285.5 799.1 289.3 799.1 C290.6 799.1 291.9 799.1 293.3 799.1 C296.5 799 296.5 799 299.5 798 C303.5 797.8 307.4 797.6 311.3 797.5 C312.5 797.5 313.6 797.4 314.8 797.4 C318.6 797.2 322.4 797.1 326.2 797 C369.9 795.5 369.9 795.5 374.5 794 C377.8 793.7 381.1 793.6 384.4 793.4 C387.5 793 387.5 793 391.5 791 C392.8 787.4 392.2 785.6 391.3 781.9 C391 780.9 390.8 779.8 390.5 778.7 C389.5 776 389.5 776 386.5 774 C382.2 773.6 377.9 773.2 373.5 772.9 C360.9 772.1 360.9 772.1 357.5 771 C355.4 770.8 353.2 770.8 351.1 770.7 C349.7 770.6 348.4 770.6 347.1 770.6 C345.7 770.5 344.3 770.5 342.8 770.4 C341.4 770.4 339.9 770.4 338.5 770.3 C334.2 770.2 329.9 770.1 325.5 770 C324.3 770 323.1 769.9 321.8 769.9 C318.6 769.8 315.4 769.8 312.2 769.8 C310.4 769.7 308.6 769.7 306.7 769.7 C302.5 770 302.5 770 299.5 773 Z M-468.5 783 C-458.3 789.8 -441.4 789.2 -429.5 789 C-427.5 784.7 -425.5 780.4 -423.5 776 C-429.7 769.7 -462.1 776.6 -468.5 783 Z M410.5 778 C409.3 784.5 409.3 784.5 411.5 789 C421.9 789.9 433.2 788.7 442.5 784 C440 779 427.7 778.9 422.5 778 C418.5 777.7 414.6 777.8 410.5 778 Z M-474.5 807 C-475.5 811 -475.5 811 -473.9 813.3 C-471.4 815.9 -469 818.5 -466.5 821 C-465.8 821.6 -465.8 821.6 -462.6 824.9 C-454.5 830.9 -443.9 832.8 -434.1 835.1 C-433 835.3 -431.8 835.6 -430.7 835.8 C-420 838.2 -409.3 839.7 -398.5 841 C-396.1 841.4 -393.7 841.7 -391.3 842.1 C-387.3 842.7 -383.4 843.2 -379.3 843.6 C-374.5 844 -374.5 844 -371.5 845 C-341.4 847.6 -311.3 847.4 -281.3 846.1 C-279.3 846 -277.4 846 -275.3 845.9 C-265.9 845.5 -256.7 844.8 -247.5 843 C-245.5 842.7 -243.5 842.4 -241.5 842.1 C-240.4 841.9 -239.3 841.7 -238.2 841.6 C-235.4 841.1 -232.6 840.8 -229.8 840.4 C-215.7 838.6 -202.2 835.6 -188.5 832 C-186.8 831.6 -185.2 831.2 -183.5 830.7 C-172.4 827.8 -162.1 823.9 -155.5 814 C-155.5 813.3 -155.5 812.7 -155.5 812 C-160.8 811.9 -165.5 812.3 -170.6 813.4 C-179.1 815.1 -187.5 815.9 -196.1 816.6 C-200.5 817 -200.5 817 -203.5 818 C-208.4 818.5 -213.3 818.7 -218.3 819 C-219.8 819.1 -221.2 819.2 -222.8 819.3 C-236.3 820 -249.8 820.4 -263.4 820.7 C-264.9 820.7 -266.5 820.7 -268 820.8 C-268.7 820.8 -268.7 820.8 -272.2 820.8 C-275.5 821 -275.5 821 -278.5 822 C-282.8 822.1 -287.2 822.1 -291.5 822.1 C-292.8 822.1 -294.1 822.1 -295.5 822.1 C-298.2 822.1 -301 822.1 -303.7 822.1 C-307.9 822.1 -312.1 822.1 -316.4 822.1 C-319 822.1 -321.7 822.1 -324.4 822.1 C-325.6 822.1 -326.9 822.1 -328.2 822.1 C-337.1 822.1 -337.1 822.1 -340.5 821 C-344.3 820.8 -348.2 820.6 -352.1 820.5 C-353.3 820.5 -354.4 820.4 -355.6 820.4 C-359.4 820.2 -363.1 820.1 -366.8 820 C-370.5 819.9 -374.2 819.8 -377.9 819.6 C-380.2 819.5 -382.5 819.5 -384.8 819.4 C-394.1 819.1 -403.3 818.7 -412.5 817.2 C-416.5 817 -416.5 817 -420.5 821 C-421.4 822.7 -422.4 824.3 -423.5 826 C-425.1 825.7 -426.8 825.3 -428.5 825 C-429.5 822 -430.5 819 -431.5 816 C-435.7 813.2 -439.5 813.2 -444.5 812.6 C-454.7 811.3 -464.5 809.4 -474.5 807 Z M437.4 810.3 C433.1 811.4 428.8 812.3 424.4 813 C419.5 814 419.5 814 416.5 817 C416.5 819 416.5 821 416.5 823 C413.8 827.1 411.2 827.6 406.5 829 C404.6 829 402.6 829 400.5 829 C400.3 827.6 400 826.1 399.7 824.6 C398.5 820 398.5 820 396.5 818 C392.8 818 389.2 818.2 385.5 818.4 C384.4 818.5 383.3 818.6 382.2 818.6 C379.9 818.8 377.5 818.9 375.2 819.1 C371.6 819.3 368.1 819.5 364.5 819.7 C362.2 819.9 360 820 357.7 820.2 C356.6 820.2 355.6 820.3 354.5 820.4 C346.9 820.9 346.9 820.9 343.5 822 C340.9 822.2 338.2 822.3 335.5 822.3 C334.7 822.3 334.7 822.3 330.5 822.4 C329.6 822.5 329.6 822.5 325 822.6 C324 822.6 324 822.6 319.3 822.7 C291.4 823.3 263.5 823.2 235.6 822.6 C233.7 822.5 231.9 822.5 230 822.4 C228.2 822.4 226.5 822.4 224.8 822.3 C223.3 822.3 221.7 822.2 220.2 822.2 C216.5 822 216.5 822 213.5 821 C211 820.8 208.5 820.7 206 820.6 C183.8 819.7 161.8 818.3 140 813.9 C136 813.1 132.6 812.8 128.5 813 C130.2 821.2 135.7 824.1 142.9 827.6 C181.8 842.5 226.7 847.1 268.1 847.2 C269.7 847.2 271.3 847.2 273 847.2 C276.4 847.2 279.8 847.2 283.2 847.2 C288.3 847.2 293.4 847.2 298.5 847.2 C321.7 847.3 344.7 847.1 367.5 843 C369.4 842.7 371.2 842.4 373.1 842.1 C374.1 841.9 375.1 841.7 376.2 841.5 C378.6 841.2 381 840.8 383.5 840.5 C393.8 839 404 837 414.2 834.7 C415.5 834.4 416.8 834.1 418.1 833.9 C425.6 832.2 430.7 830.2 436.5 825 C437 824.6 437 824.6 439.2 822.7 C443.2 818.7 446.5 815.3 448.5 810 C443.7 809 442 809.1 437.4 810.3 Z" fill="currentColor" transform="translate(814.4518890380859,366.9991149902344)"/>
  </g>
</svg>
