<svg xmlns="http://www.w3.org/2000/svg" viewBox="0 0 512 512" fill="currentColor" width="512" height="512" data-name="swan">
  <style>:root{color:#212529;}@media(prefers-color-scheme:dark){:root{color:#f8fafc;}}</style>
  <g transform="scale(0.32000)">
    <path d="M0 0 C2.1 0.3 4.1 0.6 6.2 0.9 C12.4 1.9 18.1 3.8 24 6 C25 6.4 26 6.7 27 7.1 C46.9 14.4 62.9 23.7 77.9 38.5 C78.7 39.3 79.5 40.1 80.3 40.9 C85.6 46.2 89.9 51.8 94 58 C94.9 59.3 95.9 60.6 96.8 62 C103.4 72 110.1 82.3 112.4 94.2 C113.1 97.2 114.2 99.6 115.5 102.4 C118.9 110 119.5 118.1 120.4 126.3 C121 131 121 131 122 134 C122.3 138.4 122.5 142.7 122.7 147.1 C123 151 123 151 124 154 C124.1 155.8 124.1 157.7 124.1 159.5 C124.1 160.5 124.1 161.4 124.1 162.4 C124 165 124 165 123 168 C122.9 169.7 122.8 171.3 122.6 173 C122.2 178 121.2 182.5 119.7 187.3 C119 190 119 190 118.2 194.8 C116.9 200.5 114.9 205.3 112.4 210.5 C111 214 111 214 110.1 217.8 C108.8 222.9 106.4 227.2 103.8 231.7 C102.8 233.5 101.8 235.2 100.8 237 C100.6 237.4 100.6 237.4 99.4 239.6 C97 243.8 94.7 248.1 92.4 252.5 C91 255 91 255 88 259 C87.6 260.2 87.1 261.4 86.7 262.6 C83.8 270 79.4 276.4 75 283 C73.7 285.3 72.3 287.7 71 290 C73 291 73 291 77 289 C78.7 287.4 80.4 285.7 82 284 C90.7 275.6 101.4 267.3 113.2 264.1 C124.7 260.7 136.2 253.9 146.1 247.2 C151.7 243.5 157.6 240.2 163.4 236.9 C167 234.8 170 233 173 230 C175.5 228.8 177.9 227.6 180.4 226.4 C184.2 224.3 187.6 221.7 191 219 C194.9 216.3 198.9 213.7 202.9 211.2 C205.7 209.2 208.1 207.1 210.6 204.8 C216.1 199.8 222 195.4 228 191 C234.6 186.2 240.3 180.9 246 175 C255.8 165 255.8 165 259 165 C259.7 163.7 260.3 162.4 261 161 C263.3 158.3 265.6 155.6 268 153 C268.7 152.2 269.5 151.4 270.2 150.5 C271 149.7 271.7 148.9 272.5 148 C273.3 147.1 274 146.3 274.8 145.4 C276.7 143.4 278.6 141.3 280.4 139.2 C287.6 131 293.7 121.7 299.4 112.4 C301 110 301 110 303.1 107.5 C305.4 104.5 306.6 101.2 307.9 97.7 C309.3 94.3 311 91.1 312.6 87.8 C318.8 75 323 62.1 324.5 48 C326.7 26.9 326.7 26.9 334 22 C344.3 17.8 356.1 18.5 367 18.6 C370.1 18.6 373.2 18.6 376.3 18.6 C378.3 18.6 380.3 18.6 382.3 18.6 C384.1 18.6 385.9 18.6 387.7 18.6 C393.6 19 398.4 20.4 404 22 C404.8 22.1 404.8 22.1 408.8 22.5 C413.1 23 416 24.2 420 26 C421.4 26.5 422.9 26.9 424.4 27.4 C442.7 33.6 456.6 43.4 469 58 C469.8 58.8 470.6 59.6 471.5 60.4 C477.7 66.9 481.7 73.9 484.9 82.2 C486 85 486 85 487.5 87.5 C489.1 90.2 489.8 92.6 490.5 95.6 C491.4 99.6 492.4 103.5 493.6 107.4 C496.9 119.9 497.4 132.4 497.6 145.3 C497.6 146.2 497.6 146.2 497.7 150.5 C497.8 154.7 497.9 158.8 498 163 C502.6 164.5 505.6 162.5 510 160.7 C511.6 160.1 513.2 159.4 514.9 158.8 C519 157 519 157 522 155 C523.9 154.4 525.8 153.9 527.7 153.4 C534.7 151.3 540.9 148.2 547.3 144.9 C550.1 143.4 553 142.1 555.9 140.9 C560 139 563.8 136.8 567.7 134.4 C570 133 570 133 573.1 131.5 C579.1 128.4 584.1 124.9 588.8 120.1 C594.4 116 598.3 115.6 605 117 C624 126.6 637.4 147.8 640.5 168.5 C640.9 171.2 641.2 173.9 641.5 176.7 C642 181 642 181 643 184 C643.8 197.8 644.1 212.3 640.7 225.8 C639.9 229.4 639.8 232.8 639.6 236.5 C639.3 243.3 637.6 248.9 635.2 255.3 C634 258.9 633.3 262.4 632.6 266.2 C631.2 274.3 628.3 281.8 625.4 289.5 C622.8 297.9 624.1 302.1 628.1 309.9 C628.9 311.6 629.7 313.3 630.6 315 C630.8 315.4 630.8 315.4 631.8 317.6 C636.7 327.5 640.8 337.8 644.8 348.1 C646 351 646 351 647 353 C647.1 353.7 647.1 353.7 647.4 357.2 C648 361.8 649.2 364.8 651 369 C654.4 379.6 655.5 389.8 655.8 400.9 C656 405 656 405 657 408 C657.1 410 657.1 412.1 657.1 414.1 C657.1 415.3 657.1 416.5 657.1 417.7 C657.1 419 657.1 420.2 657.1 421.5 C657.1 422.1 657.1 422.1 657.1 425.3 C657.1 426.5 657.1 427.7 657.1 428.9 C657.1 429.5 657.1 429.5 657.1 432.2 C657 435 657 435 656 438 C655.9 440.6 655.8 443.2 655.8 445.8 C655.3 455.2 653.3 464.1 648 472 C647.8 473.3 647.6 474.5 647.4 475.8 C645.5 483 641.9 488.7 638 495 C637.5 495.9 636.9 496.7 636.4 497.6 C630.4 507 620.1 521 610 526 C611.1 531.5 611.7 532.1 615.8 535.5 C625 543.2 625 543.2 625 547 C626.6 547.7 628.3 548.3 630 549 C632.1 551.9 634.1 555 636 558 C637 559 638 560 639 561 C640.3 563.5 641.6 566 642.8 568.6 C644 571 644 571 645.7 573.5 C647.7 577.4 648.1 581.7 649 586 C649.7 587.6 650.3 589.2 651 590.8 C659.4 611.2 656.5 639.3 648 659 C647.9 660.4 647.8 661.7 647.7 663.1 C646.9 668.9 644.8 673.1 642.2 678.2 C641 681 641 681 642 684 C642.5 684 642.5 684 645.2 684 C650.1 684.1 654.9 684.2 659.8 684.3 C661.5 684.3 663.2 684.4 664.9 684.4 C673.8 684.6 681.5 685.3 690 688 C696.6 688.9 702 688.8 707 684 C710.4 679.5 712.3 675.3 713.9 669.9 C715.9 663.7 718.4 658.5 724.8 655.8 C729.3 656.1 734.7 657.7 738 661 C738.2 665 738.3 668.9 738.4 672.8 C738.4 673.9 738.5 675 738.5 676.2 C738.6 684.4 738.6 684.4 735.7 687.4 C734.8 687.9 733.9 688.5 733 689 C731.5 690.9 730.1 692.8 728.8 694.8 C719 707.9 707.5 712.5 691.2 712.4 C688 712 688 712 683.9 710.5 C676.3 708.2 668.9 708.5 661.1 708.5 C658.3 708.5 655.5 708.5 652.6 708.4 C638.4 708.4 627.1 709.5 617.1 720.4 C616 721.5 614.9 722.7 613.8 723.8 C610.8 727.2 607.9 730.6 605 734 C604.1 734.9 603.1 735.9 602.1 736.8 C600 739 600 739 600 741 C617.5 747.8 635.2 746.3 651.9 737.4 C665.1 731.3 681.7 730 695.4 734.3 C698 735 698 735 702.5 735.4 C708.8 736.2 715.4 738.4 720 743 C720.8 752.5 720.8 752.5 718.1 757.6 C711.6 762.7 705 761.1 697.7 758.9 C695.3 758.1 692.9 757.2 690.6 756.3 C678.4 752.8 669.4 756.3 658 761 C655.5 761.9 653.1 762.9 650.6 763.8 C645.3 765.9 645.3 765.9 643 767 C626.9 770.6 608.8 770.6 593.2 765 C575.5 759.5 558.4 764.4 543 773 C540.7 773.9 538.4 774.7 536 775.4 C531 777 531 777 528 779 C524.7 780.1 521.4 781 518 782 C515.1 782.9 512.1 783.7 509.2 784.6 C508.5 784.8 508.5 784.8 504.9 785.8 C501 787 501 787 496 789 C493 789.6 489.9 790 486.8 790.4 C484 791 484 791 480 793 C477.3 793.2 474.6 793.5 471.9 793.7 C469 794 469 794 464.6 795.5 C459.9 797 456 797.4 451.2 797.7 C447.9 798 445 798.7 441.8 799.5 C435.1 801.2 428.5 801.5 421.6 801.8 C418 802 418 802 415 803 C412.2 803.3 409.4 803.5 406.6 803.7 C404 804 404 804 401 805 C399.1 805.1 397.1 805.1 395.1 805.2 C393.9 805.2 392.7 805.2 391.5 805.2 C390.2 805.2 388.9 805.2 387.5 805.2 C386.2 805.2 384.8 805.2 383.5 805.2 C380.6 805.2 377.7 805.2 374.9 805.2 C370.5 805.2 366.2 805.3 361.9 805.3 C359.1 805.3 356.3 805.3 353.5 805.3 C352.2 805.3 351 805.4 349.6 805.4 C341.8 805.3 335.4 804.3 328 802 C325.9 801.6 323.8 801.2 321.7 800.9 C317.6 800.3 313.9 799.3 310 798 C307 797.5 303.9 797 300.9 796.5 C297.5 795.9 294.3 794.9 291 794 C289 793.6 287 793.3 284.9 793 C280.8 792.3 277 791.3 273 790 C269.9 789.5 266.9 789 263.8 788.5 C261 788 261 788 257.9 786.9 C253.4 785.5 248.8 785.4 244 785 C243 784.7 242 784.3 241 784 C238.3 783.9 235.6 783.9 232.9 783.9 C231.3 783.9 229.7 783.9 228.1 783.9 C227.2 783.9 227.2 783.9 223 783.9 C221.3 783.9 219.6 783.9 217.9 783.9 C217.1 783.9 217.1 783.9 213.1 783.9 C211.6 783.9 210.1 783.9 208.6 783.9 C205 784 205 784 202 785 C201.2 785.1 201.2 785.1 196.9 785.4 C191.6 785.8 187 787.2 182 789 C178.7 789.7 175.3 790.4 172 791 C171 791.3 170.1 791.7 169.1 792 C166 793 166 793 161.4 793.8 C154 795 147 797.3 140 799.6 C135 801 130.1 802 125 803 C124 803.3 123 803.7 122 804 C117.8 805.4 113.4 806.1 109 807 C108.1 807.3 107.2 807.7 106.3 808 C99.6 810 92.5 809.5 85.6 809.5 C82.9 809.5 80.1 809.6 77.3 809.6 C62.9 809.7 51.4 806.6 38.1 801.5 C26.4 797.4 15.4 797.4 3.2 797.6 C1.2 797.6 -0.9 797.7 -2.9 797.7 C-17.4 797.8 -17.4 797.8 -21 799 C-23.8 799.3 -26.6 799.5 -29.4 799.7 C-32 800 -32 800 -35 801 C-36.9 801.1 -38.8 801.1 -40.7 801.2 C-41.9 801.2 -43.1 801.2 -44.3 801.2 C-44.9 801.2 -44.9 801.2 -48.2 801.2 C-48.9 801.2 -48.9 801.2 -52.4 801.2 C-55.4 801.2 -58.4 801.2 -61.3 801.3 C-66.1 801.3 -70.8 801.3 -75.5 801.3 C-87.2 801.4 -98.9 801.5 -110.6 801.5 C-120.5 801.6 -130.4 801.6 -140.3 801.7 C-144.9 801.7 -149.6 801.7 -154.2 801.8 C-157.1 801.8 -159.9 801.8 -162.8 801.8 C-163.4 801.8 -163.4 801.8 -166.7 801.8 C-167.9 801.8 -169.1 801.8 -170.3 801.8 C-171.3 801.9 -172.4 801.9 -173.4 801.9 C-176 802 -176 802 -179 803 C-181 803.1 -183 803.2 -184.9 803.2 C-186.2 803.2 -187.4 803.2 -188.6 803.2 C-190 803.2 -191.3 803.2 -192.6 803.2 C-194 803.2 -195.4 803.3 -196.8 803.3 C-199.6 803.3 -202.5 803.3 -205.4 803.3 C-209.8 803.3 -214.2 803.4 -218.6 803.4 C-221.4 803.4 -224.2 803.4 -227 803.4 C-228.3 803.4 -229.6 803.5 -230.9 803.5 C-238.1 803.5 -242.7 803.3 -248 798 C-248.2 796.1 -248.3 794.1 -248.3 792.2 C-248.3 791.1 -248.4 790.1 -248.4 789 C-247.9 785.2 -246.9 784.3 -244 782 C-240.1 781.6 -236.4 781.3 -232.4 781.3 C-221.3 781.1 -221.3 781.1 -218 780 C-214.6 779.9 -211.2 779.8 -207.7 779.7 C-206.7 779.7 -205.7 779.7 -204.6 779.7 C-200.3 779.6 -196 779.5 -191.6 779.4 C-188.5 779.4 -185.3 779.3 -182.2 779.3 C-181.2 779.3 -180.2 779.3 -179.2 779.2 C-172.2 779.1 -172.2 779.1 -170 778 C-170.4 777.7 -170.4 777.7 -172.2 776.4 C-187.7 765 -201 752.4 -209.4 735 C-212 731 -212 731 -215.4 729.6 C-220.4 730.2 -222.3 732.5 -226 736 C-241.3 747.7 -260.8 754.9 -279.9 749.1 C-290.3 745.2 -299.1 739.9 -307 732 C-313.3 727.3 -318 724.3 -326 725 C-331 727 -334.8 729.6 -338.9 733 C-349.1 741.5 -359.7 742.2 -372.6 742.2 C-373.3 742.3 -373.3 742.3 -376.9 742.3 C-386.7 742.3 -395.6 742 -403.8 736 C-408 733 -408 733 -410.6 731.6 C-417 727.4 -421.3 722.1 -424 715 C-424 709.5 -422.3 706.3 -419 702 C-415.4 700.2 -412 700.7 -408 701 C-404.8 703.2 -402.4 705.5 -399.8 708.4 C-390.7 716.9 -381.6 720.8 -369 720 C-361.1 718.1 -355.5 715.1 -348.9 710.5 C-336.3 701.7 -325 699 -309.7 702.1 C-304.1 704.4 -299.7 707.3 -295 711 C-294.6 711.3 -294.6 711.3 -292.8 712.7 C-291.3 713.9 -289.8 715 -288.4 716.2 C-272.3 728.6 -272.3 728.6 -259 727 C-250.7 723.9 -243.9 718.6 -237 713 C-229 707.3 -229 707.3 -224 706 C-225 701.6 -226.1 697.7 -227.9 693.5 C-230.3 687.9 -231.1 682.2 -232.1 676.2 C-233 672 -234.2 668.1 -235.6 664.1 C-238 656.8 -238.7 650.1 -238.9 642.4 C-239 639 -239 639 -240 636 C-240.3 630.9 -240.4 625.8 -240.6 620.6 C-240.9 612.3 -240.9 612.3 -242 609 C-242.1 605.5 -242.1 602 -242.1 598.5 C-242.1 597.5 -242.1 596.6 -242.1 595.6 C-242.1 588.4 -242.1 588.4 -241 585 C-240.8 582.8 -240.7 580.6 -240.6 578.4 C-240.5 577 -240.4 575.7 -240.4 574.3 C-240.3 572.9 -240.2 571.5 -240.1 570 C-238.4 539.5 -238.4 539.5 -234.5 530.5 C-232.9 526.7 -232.2 523.4 -231.6 519.3 C-230.5 513 -228.8 507.5 -226.2 501.6 C-225 499 -225 499 -223.6 494.8 C-217.9 477.9 -209.5 462.3 -199 448 C-197.9 446.4 -196.7 444.8 -195.6 443.1 C-188 432.2 -179.8 421.6 -171 411.6 C-168.4 408.5 -166 405.4 -163.6 402.1 C-160.8 398.3 -157.9 394.7 -154.7 391.2 C-151.5 387.7 -149.3 384.1 -147 380 C-145.3 378.3 -143.7 376.7 -142 375 C-140.5 373.1 -139.1 371.1 -137.6 369.2 C-134 364.2 -130.1 359.6 -126 355 C-123.7 352 -121.4 349 -119.2 345.9 C-112.9 337.4 -106.3 329.1 -99.4 321 C-96.7 317.6 -94.2 314.1 -91.8 310.5 C-86.8 303.4 -81.4 296.7 -76 290 C-70.3 282.9 -65.2 275.8 -60.7 267.9 C-58.4 264 -55.7 260.6 -53 257 C-51.2 254.2 -49.4 251.4 -47.7 248.6 C-46.3 246.5 -44.8 244.4 -43.3 242.4 C-40.6 238.4 -38.9 234.4 -37 230 C-36.4 228.6 -35.7 227.2 -35.1 225.8 C-34.4 224.2 -33.7 222.6 -33 221 C-32.8 220.6 -32.8 220.6 -31.6 218.4 C-28.1 210.9 -27.5 204 -27.5 195.8 C-27.5 194.8 -27.5 193.8 -27.5 192.8 C-27.6 186 -28.8 180.4 -31 174 C-37.5 171.8 -41 174.1 -46.2 177.7 C-50.9 181.6 -54.4 186.1 -58 191 C-58.3 191.5 -58.3 191.5 -60.1 193.8 C-61.4 195.6 -62.7 197.4 -64 199.3 C-65.3 201.1 -66.7 202.9 -68 204.6 C-72.6 210.8 -76.4 217.1 -80.1 223.7 C-82 227.1 -84.2 230.2 -86.3 233.4 C-97.2 250.4 -106 268.9 -115 287 C-115.7 288.4 -116.4 289.8 -117.1 291.2 C-119.2 295.4 -120.5 299.6 -122 304 C-122.8 305.9 -123.7 307.8 -124.5 309.7 C-126.8 315.2 -128.1 320.5 -129.2 326.3 C-130.6 332.7 -132.8 338.8 -135 345 C-135.2 345.8 -135.2 345.8 -136.5 349.8 C-141.2 363.1 -147.7 375.2 -157 386 C-158 387.2 -159.1 388.4 -160.2 389.7 C-164.4 394.5 -168.9 399.1 -173.4 403.6 C-174.2 404.4 -175.1 405.3 -175.9 406.1 C-180.6 410.9 -185.5 415.1 -191 419 C-191.8 419.7 -192.7 420.4 -193.5 421.1 C-196.8 423.6 -200.2 425.7 -203.7 427.9 C-205.1 428.8 -206.5 429.6 -208 430.5 C-214 434.2 -220.1 437.9 -226.2 441.4 C-230.4 444.3 -232.9 447.1 -236 451 C-237.3 452.6 -238.6 454.2 -239.9 455.8 C-241.3 457.5 -242.6 459.3 -244 461 C-248.1 466.2 -252.3 471.4 -256.5 476.5 C-256.9 477 -256.9 477 -258.8 479.3 C-260.2 481.1 -261.7 482.9 -263.2 484.6 C-267.2 489.6 -270.6 494.6 -274 500 C-278.4 505.8 -282.9 511.4 -287.5 517 C-293.7 524.6 -299.8 532.3 -305.6 540.2 C-308.6 544.2 -311.6 548.1 -314.7 552.1 C-315.4 552.9 -316.1 553.8 -316.8 554.7 C-320.2 558.2 -323.4 559.9 -328.3 560.1 C-336.8 557.5 -342.1 551.1 -347.3 544.2 C-352.9 537 -357.3 537.8 -366 537.6 C-373.1 536.6 -376.8 532.6 -381 527 C-383.9 521.3 -382.4 515.8 -379.7 510.4 C-378.5 508.6 -377.2 506.8 -376 505 C-374.2 502.3 -372.5 499.6 -370.7 496.9 C-369.7 495.4 -368.8 493.9 -367.8 492.4 C-365.3 488.4 -362.9 484.3 -360.6 480.2 C-356.7 473 -352.3 466.2 -347.8 459.4 C-343 452 -338.5 444.6 -334 437 C-329.8 430 -325.4 423 -320.8 416.2 C-318.4 412.6 -316.2 408.8 -314 405 C-313.3 404 -312.6 403 -311.8 401.9 C-308.6 396.8 -308.7 392.8 -310.7 387.2 C-311.1 386.1 -311.4 385.1 -311.8 384 C-312.8 381.6 -313.9 379.2 -315 376.9 C-318 369.5 -319.5 361.8 -321 354 C-321.2 353 -321.5 351.9 -321.7 350.8 C-326.7 324.8 -323.3 297.6 -306 277 C-305.3 276.2 -304.6 275.4 -303.9 274.5 C-297.8 267.4 -290.9 261.7 -283.4 256 C-281 254 -279.3 252 -277.5 249.5 C-275.6 246.9 -274 245 -271.5 243.1 C-268.7 240.8 -266.9 238.4 -264.8 235.4 C-261.8 231.4 -258.8 227.4 -255.6 223.6 C-243.3 208.7 -243.3 208.7 -238.4 200.9 C-236.3 197.5 -234.1 194.7 -231.6 191.6 C-228.1 187.4 -225.2 183.2 -222.4 178.4 C-221 176 -219.4 173.7 -217.8 171.4 C-210.7 161.4 -204.5 150.8 -198.1 140.3 C-196.6 137.9 -195.1 135.5 -193.5 133.1 C-189 125.9 -184.7 118.8 -180.8 111.3 C-178.8 107.6 -176.7 104.1 -174.5 100.5 C-169.8 92.8 -165.6 85 -161.4 77 C-158.5 71.3 -155.3 66.8 -151 62 C-149.8 60.4 -148.5 58.9 -147.3 57.3 C-140.3 48.5 -132.7 40.2 -124 33 C-122.8 31.9 -121.6 30.9 -120.3 29.8 C-104.4 16.6 -82.6 7.7 -63 2 C-62.3 1.7 -61.7 1.3 -61 1 C-57.4 0.5 -53.7 0 -50.1 -0.5 C-32.4 -2.8 -17.6 -4.1 0 0 Z M-50 23 C-51.6 23.2 -53.1 23.3 -54.8 23.5 C-59.1 24 -62 25.2 -66 27 C-67.3 27.4 -68.7 27.8 -70.1 28.2 C-76.9 30.7 -82.8 34.3 -89 38 C-90.3 38.7 -91.5 39.4 -92.8 40.2 C-101.2 45 -108.1 50.3 -115 57 C-122 63.3 -122 63.3 -125.6 65.8 C-134 73.3 -140.2 85.5 -144.6 95.8 C-146 99.1 -147.7 101.2 -150 104 C-152.4 108.1 -154.7 112.4 -156.9 116.6 C-160.6 123.7 -164.4 130.4 -169 137 C-173.6 144.2 -173.6 144.2 -175.4 148 C-177.5 152 -180.3 155.4 -183 159 C-184.1 160.8 -185.1 162.5 -186.2 164.3 C-189 169 -189 169 -192 172 C-192.4 173 -192.9 174 -193.3 175.1 C-196.3 182 -200.2 188.2 -205 194 C-209.8 199.8 -214.1 205.6 -218 212 C-222.6 219.2 -227.4 226 -232.9 232.5 C-234.6 234.6 -236.2 236.7 -237.8 238.9 C-241.6 243.8 -245.8 248.2 -250 252.7 C-252.6 255.6 -255 258.5 -257.4 261.6 C-262.7 268.1 -268.8 273.5 -275 279 C-275.9 279.8 -276.8 280.6 -277.7 281.4 C-278 281.7 -278 281.7 -280 283.4 C-294.1 296 -300.4 310.9 -300.3 329.8 C-300.3 330.8 -300.3 331.9 -300.3 333 C-300.2 342.4 -298.5 350.1 -295 359 C-294.8 360.7 -294.6 362.5 -294.4 364.2 C-291.7 380.6 -282.6 390.5 -269 399 C-266.9 400.4 -264.7 401.9 -262.6 403.3 C-260.8 404.5 -258.9 405.8 -257 407 C-252.2 410.2 -247.5 413.4 -243 417 C-237.5 419.8 -234.9 420 -229.3 417.1 C-218.4 410 -207.9 403 -198.3 394.1 C-196.3 392.3 -194.2 390.4 -192.1 388.6 C-184.3 381.7 -177 374.6 -171 366 C-170.3 365.1 -169.7 364.1 -169 363.2 C-163 353.6 -158.8 343.7 -155 333 C-154.6 331.9 -154.3 330.9 -153.9 329.8 C-153 327 -153 327 -152.2 322.6 C-151.1 316.5 -148.8 310.8 -146.5 305 C-145.2 301.5 -144 298.1 -142.9 294.6 C-141.5 290.2 -139.7 286.2 -137.5 282 C-135.5 277.9 -133.8 273.7 -132 269.5 C-126.9 257.4 -121.3 245.8 -113.9 234.9 C-111.8 231.6 -110.1 228.2 -108.3 224.7 C-104.5 216.9 -100.4 209.9 -95 203 C-94.4 202 -93.7 201.1 -93.1 200.1 C-90.8 196.7 -88.3 193.5 -85.8 190.3 C-82.4 186 -79.1 181.7 -76.2 177.1 C-72.3 171.6 -67.6 166.9 -63 162 C-61.9 160.9 -60.9 159.8 -59.8 158.6 C-50.7 152.4 -38.9 147.5 -28 151 C-18.6 154.6 -12.9 158.4 -9 168 C-8.6 168.9 -8.3 169.7 -7.9 170.6 C1.2 195.9 -6.1 222.7 -19 245 C-20.4 247.6 -21.8 250.3 -23.1 252.9 C-26 258.4 -29.2 263.1 -33 268 C-34.1 269.7 -35.2 271.4 -36.2 273.1 C-43.6 284.8 -51.4 296.1 -60 307 C-64.3 312.6 -68.5 318.2 -72.4 324.1 C-75.7 328.8 -79.6 333 -83.5 337.2 C-88.1 342.4 -91.9 348 -95.8 353.7 C-99.3 358.7 -103 363.4 -107 368 C-109.2 370.7 -111.4 373.4 -113.6 376.1 C-115.2 378 -116.8 379.9 -118.3 381.8 C-122.4 386.8 -126.4 391.7 -130.3 396.8 C-132.8 400 -135.4 403.3 -138 406.5 C-139.9 408.8 -141.7 411.2 -143.4 413.5 C-145.9 416.7 -148.6 419.8 -151.4 422.8 C-155.6 427.4 -159.1 432.3 -162.6 437.5 C-165.2 441.3 -168 445 -170.8 448.8 C-180.1 461 -189.2 473.2 -196 487 C-196.3 487.5 -196.3 487.5 -197.6 490.1 C-199 493 -199 493 -200.4 497.8 C-202 503 -202 503 -204.5 507.7 C-207.3 513.1 -208.3 518.5 -209.3 524.4 C-210.2 528.8 -211.5 532.8 -213 537 C-214.7 543.4 -215.4 549.6 -215.8 556.2 C-216 559 -216 559 -217 562 C-217.2 564.2 -217.4 566.3 -217.5 568.5 C-217.7 571.9 -217.9 574.7 -219 578 C-219.1 581.1 -219.1 584.2 -219.1 587.4 C-219.1 587.8 -219.1 587.8 -219.1 590.2 C-219.1 592.1 -219.1 594.1 -219.1 596 C-219.1 599 -219.1 602 -219.1 605 C-219.1 606.8 -219.1 608.7 -219.1 610.6 C-219.1 611.5 -219.1 611.5 -219.1 615.9 C-219 620 -219 620 -218 623 C-217.7 626.3 -217.5 629.6 -217.3 633 C-217 636 -217 636 -216 639 C-215.9 641.1 -215.9 643.1 -215.9 645.2 C-215.3 654.7 -212.5 663.3 -209.7 672.3 C-208.5 676 -207.7 679.5 -207 683.4 C-206.1 687.5 -205.1 690.4 -203.1 694 C-201.1 697.7 -199.8 700.7 -198.6 704.8 C-191.3 728.4 -174.6 749.4 -152 760 C-150.2 761 -148.5 762 -146.7 763 C-138.4 767.5 -130.2 770 -121 772 C-119.3 772.7 -117.7 773.3 -116 774 C-114.2 774.2 -112.3 774.4 -110.5 774.4 C-106.1 774.7 -102.2 775.4 -98 776.5 C-91 778.2 -84.3 778.4 -77.1 778.3 C-75.9 778.3 -74.6 778.3 -73.3 778.3 C-70.7 778.3 -68 778.3 -65.4 778.3 C-61.4 778.2 -57.3 778.2 -53.2 778.2 C-50.7 778.2 -48.1 778.2 -45.5 778.2 C-44.3 778.2 -43.1 778.2 -41.8 778.2 C-33.4 778.1 -33.4 778.1 -30 777 C-27.2 776.7 -24.4 776.5 -21.6 776.3 C-19 776 -19 776 -16 775 C-10 774.8 -4 774.8 2 774.8 C5 774.8 8 774.7 11 774.7 C12.9 774.7 14.8 774.7 16.7 774.7 C18.5 774.7 20.2 774.7 22 774.6 C27.5 775 31.7 776.3 37 778 C38.5 778.3 39.9 778.6 41.4 778.9 C46 780 46 780 50.9 781.9 C58.9 785 67.5 785.8 76 787 C77.2 787.2 78.4 787.4 79.7 787.7 C83.4 788 86.1 787.6 89.8 786.8 C97.3 785.1 104.8 783.9 112.5 782.8 C117.2 782 121.5 780.6 126 779 C128.2 778.5 130.3 778 132.5 777.6 C139.4 776.2 146.1 774.3 152.8 772.2 C157 771 157 771 161.8 770 C167.3 768.9 172.5 767.5 177.8 765.9 C186 763.6 193.5 762.3 202 762 C203 761.7 204 761.3 205 761 C207.5 760.9 209.9 760.9 212.4 760.9 C213.9 760.9 215.3 760.9 216.8 760.9 C217.6 760.9 217.6 760.9 221.5 760.9 C222.3 760.9 222.3 760.9 226.2 760.9 C227.6 760.9 229.1 760.9 230.6 760.9 C231.9 760.9 233.3 760.9 234.7 760.9 C238 761 238 761 241 762 C243.5 762.2 246.1 762.3 248.6 762.4 C255 762.7 260 763.8 266 766 C269.1 766.6 272.2 767.1 275.3 767.5 C278.3 768.1 281.1 769 284 770 C286 770.4 288 770.7 290 771 C294.2 771.7 298 772.7 302 774 C305 774.5 308 775 311 775.4 C314 776 314 776 317 777 C320.1 778 323.1 778.6 326.4 779 C329.8 779.5 333 780 336.3 781 C342.7 782.4 348.8 782.3 355.3 782.3 C356.6 782.3 358 782.3 359.4 782.3 C362.3 782.3 365.2 782.3 368.1 782.3 C372.5 782.3 376.9 782.3 381.3 782.4 C384.2 782.4 387 782.4 389.8 782.4 C390.5 782.4 390.5 782.4 393.7 782.4 C401.7 782.4 409 781.4 416.8 779.7 C420.9 778.8 425 778.6 429.2 778.5 C434.4 778.3 439 778 443.9 776.5 C447.8 775.3 450.7 774.8 454.6 774.5 C459.9 774 464 772.7 469 771 C472.1 770.4 475.2 770 478.3 769.5 C481 769 481 769 485 767 C488.3 766.3 491.7 765.7 495 765 C498 764 501 763 504 762 C506.9 761.2 509.7 760.4 512.6 759.6 C518.4 757.9 523.6 755.9 529 753 C529.7 752.7 529.7 752.7 533.5 751.2 C540.9 748.4 547.9 744.6 555 741 C556 740.5 557 740 558.1 739.4 C570.5 732.9 582.2 724 592 714 C596 710 596 710 598 708.1 C600.4 705.6 602.1 702.9 604 700 C604.8 698.9 605.5 697.8 606.3 696.7 C611.7 688.9 615.9 681.3 619.5 672.6 C621 669 621 669 622.6 665.8 C624.4 662.3 625.1 658.8 626 655 C627 651.8 628 648.7 629.1 645.5 C631.3 636.9 631.2 627.9 631.2 619 C631.2 617.9 631.2 616.8 631.2 615.6 C631.3 587.2 615.5 563.4 593.5 546.5 C589 544 589 544 585.9 544.2 C582.1 546.6 578.6 549.2 575 552 C569.5 556 563.9 559.7 558 563 C554.2 565.5 550.4 567.9 546.8 570.6 C540.2 575.5 533.1 579.2 525.9 583 C523.7 584.1 521.5 585.3 519.4 586.5 C514.9 589.2 510.1 591.5 505.4 593.8 C502.6 595.2 499.8 596.6 497 598.1 C489.1 602.1 481.3 605.5 473 608.4 C468.8 610.1 465 612 461 614 C453.2 618 445.2 621 437 624 C434.8 624.8 432.6 625.7 430.4 626.6 C417.2 631.7 403.6 636 389.8 639.3 C387 640 387 640 382 642 C378.7 642.7 375.3 643.3 372 644 C371.1 644.3 370.1 644.7 369.1 645 C365.1 646.3 361 646.8 356.8 647.5 C354 648 354 648 350.9 649.1 C346.4 650.5 341.8 650.6 337 651 C336 651.3 335 651.7 334 652 C332.1 652.2 330.1 652.3 328.2 652.4 C323.5 652.7 319.2 653.4 314.6 654.5 C307 656.3 299.5 656.5 291.7 656.7 C284.3 656.9 284.3 656.9 281 658 C279 658.1 276.9 658.2 274.9 658.3 C273.7 658.3 272.5 658.4 271.3 658.4 C268.8 658.5 266.2 658.5 263.7 658.6 C262.5 658.6 261.3 658.7 260.1 658.7 C259.5 658.7 259.5 658.7 256.8 658.8 C254 659 254 659 251 660 C248.2 660.1 245.3 660.1 242.5 660.1 C241.7 660.1 241.7 660.1 237.9 660.1 C234 660 234 660 231 659 C228.9 658.9 226.8 658.8 224.7 658.7 C224.1 658.7 224.1 658.7 220.9 658.6 C220.3 658.6 220.3 658.6 217 658.5 C214.4 658.4 211.9 658.4 209.3 658.3 C208.7 658.3 208.7 658.3 205.9 658.2 C203 658 203 658 200 657 C196.4 656.8 192.8 656.7 189.1 656.6 C181.4 656.4 174.4 655.7 166.9 653.7 C162.6 652.7 158.2 652.4 153.7 652.2 C151 652 151 652 148 651 C145.2 650.8 142.4 650.6 139.6 650.5 C136 650 136 650 131.1 648.5 C124.4 646.6 118 646.6 111.1 646.6 C109.8 646.6 108.5 646.6 107.2 646.6 C101.7 646.5 96.2 646.5 90.7 646.5 C86.7 646.5 82.6 646.4 78.6 646.4 C77.4 646.4 76.2 646.4 74.9 646.4 C68 646.4 62.5 645.6 56 643 C54.7 642.7 53.3 642.3 51.9 642 C36.4 638.1 22.1 630.6 12 618 C11.2 617.4 10.4 616.8 9.6 616.2 C3.2 610.7 -0.8 602.8 -4.7 595.3 C-6 593 -6 593 -8 590 C-8.9 586.6 -9.7 583.3 -10.4 579.9 C-11.7 574.5 -12.9 569.1 -14.6 563.7 C-16.4 557.8 -16.3 553.2 -16 547 C-14 545 -10.6 546 -8 546 C-5.3 552.3 -4 558.6 -2.7 565.3 C-1.1 573.4 1.2 581 4.8 588.5 C5.8 590.6 6.7 592.7 7.6 594.9 C21.5 618.4 46.8 630.3 73 634 C87.2 635.1 101.3 634.9 115.1 631.5 C119.8 630.7 123.6 632.4 128 634 C130.7 634.3 133.5 634.5 136.2 634.7 C140 635.1 143.4 636.3 147 637.3 C151.6 638.4 156.2 638.5 160.9 638.7 C164.8 639 168.5 639.7 172.4 640.5 C181.1 642.2 189.5 642.5 198.3 642.6 C201.2 642.7 204.1 642.7 207.1 642.8 C208.3 642.8 209.6 642.8 210.9 642.8 C214 643 214 643 217 644 C219.2 644.1 221.5 644.1 223.8 644.1 C225.1 644.1 226.4 644.1 227.8 644.1 C229.2 644.1 230.6 644.1 232 644.1 C233.4 644.1 234.8 644.1 236.2 644.1 C236.9 644.1 236.9 644.1 240.2 644.1 C241.5 644.1 242.7 644.1 244 644.1 C247 644 247 644 250 643 C252.4 642.9 254.8 642.8 257.2 642.8 C258.7 642.8 260.1 642.7 261.6 642.7 C264.7 642.7 267.7 642.6 270.7 642.6 C279.4 642.4 287.4 641.5 295.8 639.7 C299.5 638.9 303 638.6 306.8 638.5 C311.3 638.3 315.4 637.8 319.8 636.5 C323.7 635.4 326.6 634.8 330.6 634.5 C335.9 634 340 632.8 345 631 C348.3 630.3 351.7 629.6 355 629 C356 628.7 356.9 628.3 357.9 628 C361 627 361 627 365.9 626.2 C377.2 624.2 388.1 620 398.8 616.1 C403.2 614.6 407.6 613.3 412 612 C452.6 599.4 452.6 599.4 459 593 C460.2 592.6 461.4 592.1 462.6 591.7 C467 590 467 590 470.7 587.7 C475.2 584.9 479.9 582.5 484.7 580.1 C504.9 570.1 504.9 570.1 510.7 566.1 C514 564 514 564 518.6 561.8 C524.8 558.7 530.5 554.9 536.2 551 C537.3 550.3 538.3 549.6 539.4 548.9 C544.5 545.5 549.3 542 554 538 C555.8 536.8 557.6 535.7 559.4 534.6 C563.5 532 567.1 529.2 570.7 525.9 C574.8 522.6 579.3 519.9 583.7 517.1 C596.7 508.9 607.7 498 616 485 C616.7 484.1 617.4 483.1 618.1 482.1 C624.4 472 629.8 460.8 632 449 C632.3 447.3 632.7 445.5 633 443.7 C634.3 436 634.3 428.3 634.2 420.4 C634.2 419 634.2 417.5 634.2 416.1 C634.1 405.4 634.1 405.4 633 402 C632.7 399.2 632.4 396.5 632.2 393.7 C631.3 385.4 629.6 377.9 627 370 C626.5 368.5 626 367 625.5 365.4 C625 364 624.5 362.5 624 361 C623.4 359 622.8 356.9 622.2 354.9 C618.9 344.3 615.1 334.3 609 325 C607.7 322 606.3 319 605 316 C603.9 314.2 602.8 312.3 601.8 310.5 C595.6 299.2 600.8 287.9 605.6 276.9 C607.8 272 608.7 267.4 609.4 262.1 C610.1 258.6 611.2 255.6 612.5 252.4 C615.1 245.5 615.9 238.9 616.4 231.5 C617 227 617 227 618.5 222 C620.6 214.6 620.6 207.3 620.6 199.7 C620.6 198.9 620.6 198.9 620.6 195.2 C620.3 180.7 618.7 166 610 154 C609.8 153.6 609.8 153.6 608.5 151.5 C606.3 147.6 604.8 145.3 600.6 143.6 C595.9 144.1 593.7 146.1 590 149 C588 150 586 151 584 152 C581.1 153.5 578.3 155 575.4 156.6 C561.8 163.8 548 170.9 533.4 176.1 C531 177 531 177 528 179 C527.5 179.1 527.5 179.1 524.8 179.9 C521 181 521 181 517.5 182.8 C512.3 185.3 507.1 187.2 501.7 189.1 C491.4 192.7 491.4 192.7 488 195 C477.9 195.7 477.9 195.7 474.9 193.4 C472.3 190.1 472.5 188 472.6 183.9 C472.6 182.6 472.6 181.2 472.6 179.8 C472.6 178.3 472.7 176.9 472.7 175.4 C472.7 174.7 472.7 174.7 472.7 171.1 C472.8 160.5 472.8 160.5 474 157 C474.1 153 474.1 149 474.1 145 C474.1 143.9 474.1 142.8 474.1 141.6 C474.1 133.4 474.1 133.4 473 130 C473 127.6 473 125.2 473 122.8 C471.7 98 457.3 72.8 436.6 59.2 C421.9 50.4 405.8 43.8 388.5 43.1 C386 43 386 43 383 42 C378.8 41.7 374.5 41.8 370.2 41.8 C369.1 41.7 367.9 41.7 366.7 41.7 C352.8 41.6 352.8 41.6 348.1 47.3 C346.9 50.3 346.7 52.4 346.8 55.6 C346.3 63.5 343.6 70.2 340.7 77.5 C339.3 81.1 338.3 84.5 337.6 88.2 C335.8 95.9 331.9 102.3 328 109 C327.2 110.5 326.3 111.9 325.5 113.4 C321.2 120.8 316.8 128 312 135 C311.5 135.8 310.9 136.6 310.4 137.4 C306.7 142.8 302.7 147.9 298.5 153 C296.5 155.4 294.6 157.9 292.7 160.4 C287.2 167.3 280.9 173.4 274.6 179.7 C272.5 181.8 270.4 183.8 268.3 185.9 C267 187.3 265.6 188.6 264.3 190 C263.7 190.6 263.7 190.6 260.6 193.6 C256.9 197.1 253.1 200 249 203 C246.5 205.1 244 207.2 241.6 209.4 C240.9 209.9 240.9 209.9 237.6 212.8 C234.8 215.3 232 217.8 229.2 220.3 C221.8 227 213.4 232.5 205 238 C200.5 241 195.9 244.1 191.4 247.1 C189.9 248.1 188.3 249.2 186.8 250.2 C186.4 250.4 186.4 250.4 184.5 251.8 C180.4 254.5 176.4 256.9 172 259 C169.5 260.4 167 261.8 164.5 263.2 C163.1 264 161.7 264.8 160.2 265.6 C157.7 267.1 155.2 268.5 152.7 270 C144.3 274.9 135.7 279.1 126.9 283.2 C126 283.7 125 284.1 124 284.6 C123.2 285 122.3 285.4 121.5 285.8 C119 287 119 287 116.5 288.5 C114 290 114 290 109.3 292.1 C103.3 295.1 98.8 299.4 94 304 C92.6 305.2 91.2 306.4 89.8 307.6 C68.7 326.6 55.5 353.7 43.1 378.9 C37.5 390.3 37.5 390.3 34.2 395.4 C32.1 398.9 31 402.2 29.9 406.1 C28.8 409.6 27.3 412.8 25.7 416.1 C20.9 426.2 16.9 436.4 14.1 447.1 C12.3 452.8 10.3 455.9 5 459 C0.2 459.1 -3.3 458 -7 455 C-10.2 450 -10.4 445.9 -10.3 440 C-10.3 438.2 -10.3 436.5 -10.3 434.7 C-10.3 432.9 -10.3 431.1 -10.2 429.2 C-10.2 427.4 -10.2 425.6 -10.2 423.7 C-10.2 410.3 -10.2 410.3 -9 408 C-8.8 405 -8.6 402 -8.5 399 C-7.9 395.6 -6.8 393.9 -5 391 C-4.1 388.6 -3.3 386.2 -2.5 383.8 C-2.1 382.4 -1.6 381.1 -1.2 379.7 C-0.3 376.9 0.6 374 1.5 371.2 C2.9 367.2 4.7 363.6 6.6 359.8 C8 357 9.3 354.2 10.7 351.4 C11.1 350.4 11.6 349.5 12.1 348.5 C13 346.5 13.9 344.6 14.8 342.7 C18 336 21.4 329.5 25 323 C25.9 321.5 26.7 319.9 27.6 318.3 C28.4 316.9 29.2 315.4 30.1 313.9 C32.7 309.1 35.4 304.4 37.8 299.4 C40.2 294.7 43 290.4 46 286 C48.8 281.5 51.4 277 54 272.4 C55.6 269.8 57.3 267.1 59 264.6 C62 260 62 260 63.8 256.4 C65.8 252.4 67.9 248.8 70.2 245 C75 237.2 79 229.2 83 221 C84.3 218.3 85.7 215.7 87 213 C90.6 205.8 93.6 198.8 95.4 190.9 C96 188.1 96.8 185.3 97.6 182.5 C100.4 172.2 103.5 159.4 100 149 C99.9 146.6 99.8 144.2 99.7 141.8 C99.3 134.5 97.9 127.8 96 120.8 C95.1 117.4 94.5 114.1 94.1 110.6 C93.3 105.7 91.7 101.9 89.3 97.5 C87.9 94.8 86.8 92.1 85.7 89.2 C81.1 78.2 75.3 68.6 67 60 C66.2 59.2 65.4 58.4 64.6 57.5 C63.8 56.7 62.9 55.9 62 55 C61.4 54.4 60.7 53.7 60 53.1 C42.2 36 18.2 26.1 -5.8 21.6 C-9 21 -9 21 -12 20 C-16.3 19.7 -20.7 19.8 -25 19.8 C-25.6 19.7 -25.6 19.7 -28.6 19.7 C-36.3 19.7 -42.6 20.7 -50 23 Z M-296.1 420.2 C-300.3 426.4 -304.1 432.8 -307.9 439.2 C-308.3 440 -308.3 440 -310.5 443.8 C-312 446.2 -313.4 448.7 -314.8 451.2 C-318 456.8 -321.4 461.9 -325.2 467.1 C-331.6 475.6 -336.8 484.7 -342 494 C-343.3 496.3 -344.7 498.7 -346.1 501 C-346.3 501.5 -346.3 501.5 -347.7 503.8 C-348.7 505.5 -349.8 507.3 -351 509 C-351 510.3 -351 511.6 -351 513 C-347 514 -347 514 -343 512 C-340.9 509.4 -339 506.7 -337 504 C-336.1 502.9 -335.1 501.9 -334.2 500.8 C-327.7 493.1 -321.9 485 -316.6 476.5 C-314.4 473.1 -311.7 470.1 -309 467 C-307.3 464.4 -305.6 461.7 -304 459 C-302.5 456.7 -301 454.4 -299.5 452.1 C-296.4 447.4 -293.7 442.7 -291.3 437.6 C-289.1 433.2 -286.2 429.1 -283.5 425 C-282 422 -282 422 -283 417 C-289.8 411.9 -291.5 414 -296.1 420.2 Z M-263 433 C-264.9 435.7 -264.9 435.7 -267 440 C-268.1 442 -269.2 444 -270.2 446.1 C-270.8 447.2 -271.4 448.3 -272.1 449.4 C-274.8 454.4 -277.6 459.3 -280.5 464.2 C-282 467 -282 467 -282 469 C-278 467 -276.8 465.8 -274.1 462.4 C-273.4 461.5 -272.7 460.6 -272 459.7 C-269.3 456.1 -266.7 452.6 -264 449 C-262.8 447.4 -261.5 445.8 -260.2 444.2 C-257 440 -257 440 -255 436 C-258 433 -258 433 -263 433 Z" fill="currentColor" transform="translate(643,397)"/>
    <path d="M0 0 C5 1 5 1 8 3 C10.1 15.3 -6.6 32.1 -14 41 C-15.6 42.4 -17.3 43.7 -19 45 C-19.8 45.8 -20.5 46.6 -21.3 47.4 C-24.6 50.6 -28.3 53.2 -32 56 C-32.6 56.6 -32.6 56.6 -35.9 59.6 C-47.8 70.3 -61.5 77.6 -76 84 C-77.9 84.9 -79.7 85.9 -81.6 86.8 C-85.7 88.8 -89.7 90.5 -94 92 C-95.5 92.6 -97.1 93.2 -98.7 93.9 C-99.5 94.2 -100.4 94.6 -101.3 94.9 C-103.1 95.6 -104.8 96.4 -106.6 97.1 C-121.2 103.2 -137 106.6 -152.3 110.3 C-155 111 -155 111 -160 113 C-160.8 113.2 -160.8 113.2 -165.1 114 C-170 115 -170 115 -174 117 C-175.9 117.4 -177.7 117.7 -179.6 117.9 C-185.3 118.8 -190.5 120.3 -196 122 C-197.7 122.4 -199.4 122.9 -201.2 123.3 C-207.2 124.9 -212.8 127.2 -218.5 129.6 C-222 131 -222 131 -226.4 132.4 C-233.6 134.9 -240.3 138.5 -247 142 C-248.2 142.6 -249.4 143.3 -250.7 143.9 C-258.3 148 -264.7 152.8 -271.2 158.5 C-274 161 -274 161 -277.9 163.7 C-281 166 -283.1 168.4 -285.3 171.5 C-287.5 174.7 -289.8 177.7 -292.2 180.8 C-294.8 184.2 -297.4 187.6 -300 191 C-305 190 -305 190 -308 188 C-307.3 176.3 -301.6 168.3 -295 159 C-294 157.6 -293 156.1 -291.9 154.6 C-288.3 150.1 -284.2 146.1 -280 142 C-279.2 141.2 -278.4 140.3 -277.5 139.5 C-262 124.2 -244 116.1 -224.1 108.2 C-219.2 106.3 -214.4 104.2 -209.7 102 C-202.9 99.1 -196 97.2 -188.9 95.5 C-182.3 93.9 -176 91.7 -169.6 89.4 C-164.7 87.9 -159.9 87 -155 86 C-154.2 85.7 -154.2 85.7 -150 84 C-148.5 83.9 -147 83.7 -145.5 83.6 C-141.1 83 -139.6 82.3 -136 80 C-133 79.3 -130 78.6 -127 78 C-123.7 77 -120.5 76 -117.2 75 C-114.4 74.1 -111.7 73.3 -108.9 72.5 C-79.7 63.5 -50.8 49.7 -28.1 28.9 C-26.1 27.1 -24.1 25.4 -22.1 23.7 C-14.4 16.7 -7.8 8.8 -1 1 C-0.7 0.7 -0.3 0.3 0 0 Z" fill="currentColor" transform="translate(1082,612)"/>
    <path d="M0 0 C8 6 12.1 13.8 13.1 23.7 C10.8 34.4 6.3 42.2 -3.9 46.7 C-13.3 48.2 -20 47.6 -26.9 40.7 C-33.8 32.1 -34.5 24.4 -32.9 13.7 C-28.6 0.1 -12.6 -5.6 0 0 Z" fill="currentColor" transform="translate(445.8828125,705.28125)"/>
    <path d="M0 0 C3 3 3 3 2.9 5.8 C0.9 12.7 -4.3 17.9 -8.8 23.4 C-10.4 25.3 -12 27.3 -13.6 29.2 C-16.8 32.9 -20.3 35.9 -24 39 C-25.1 39.9 -26.2 40.9 -27.3 41.9 C-36.2 49.6 -44.7 56.6 -55.4 61.7 C-58.2 63.1 -60.9 64.7 -63.6 66.4 C-69.8 70.1 -76.2 72.7 -82.9 75.3 C-87 77 -87 77 -91.2 79.1 C-96.6 81.8 -102.2 83.2 -107.9 84.8 C-112.2 85.9 -116 87 -120 89 C-122.8 89.6 -125.5 90 -128.3 90.4 C-131 91 -131 91 -135 93 C-137.7 93.2 -140.4 93.5 -143.1 93.7 C-146 94 -146 94 -150.4 95.5 C-155.1 97 -159.1 97.4 -164 97.7 C-167 98 -169.6 98.6 -172.4 99.5 C-177.5 101 -182.4 101.4 -187.7 101.7 C-191 102 -194.1 102.7 -197.4 103.5 C-203.4 105 -209.1 105.4 -215.3 105.7 C-219.9 106.1 -224.2 107.2 -228.7 108.3 C-232.2 109 -235.6 109.3 -239.1 109.5 C-244.5 109.8 -249.2 110.7 -254.3 112.2 C-257.1 113 -259.7 113.5 -262.6 113.9 C-274.4 115.8 -286 118.2 -297.1 122.8 C-299.8 123.9 -302.6 124.8 -305.4 125.7 C-311.7 127.9 -316.6 131.8 -321.8 135.9 C-325 138 -325 138 -330 139 C-332.9 137.4 -332.9 137.4 -335 135 C-333.1 125.6 -325.3 120.5 -318 115 C-317.3 114.4 -316.5 113.8 -315.7 113.2 C-308.2 107.5 -299.7 104.4 -291 101 C-289.3 100.3 -287.7 99.6 -285.9 98.9 C-275.1 94.8 -264.5 91.7 -253 90 C-252 89.7 -251 89.3 -250 89 C-246.1 87.7 -242.1 87.2 -238 86.6 C-235 86 -235 86 -232 85 C-228.8 83.9 -226.1 83.7 -222.8 83.6 C-218.5 83.3 -214.6 82.8 -210.5 81.5 C-205.3 79.9 -200.2 79.5 -194.8 79.2 C-192 79 -192 79 -189 78 C-186.8 77.8 -184.6 77.7 -182.4 77.6 C-176.4 77.2 -171.6 76 -166 74 C-164.2 73.8 -162.3 73.6 -160.5 73.5 C-155.3 73.1 -150.9 71.7 -146 70 C-142.9 69.4 -139.8 68.9 -136.7 68.5 C-133.7 67.9 -130.9 67 -128 66 C-126.4 65.7 -124.8 65.4 -123.2 65.1 C-117.1 63.8 -111.5 62.1 -105.8 59.6 C-100.1 57.2 -94.2 55.8 -88.2 54.3 C-84.6 53.2 -82.1 52.1 -79 50 C-76.7 49 -74.3 48 -72 47 C-65 43.6 -65 43.6 -61.7 41.6 C-57.2 38.9 -52.4 36.6 -47.7 34.1 C-44.1 32 -41.1 29.7 -38 27 C-37.1 26.6 -36.1 26.1 -35.2 25.7 C-27.4 21.6 -21.3 14.4 -15.2 8.1 C-14.7 7.7 -14.7 7.7 -12.3 5.2 C-11.4 4.3 -10.4 3.3 -9.4 2.3 C-5.6 -1.4 -5.7 -1.1 0 0 Z" fill="currentColor" transform="translate(1195,740)"/>
  </g>
</svg>
