<svg xmlns="http://www.w3.org/2000/svg" viewBox="0 0 512 512" fill="currentColor" width="512" height="512" data-name="farmer">
  <style>:root{color:#212529;}@media(prefers-color-scheme:dark){:root{color:#f8fafc;}}</style>
  <g transform="scale(0.32000)">
    <path d="M0 0 C2.895 2.895 2.202 5.154 2.25 9.188 C2.603 16.373 4.287 18.599 9 24 C9.477 27.618 9.563 31.163 9.66 34.809 C10.106 38.999 11.642 40.566 15 43 C15.33 43.99 15.66 44.98 16 46 C22.319 47.58 28.782 47.233 35.277 47.328 C40.6 48.085 41.593 49.089 45 53 C46.836 53.495 48.671 53.99 50.562 54.5 C56.076 56.021 57.152 56.399 60 61 C62.632 63.77 65.303 66.25 68.25 68.688 C74.603 74.03 72.27 83.686 72.312 91.375 C72.342 93.097 72.371 94.819 72.4 96.594 C72.409 98.241 72.417 99.889 72.426 101.586 C72.433 102.344 72.433 102.344 72.47 106.181 C72 110 72 110 68 114 C67.34 114 66.68 114 66 114 C65.75 118.875 65.75 118.875 66 124 C67.32 124.66 68.64 125.32 70 126 C70.99 127.32 71.98 128.64 73 130 C77.046 131.349 80.676 131.132 84.938 131.125 C86.535 131.128 88.132 131.13 89.777 131.133 C94 131 94 131 98 130 C98.66 128.68 99.32 127.36 100 126 C102.774 124.613 105.285 124.694 108.375 124.5 C112.127 124.263 115.338 123.916 119 123 C119.66 121.68 120.32 120.36 121 119 C122.753 118.526 124.506 118.051 126.312 117.562 C132 116 132 116 134.375 113.375 C138.213 109.903 141.906 110.349 146.941 110.238 C152.223 109.827 154.276 107.724 158 104 C162.625 103.426 162.625 103.426 168 103.312 C177.741 103.065 177.741 103.065 182 102 C182.66 100.68 183.32 99.36 184 98 C187.483 96.258 191.598 96.819 195.445 96.77 C199 96 199 96 202.63 92.989 C207.775 89.47 210.311 89.301 216.469 89.406 C218.257 89.408 220.045 89.409 221.887 89.41 C225.629 89.47 229.371 89.53 233.113 89.59 C234.901 89.591 236.689 89.592 238.531 89.594 C240.156 89.621 241.781 89.649 243.455 89.678 C249.061 88.842 251.641 86.511 256 83 C261.312 82.203 261.312 82.203 267 82.25 C267.938 82.242 267.938 82.242 272.688 82.203 C278 83 278 83 281.357 86.013 C288.057 90.324 293.794 89.745 301.594 89.594 C303.095 89.593 304.596 89.593 306.143 89.592 C310.929 89.59 315.714 89.55 320.5 89.5 C326.803 89.435 333.103 89.408 339.406 89.406 C340.849 89.378 342.292 89.35 343.779 89.322 C352.301 89.323 356.396 90.178 363 96 C366.14 96.713 366.14 96.713 369.109 96.656 C369.651 96.651 369.651 96.651 372.395 96.625 C373.502 96.584 374.609 96.543 375.75 96.5 C376.873 96.49 377.996 96.479 379.152 96.469 C388.995 96.281 393.198 93.779 399.188 86.25 C403.017 81.497 408.027 82.723 413.812 82.625 C415.778 82.576 417.744 82.527 419.77 82.477 C425.541 83.054 426.441 83.744 430 88 C433.662 89.017 437.328 90.018 441 91 C441.99 92.32 442.98 93.64 444 95 C445.815 95.495 447.63 95.99 449.5 96.5 C455 98 455 98 458 102 C459.794 102.474 461.589 102.949 463.438 103.438 C469.026 105.007 470.119 105.347 473 110 C475.612 112.749 478.258 115.212 481.188 117.625 C484 120 484 120 486 123 C487.774 123.454 489.548 123.908 491.375 124.375 C496.986 125.996 498.106 126.326 501 131 C503.554 133.688 506.15 136.125 509 138.5 C513.906 142.588 517.921 147.105 522 152 C524.558 154.689 527.148 157.123 530 159.5 C533.899 162.749 537.29 166.13 540.5 170.062 C543 173 543 173 545.688 174.812 C549.054 177.997 549.024 181.549 550 186 C550.825 186.825 551.65 187.65 552.5 188.5 C555.932 191.932 555.962 195.331 557 200 C557.825 200.825 558.65 201.65 559.5 202.5 C562.932 205.932 562.962 209.331 564 214 C564.825 214.825 565.65 215.65 566.5 216.5 C569.932 219.932 569.962 223.331 571 228 C571.825 228.804 572.65 229.609 573.5 230.438 C577.088 234.115 577.008 238.042 578 243 C578.835 243.765 579.671 244.53 580.531 245.319 C583.86 248.934 583.574 251.048 583.496 255.898 C583.497 256.664 583.497 256.664 583.502 260.539 C583.459 263.755 583.412 266.971 583.361 270.188 C583.391 284.14 583.391 284.14 590 290 C590.688 292.995 591.356 295.995 592 299 C592.866 299.846 593.733 300.691 594.625 301.562 C598.036 305.064 597.737 307.28 597 312 C594.812 314.625 594.812 314.625 592 317 C591.113 318.072 590.226 319.145 589.312 320.25 C587 323 587 323 585 324 C584.588 325.733 584.175 327.465 583.75 329.25 C582.381 334.62 580.68 336.848 576 340 C574.68 341.32 573.36 342.64 572 344 C569.131 344.53 569.131 344.53 565.844 344.574 C564.657 344.602 563.469 344.63 562.246 344.658 C561.01 344.668 559.774 344.678 558.5 344.688 C556.052 344.73 553.604 344.775 551.156 344.824 C550.072 344.835 548.987 344.847 547.869 344.858 C545 345 545 345 541 346 C540.34 347.32 539.68 348.64 539 350 C535.942 351.008 532.915 351.516 529.75 352.094 C527 353 527 353 525 357 C520.505 361.88 515.362 366.11 510.188 370.25 C508 373 508 373 507.062 377.875 C505.856 383.693 503.87 385.647 500 390 C499.324 392.664 498.656 395.331 498 398 C497.169 398.512 496.337 399.024 495.48 399.551 C491.468 403.512 492.339 407.538 492.375 413 C492.362 414.959 492.349 416.919 492.336 418.938 C493.049 424.371 493.397 425.393 498 428 C499.354 429.65 500.687 431.317 502 433 C504.397 435.52 506.784 437.827 509.5 440 C512.207 442.165 514.582 444.519 517 447 C517.99 447.99 518.98 448.98 520 450 C520.289 451.609 520.577 453.217 520.875 454.875 C522.404 461.84 525.091 463.609 530.688 467.688 C534.923 471.923 534.973 475.203 536 481 C537.646 482.687 539.312 484.355 541 486 C541.667 489 542.333 492 543 495 C543.835 495.69 544.671 496.379 545.531 497.09 C549.274 501.502 548.53 505.39 548.5 511.062 C548.445 521.425 548.445 521.425 551.469 524.559 C552.304 525.034 553.139 525.51 554 526 C555.974 529.949 555.244 535.044 555.328 539.398 C556.143 543.769 557.373 544.623 561 547 C562.974 550.949 562.244 556.044 562.328 560.398 C563.156 564.834 564.47 565.417 568 568 C569.011 571.664 570.01 575.33 571 579 C572.627 580.706 574.29 582.378 576 584 C576.667 586.667 577.333 589.333 578 592 C578.825 592.784 579.65 593.567 580.5 594.375 C584.055 598.108 584.004 602.021 585 607 C585.835 607.772 586.671 608.544 587.531 609.34 C590.781 612.842 590.537 614.862 590.5 619.562 C590.45 625.824 591.008 627.348 596 631 C597.011 634.664 598.01 638.33 599 642 C600.646 643.687 602.312 645.355 604 647 C604.667 650 605.333 653 606 656 C606.412 656.412 606.412 656.412 608.5 658.5 C611.932 661.932 611.962 665.331 613 670 C613.416 670.349 613.416 670.349 615.523 672.113 C619.22 676.422 618.602 680.114 618.625 685.688 C618.649 689.127 618.75 692.569 619 696 C622 698 622 698 625.688 698.688 C631.191 700.362 634.095 702.816 638 707 C638 708.98 638 710.96 638 713 C637.34 713.33 637.34 713.33 634 715 C634 716.32 634 717.64 634 719 C635.132 719.049 636.264 719.098 637.43 719.148 C638.897 719.223 640.364 719.298 641.875 719.375 C643.337 719.445 644.799 719.514 646.305 719.586 C650 720 650 720 652 722 C652.266 724.75 652.266 724.75 652.25 728 C652.255 729.072 652.26 730.145 652.266 731.25 C652 734 652 734 650 736 C646.386 736.223 642.843 736.326 639.227 736.344 C638.151 736.358 637.076 736.373 635.968 736.388 C632.52 736.435 629.073 736.469 625.625 736.5 C621.096 736.541 616.568 736.595 612.039 736.656 C610.994 736.662 609.949 736.667 608.873 736.672 C601.393 736.775 598.391 737.609 593 743 C589.184 743.41 585.665 743.584 581.848 743.566 C580.755 743.573 579.663 743.579 578.538 743.585 C576.229 743.592 573.92 743.589 571.611 743.576 C568.079 743.563 564.549 743.597 561.018 743.635 C558.773 743.636 556.529 743.634 554.285 743.629 C553.23 743.642 552.174 743.655 551.087 743.669 C544.826 743.59 541.903 742.968 538 738 C532.215 736.072 525.854 736.536 520 738 C519.34 739.32 518.68 740.64 518 742 C516.367 743.375 514.698 744.706 513 746 C511.68 747.32 510.36 748.64 509 750 C504.078 750.602 504.078 750.602 498.25 750.625 C496.337 750.659 494.424 750.692 492.453 750.727 C486.241 749.899 483.698 747.999 479 744 C474.787 743.747 473.544 744.4 470.71 747.526 C465.006 751.33 459.48 750.773 452.766 750.77 C452.071 750.775 452.071 750.775 448.559 750.806 C445.623 750.822 442.688 750.825 439.753 750.817 C435.279 750.813 430.809 750.878 426.336 750.947 C423.479 750.955 420.622 750.958 417.766 750.957 C416.436 750.983 415.107 751.008 413.737 751.035 C404.207 750.917 399.691 748.874 393 742 C392.67 740.35 392.34 738.7 392 737 C395 734 395 734 399.875 733.125 C405.433 731.905 406.231 730.865 410 727 C411.506 726.67 413.011 726.34 414.562 726 C419.552 724.876 420.31 724.131 423 720 C426.452 716.367 430.154 713.205 434 710 C436.604 707.52 438.948 705.065 441.188 702.25 C444.782 697.787 449.445 698.665 454.836 698.379 C460.138 697.744 462.222 695.778 466 692 C472.23 690.942 475.245 693.119 480 697 C485 694 485 694 487 692 C488.423 691.732 489.846 691.464 491.312 691.188 C496 690 496 690 498.5 687.5 C501.932 684.068 505.331 684.038 510 683 C513.015 680.533 514.937 678.093 517.125 674.875 C520 672 520 672 525.438 670.562 C531.646 668.819 533.52 667.312 537 662 C538.339 655.303 535.957 653.277 532 648 C531.711 646.701 531.423 645.401 531.125 644.062 C530 640 530 640 527.5 637.562 C524.101 634.078 524.042 630.687 523 626 C522.175 625.196 521.35 624.391 520.5 623.562 C516.912 619.885 516.992 615.958 516 611 C513.75 608.187 513.75 608.187 511 606 C506.088 601.907 501.554 597.904 497.5 592.938 C495 590 495 590 492.312 588.25 C488.794 584.827 488.933 580.723 488 576 C485.544 572.931 483.12 571.081 479.875 568.875 C475.827 564.827 475.428 560.465 474 555 C471.397 551.746 468.688 549.773 465.312 547.312 C461.077 543.077 461.027 539.797 460 534 C457.417 530.753 454.673 528.762 451.312 526.312 C447.077 522.077 447.027 518.797 446 513 C443.417 509.753 440.673 507.762 437.312 505.312 C433.077 501.077 433.027 497.797 432 492 C429.75 489.188 429.75 489.188 427 487 C423.154 483.795 419.494 480.589 416 477 C415.01 476.01 414.02 475.02 413 474 C412.711 472.391 412.423 470.783 412.125 469.125 C410.936 463.709 410.203 462.343 406 459 C402.154 455.795 398.494 452.589 395 449 C394.01 448.01 393.02 447.02 392 446 C391.711 444.391 391.423 442.783 391.125 441.125 C389.913 435.603 388.899 434.704 385 431 C383.688 426.688 383.688 426.688 383 423 C380.5 422.125 380.5 422.125 377 422 C374.302 423.958 371.638 425.962 369 428 C366.338 428.686 363.672 429.354 361 430 C360.515 430.413 360.515 430.413 358.062 432.5 C355 435 355 435 350.438 436 C346 437 346 437 343.5 439.625 C339.812 443.128 336.887 442.496 332 442 C330 440 330 440 330 435 C331.793 432.719 331.793 432.719 334.188 430.5 C335.009 429.725 335.83 428.951 336.676 428.152 C337.059 427.797 337.059 427.797 339 426 C339.474 425.515 339.474 425.515 341.875 423.062 C345.733 419.318 347.831 418.863 353.062 418.875 C362.001 418.337 366.814 413.575 372.562 407.125 C375.994 404.133 379.607 403.976 384 403 C384.825 402.175 385.65 401.35 386.5 400.5 C389.932 397.068 393.331 397.038 398 396 C399.687 394.354 401.355 392.688 403 391 C404.279 390.691 405.557 390.381 406.875 390.062 C411.894 388.77 414.402 386.673 418 383 C418 382.01 418 381.02 418 380 C417.206 379.876 417.206 379.876 413.188 379.25 C408 378 408 378 405 374 C401.715 372.905 399.079 372.861 395.625 372.75 C389.74 372.348 387.974 371.392 384 367 C380.338 365.983 376.672 364.982 373 364 C372.01 362.68 371.02 361.36 370 360 C364.201 358.067 357.733 358.643 351.66 358.477 C347 358 347 358 343 355 C343 354.34 343 353.68 343 353 C339.354 352.088 336.474 351.905 332.75 351.812 C327.665 351.487 326.379 351.315 322.312 347.938 C315.496 343.295 308.022 344.195 300 345 C295.944 347.028 294.102 348.761 291 352 C289.753 353.235 288.507 354.47 287.223 355.742 C285.85 357.106 284.477 358.47 283.062 359.875 C281.692 361.234 280.322 362.592 278.91 363.992 C269.236 373.908 269.236 373.908 268 379.625 C266.788 384.929 265.298 385.859 261 389 C255.121 394.879 255.121 394.879 254.562 400.062 C253.784 405.509 251.305 406.772 247 410 C244.415 412.465 242.09 414.886 239.875 417.688 C238 420 238 420 235 422 C234.773 422.887 234.773 422.887 233.625 427.375 C232 433 232 433 229.44 434.748 C225.616 438.278 226.352 441.583 226.336 446.656 C226.329 448.565 226.323 450.474 226.316 452.441 C226.322 452.938 226.322 452.938 226.348 455.454 C226.375 458.49 226.348 461.522 226.316 464.559 C226.32 465.513 226.32 465.513 226.336 470.344 C226.342 472.099 226.347 473.854 226.353 475.662 C227.088 480.588 227.856 481.499 232 484 C233.368 486.735 233.113 489.071 233.188 492.125 C233.626 498.775 235.768 501.818 240 507 C240.679 509.997 241.347 512.997 242 516 C242.833 516.713 243.667 517.426 244.525 518.16 C248.116 522.281 247.581 525.359 247.531 530.754 C247.534 531.707 247.534 531.707 247.551 536.529 C247.537 538.54 247.52 540.551 247.5 542.562 C247.461 546.503 247.455 550.438 247.469 554.379 C247.453 556.128 247.437 557.876 247.42 559.678 C248.083 564.621 248.85 565.5 253 568 C254.974 571.949 254.244 577.044 254.328 581.398 C255.143 585.769 256.373 586.623 260 589 C261.974 592.949 261.244 598.044 261.328 602.398 C262.143 606.769 263.373 607.623 267 610 C268.974 613.949 268.244 619.044 268.328 623.398 C269.143 627.769 270.373 628.623 274 631 C277.331 637.662 275.317 649.773 275.35 657.229 C275.367 659.946 275.394 662.663 275.432 665.38 C275.487 669.291 275.509 673.202 275.523 677.113 C275.546 678.328 275.569 679.543 275.592 680.794 C275.576 687.329 275.502 691.071 270 695 C269.34 695.825 268.68 696.65 268 697.5 C264.169 702.289 259.695 706.087 255 710 C254.237 710.887 253.474 711.774 252.688 712.688 C249.086 715.787 245.591 715.98 241 717 C240.175 717.825 239.35 718.65 238.5 719.5 C235.068 722.932 231.669 722.962 227 724 C226.646 724.416 226.646 724.416 224.852 726.523 C220.684 730.143 217.302 729.601 211.875 729.625 C202.306 729.694 202.306 729.694 199 733 C198.304 735.659 197.637 738.326 197 741 C193.948 744.052 191.159 743.192 187 743 C186.01 742.67 185.02 742.34 184 742 C186.22 747.233 189.159 750.465 193.312 754.312 C194.422 755.361 195.532 756.409 196.676 757.488 C201.481 761.119 204.229 761.443 210 760 C210.66 758.68 211.32 757.36 212 756 C215.547 754.227 219.128 754.788 223 755 C223.99 755.99 224.98 756.98 226 758 C224 763 224 763 220 767 C218.929 769.975 217.921 772.975 217 776 C214.858 778.142 210.079 777.317 207.312 777.375 C205.721 777.424 204.129 777.473 202.488 777.523 C198 777 198 777 195.035 774.504 C189.787 770.174 183.483 771.545 176.945 771.629 C171.04 770.878 168.502 768.762 164 765 C159.747 764.745 158.507 765.475 155.551 768.539 C150.619 771.957 146.091 771.696 140.312 771.562 C139.79 771.568 139.79 771.568 137.146 771.596 C129.391 771.521 129.391 771.521 126 767 C128.468 760.829 131.824 759.009 137 755 C137.33 753.68 137.66 752.36 138 751 C136.718 750.991 135.437 750.981 134.116 750.972 C129.36 750.928 124.604 750.866 119.848 750.792 C117.79 750.764 115.732 750.743 113.673 750.729 C110.714 750.708 107.756 750.659 104.797 750.609 C103.016 750.588 101.236 750.567 99.401 750.546 C95 750 95 750 91 746 C90.215 739.722 90.36 738.64 95 734 C99.154 733.486 99.154 733.486 104.219 733.461 C106.038 733.438 107.856 733.415 109.73 733.391 C111.634 733.385 113.538 733.38 115.5 733.375 C119.26 733.35 123.021 733.316 126.781 733.273 C127.617 733.27 127.617 733.27 131.846 733.255 C139.265 732.799 142.774 728.799 147.188 723.25 C150.983 718.539 155.666 719.89 161.414 719.895 C163.559 719.881 165.703 719.866 167.848 719.85 C171.232 719.827 174.615 719.812 177.999 719.825 C181.263 719.834 184.525 719.805 187.789 719.77 C189.745 719.765 191.702 719.761 193.717 719.757 C199.797 718.886 202.391 716.928 207 713 C210.484 712.266 210.484 712.266 213.75 712.25 C220.456 712.155 223.088 710.912 228 706 C229.464 705.691 230.929 705.381 232.438 705.062 C237 704 237 704 239.5 701.5 C242 699 242 699 246.312 698.188 C252.507 696.618 254.841 693.773 259 689 C260.053 687.92 261.106 686.84 262.191 685.727 C266.265 678.87 265.878 672.828 265.75 665 C265.762 664.288 265.762 664.288 265.82 660.688 C265.772 652.117 264.999 647.542 259 641 C258.321 638.003 257.653 635.003 257 632 C256.583 631.621 256.583 631.621 254.473 629.703 C251.237 626.166 251.463 624.156 251.5 619.438 C251.55 613.176 250.992 611.652 246 608 C244.989 604.336 243.99 600.67 243 597 C242.154 596.288 241.309 595.577 240.438 594.844 C236.704 590.488 237.47 586.555 237.5 580.938 C237.555 570.575 237.555 570.575 234.531 567.441 C233.696 566.966 232.861 566.49 232 566 C230.232 562.463 230.87 558.432 230.859 554.539 C230.84 552.624 230.821 550.708 230.801 548.734 C230.772 545.677 230.75 542.621 230.75 539.563 C230.746 536.618 230.709 533.672 230.672 530.727 C230.663 528.959 230.653 527.191 230.644 525.37 C229.915 520.42 229.165 519.507 225 517 C223.632 514.265 223.887 511.929 223.812 508.875 C223.374 502.225 221.232 499.182 217 494 C216.321 491.003 215.653 488.003 215 485 C214.169 484.287 213.339 483.573 212.483 482.838 C208.895 478.737 209.353 475.664 209.336 470.281 C209.333 469.331 209.333 469.331 209.316 464.52 C209.327 463.532 209.337 462.544 209.348 461.526 C209.375 458.509 209.348 455.497 209.316 452.48 C209.323 450.579 209.329 448.678 209.336 446.719 C209.339 445.847 209.339 445.847 209.353 441.436 C210.098 436.331 211.241 435.3 215 432 C216.017 428.338 217.018 424.672 218 421 C219.32 420.01 220.64 419.02 222 418 C222.268 416.412 222.536 414.824 222.812 413.188 C224.229 407 225.979 405.66 231 402 C233.543 399.575 235.839 397.207 238 394.438 C240 392 240 392 242.375 390.125 C247.373 386.079 250.619 382.763 252 376.375 C253.203 371.111 254.682 370.048 259 367 C260.689 365.356 262.351 363.684 264 362 C280 346 280 346 282.945 343.309 C285 341 285 341 285.875 336.062 C287.233 329.951 289.043 328.613 294 325 C296.813 322.324 299.324 319.611 301.812 316.625 C305.268 312.695 309.061 309.439 313 306 C314.698 304.026 316.368 302.029 318 300 C322.357 295.494 327.042 291.414 331.77 287.305 C334 285 334 285 334 282 C327.25 281.942 320.5 281.906 313.75 281.875 C311.828 281.858 309.906 281.841 307.926 281.824 C306.089 281.818 304.252 281.811 302.359 281.805 C301.511 281.799 301.511 281.799 297.218 281.773 C291.178 282.098 289.293 283.707 285 288 C282.047 288.398 282.047 288.398 278.75 288.375 C272.079 288.665 269.225 290.803 264 295 C260.673 295.696 257.34 296.368 254 297 C253.34 298.32 252.68 299.64 252 301 C248.669 302.008 245.336 303.007 242 304 C241.072 304.866 240.144 305.733 239.188 306.625 C235.507 309.367 234.101 309.299 229.625 309.438 C224.485 309.617 223.307 309.77 219 313 C214.069 316.698 210.865 316.712 204.855 316.797 C202 317 202 317 199 319 C198.664 322.082 198.664 322.082 198.625 325.812 C198.354 331.567 198.045 334.595 193 338 C190.063 340.937 191.799 351.422 191.77 355.441 C191 361 191 361 187.991 364.558 C184.142 370.274 184.227 374.992 184.371 381.637 C184.369 382.834 184.367 384.032 184.365 385.266 C184.361 389.074 184.395 392.88 184.438 396.688 C184.474 400.506 184.502 404.323 184.499 408.141 C184.497 410.512 184.518 412.883 184.565 415.253 C184.563 421.691 184.326 425.099 179 429 C178.175 429.99 177.35 430.98 176.5 432 C172.412 436.906 167.895 440.921 163 445 C160.459 447.42 158.159 449.796 156 452.562 C154 455 154 455 151.625 456.875 C145.236 462.047 142.682 465.821 142 474 C139 477 139 477 134.125 477.875 C129 479 129 479 126.5 481.5 C122.878 485.122 118.924 485.041 114 486 C113.34 487.32 112.68 488.64 112 490 C108.669 491.008 105.336 492.007 102 493 C101.072 493.866 100.144 494.733 99.188 495.625 C95.497 498.375 94.226 498.245 89.75 498.312 C80.869 498.647 76.127 503.492 70.438 509.875 C66.967 512.9 63.463 513.267 59 514 C58.812 517.375 58.812 517.375 59 521 C62 523 62 523 65.5 523.438 C69 524 69 524 72 527 C72.352 530.865 72.509 534.511 72.5 538.375 C72.528 539.417 72.557 540.458 72.586 541.531 C72.602 547.904 72.168 551.104 67 555 C66.464 555.866 65.928 556.732 65.375 557.625 C61.678 561.322 56.97 561.66 52 563 C50.313 564.646 48.645 566.312 47 568 C45.515 568.309 44.03 568.619 42.5 568.938 C37.115 570.209 36.189 571.636 33 576 C27.421 581.853 23.934 582.664 15.938 582.562 C8.446 582.478 5.492 582.954 0 588 C-1.65 588 -3.3 588 -5 588 C-5.66 586.68 -6.32 585.36 -7 584 C-12 585 -12 585 -16 589 C-21.874 589.914 -27.813 589.694 -33.75 589.688 C-35.382 589.728 -37.014 589.769 -38.695 589.811 C-50.614 589.845 -54.959 588.403 -62.312 579.062 C-64 577 -64 577 -67 577 C-68 581 -68 581 -67.75 586.438 C-68.024 592.537 -68.381 593.431 -73 597 C-73.722 597.908 -74.444 598.815 -75.188 599.75 C-78.798 604.232 -83.522 603.337 -88.934 603.621 C-92 604 -92 604 -95 606 C-95.504 610.324 -95.504 610.324 -95.562 615.688 C-95.605 617.444 -95.648 619.201 -95.691 621.012 C-94.873 626.914 -92.925 628.686 -89 633 C-88.406 636.5 -88.406 636.5 -88.5 640 C-88.333 646.618 -88.333 646.618 -85 650.438 C-80.868 655.344 -81.402 659.325 -81.496 665.574 C-80.867 669.921 -79.46 670.516 -76 673 C-75.324 675.998 -74.658 678.998 -74 682 C-72.373 683.705 -70.711 685.379 -69 687 C-69 692 -69 692 -71 694 C-79.007 694.812 -79.007 694.812 -82.75 691.75 C-83.121 691.296 -83.121 691.296 -85 689 C-85.866 688.464 -86.733 687.928 -87.625 687.375 C-91.335 683.665 -91.696 678.989 -93 674 C-94.32 672.68 -95.64 671.36 -97 670 C-97.474 668.556 -97.949 667.112 -98.438 665.625 C-100.018 660.946 -101.447 658.383 -105 655 C-106.65 654.67 -108.3 654.34 -110 654 C-109.643 659.953 -108.029 662.669 -104 667 C-102.469 670.061 -102.75 672.975 -102.688 676.375 C-102.65 677.703 -102.613 679.03 -102.574 680.398 C-103 684 -103 684 -107 688 C-107.66 688 -108.32 688 -109 688 C-109.005 688.55 -109.005 688.55 -109.028 691.333 C-109.082 696.306 -109.166 701.278 -109.25 706.25 C-109.264 707.981 -109.278 709.712 -109.293 711.496 C-109.325 713.153 -109.357 714.809 -109.391 716.516 C-109.401 717.28 -109.401 717.28 -109.454 721.149 C-110 725 -110 725 -114 729 C-117.129 729.539 -117.129 729.539 -120.562 729.625 C-126.71 729.806 -126.71 729.806 -130 732 C-130.406 735.371 -130.406 735.371 -130.5 739.438 C-130.667 746.667 -130.667 746.667 -134 750 C-139.49 747.804 -142.06 745.327 -146 741 C-146 740.34 -146 739.68 -146 739 C-150.613 737.316 -154.651 736.029 -159.562 735.625 C-164.783 734.89 -167.611 732.832 -172 730 C-174.326 729.619 -176.659 729.275 -179 729 C-182 726 -182 726 -182.875 721.125 C-184 716 -184 716 -186.539 713.871 C-190.291 709.494 -189.53 705.585 -189.5 699.938 C-189.445 689.563 -189.445 689.563 -192.438 686.527 C-193.283 686.023 -194.129 685.519 -195 685 C-196.797 680.957 -197.361 679.022 -195.875 674.812 C-194 672 -194 672 -190 668 C-189 664 -189 664 -190 661 C-194.828 662.207 -195.921 663.789 -199.125 667.5 C-203.827 672.913 -203.827 672.913 -206 674 C-207.918 679.755 -207.24 686.215 -207.328 692.242 C-208.071 697.502 -208.931 698.797 -213 702 C-213.722 702.908 -214.444 703.815 -215.188 704.75 C-217.801 707.995 -218.603 707.968 -222.875 708.312 C-227 708 -227 708 -231 704 C-231.566 698.973 -231.566 698.973 -231.562 693.062 C-231.584 691.115 -231.606 689.167 -231.629 687.16 C-230.961 681.678 -230.335 680.209 -226 677 C-223.389 674.389 -224.718 662.828 -224.672 659.266 C-223.94 653.533 -223.228 652.561 -219 649 C-217.983 645.338 -216.982 641.672 -216 638 C-214.68 637.01 -213.36 636.02 -212 635 C-211.749 633.461 -211.497 631.922 -211.238 630.336 C-209.695 623.687 -207.116 621.262 -202.188 616.625 C-201.483 615.951 -201.483 615.951 -197.918 612.539 C-195.005 609.907 -192.064 607.444 -189 605 C-188.278 604.092 -187.556 603.185 -186.812 602.25 C-185 600 -185 600 -183 600 C-182.75 595.125 -182.75 595.125 -183 590 C-184.32 589.34 -185.64 588.68 -187 588 C-188.32 586.68 -189.64 585.36 -191 584 C-198.794 588.676 -198.794 588.676 -199.75 594.812 C-201.233 600.968 -202.988 602.347 -208 606 C-212.089 609.271 -212.907 610.369 -213.688 615.688 C-215.49 622.982 -219.54 626.13 -225 631 C-225.87 631.88 -226.74 632.761 -227.637 633.668 C-232.078 638.05 -234.815 638.571 -241 638 C-245.642 633.358 -245.871 632.291 -245 626 C-242.812 623.375 -242.812 623.375 -240 621 C-239.175 620.01 -238.35 619.02 -237.5 618 C-233.969 613.762 -230.417 610.313 -226 607 C-225.711 605.433 -225.423 603.865 -225.125 602.25 C-223.868 596.384 -221.895 594.392 -218 590 C-217.856 588.824 -217.711 587.649 -217.562 586.438 C-216.742 581.424 -213.937 580.018 -210 577 C-208.312 575.355 -206.646 573.687 -205 572 C-203.721 570.824 -202.442 569.649 -201.125 568.438 C-200.609 567.87 -200.609 567.87 -198 565 C-199.208 560.166 -200.637 559.382 -204.438 556.312 C-209.619 551.791 -210.972 548.887 -212 542 C-212.825 541.196 -213.65 540.391 -214.5 539.562 C-218.088 535.885 -218.008 531.958 -219 527 C-219.866 526.134 -220.733 525.268 -221.625 524.375 C-225.069 520.931 -224.733 518.692 -224 514 C-221.562 511.062 -221.562 511.062 -219 509 C-216.627 506.627 -217.793 502.023 -218 499 C-219.32 498.34 -220.64 497.68 -222 497 C-223.371 495.364 -224.701 493.693 -226 492 C-232.302 485.226 -236.755 484.575 -246 485 C-249 487 -249 487 -249.469 489.898 C-249.479 491.046 -249.489 492.193 -249.5 493.375 C-249.531 494.517 -249.562 495.659 -249.594 496.836 C-248.829 500.914 -247.232 501.576 -244 504 C-243.67 505.65 -243.34 507.3 -243 509 C-243.964 509.926 -244.928 510.851 -245.922 511.805 C-250.636 518.23 -249.568 524.385 -249.25 532.125 C-249.163 535.002 -249.085 537.88 -249.016 540.758 C-248.967 542.028 -248.918 543.298 -248.868 544.606 C-249 548 -249 548 -251 553 C-252.65 553.33 -254.3 553.66 -256 554 C-259 551 -259 551 -259.938 545.438 C-261 540 -261 540 -265 538 C-266.698 534.604 -266.329 531.729 -266 528 C-263.562 524.812 -263.562 524.812 -261 522 C-260 517 -260 517 -263 512 C-263.99 511.01 -264.98 510.02 -266 509 C-266.321 505.482 -266.321 505.482 -266.266 501.113 C-266.269 499.535 -266.273 497.956 -266.277 496.33 C-266.259 493.004 -266.226 489.679 -266.176 486.354 C-266.264 470.835 -266.264 470.835 -274 465 C-278 466 -278 466 -280.312 468.062 C-283.815 470.587 -285.769 470.615 -290 470 C-294.48 465.52 -294.596 464.053 -295 458 C-300.315 459.329 -301.837 461.615 -305 466 C-305 467.98 -305 469.96 -305 472 C-302 474 -302 474 -298.5 474.375 C-295 475 -295 475 -292 479 C-294 484 -294 484 -298 487 C-298.485 491.048 -298.485 491.048 -298.467 496.257 C-298.47 498.203 -298.474 500.149 -298.477 502.153 C-298.474 502.675 -298.474 502.675 -298.455 505.314 C-298.433 508.575 -298.437 511.836 -298.448 515.097 C-298.469 523.199 -298.452 531.301 -298.426 539.402 C-298.405 546.245 -298.403 553.086 -298.429 559.929 C-298.434 563.142 -298.409 566.355 -298.384 569.569 C-298.39 571.521 -298.397 573.473 -298.404 575.484 C-298.401 576.344 -298.401 576.344 -298.388 580.698 C-299.086 585.602 -300.162 587.01 -304 590 C-306.44 592.44 -305.333 599.057 -305.426 602.363 C-306 606 -306 606 -310 610 C-316.278 610.785 -317.36 610.64 -322 606 C-322.479 603.174 -322.479 603.174 -322.451 599.874 C-322.451 599.255 -322.451 599.255 -322.452 596.121 C-322.434 594.786 -322.417 593.45 -322.398 592.074 C-322.403 589.248 -322.408 586.422 -322.414 583.596 C-322.399 579.139 -322.375 574.682 -322.34 570.225 C-322.313 565.924 -322.323 561.625 -322.336 557.324 C-322.314 555.995 -322.293 554.665 -322.27 553.296 C-322.313 545.339 -323.085 541.767 -329 536 C-329.797 530.75 -329.797 530.75 -329.75 525 C-329.765 523.102 -329.781 521.205 -329.797 519.25 C-328.872 513.155 -326.954 511.531 -323 507 C-322.203 502.188 -322.203 502.188 -322.25 497 C-322.235 495.288 -322.219 493.576 -322.203 491.812 C-323.143 486.136 -325.09 484.088 -329 480 C-329.803 475.182 -329.921 473.1 -326.75 469.312 C-325.842 468.549 -324.935 467.786 -324 467 C-323.34 466.154 -322.68 465.309 -322 464.438 C-319.881 461.855 -317.628 460.051 -315 458 C-312.524 455.645 -310.261 453.342 -308.188 450.625 C-305.154 446.985 -301.599 444.068 -298 441 C-297.67 440.67 -297.34 440.34 -297 440 C-289.828 439.283 -289.828 439.283 -286.188 442.438 C-285.466 443.283 -284.744 444.129 -284 445 C-278.444 446.852 -271.939 447.292 -267 444 C-267 442.02 -267 440.04 -267 438 C-270 436 -270 436 -274 435.125 C-278 434 -278 434 -281 430 C-281.908 429.753 -281.908 429.753 -286.5 428.5 C-292 427 -292 427 -295 423 C-298.268 421.911 -300.877 421.861 -304.312 421.75 C-310.033 421.373 -313.046 420.406 -317 416 C-322 419 -322 419 -325 422 C-323 426 -323 426 -320 430 C-322.076 435.19 -322.672 435.788 -327 438.688 C-332.517 442.851 -332.868 446.21 -334 453 C-337.312 456.312 -337.312 456.312 -341 459 C-345.256 462.386 -345.961 463.844 -347.312 469.312 C-349.383 476.292 -351.487 478.42 -357 483 C-358.32 483.33 -359.64 483.66 -361 484 C-364.791 480.209 -365.024 477.178 -366 472 C-369.806 470.913 -371.354 470.611 -374.816 472.695 C-375.723 473.497 -376.629 474.299 -377.562 475.125 C-378.017 475.518 -378.017 475.518 -380.316 477.508 C-383.827 480.768 -387.202 483.997 -390.188 487.75 C-392.564 490.7 -393.404 490.93 -397.188 491.375 C-401.998 490.902 -404.308 489.014 -408 486 C-416.638 491.183 -416.638 491.183 -417.434 497.375 C-417.436 499.792 -417.436 502.208 -417.434 504.625 C-418.162 508.964 -419.748 510.119 -423 513 C-425.501 516.159 -427.962 519.345 -430.402 522.551 C-433 525 -433 525 -439 525 C-439.66 523.68 -440.32 522.36 -441 521 C-442.32 521 -443.64 521 -445 521 C-446.267 526.069 -445.899 529.865 -445 535 C-442.5 537.312 -442.5 537.312 -440 539 C-439.67 540.65 -439.34 542.3 -439 544 C-442.796 547.796 -445.826 547.965 -451 549 C-453.929 551.929 -452.347 562.05 -452.426 566.051 C-453 571 -453 571 -457 575 C-463.278 575.785 -464.36 575.64 -469 571 C-469.473 567.145 -469.437 563.413 -469.434 559.531 C-470.134 555.167 -471.398 554.361 -475 552 C-476.694 548.611 -476.333 545.715 -476 542 C-473.562 539.062 -473.562 539.062 -471 537 C-468.627 534.627 -469.793 530.023 -470 527 C-471.32 526.34 -472.64 525.68 -474 525 C-476 523 -476 523 -476.812 518.188 C-478 513 -478 513 -480.625 510.562 C-484.401 506.488 -483.245 502.329 -483 497 C-484 493 -484 493 -486.562 491.5 C-489.921 488.055 -490.048 484.847 -489.895 480.152 C-488.437 475.015 -484.708 472.744 -480.637 469.527 C-476.464 465.528 -476.113 461.565 -475 456 C-470.885 453.256 -468.755 453.991 -464 455 C-462.311 456.305 -460.64 457.634 -459 459 C-454.107 457.777 -452.995 455.91 -450 452 C-450.33 451.34 -450.66 450.68 -451 450 C-453.283 449.743 -455.579 449.594 -457.875 449.5 C-464.668 449.221 -464.668 449.221 -468 447 C-468 441 -468 441 -465.535 439.059 C-462.044 436.224 -462.433 434.454 -462.438 430.062 C-462.427 420.364 -457.131 417.061 -450 411 C-452 407 -452 407 -455 403 C-454 399 -454 399 -452 398 C-441.972 397.094 -435.792 397.073 -428 404 C-426.02 404 -424.04 404 -422 404 C-424 400 -424 400 -426 398 C-426 390.54 -424.675 389.839 -419.078 385.633 C-414.664 383.291 -410.721 383.076 -405.785 383.035 C-399.202 382.952 -397.088 378.722 -393 374 C-391.375 372.617 -389.726 371.255 -388 370 C-382.795 373.123 -379.95 376.464 -376 381 C-373 382 -373 382 -369.25 379.312 C-368.178 378.219 -367.105 377.126 -366 376 C-367.194 371.223 -368.139 370.012 -372 367 C-375.664 365.989 -379.33 364.99 -383 364 C-383.896 363.156 -384.792 362.311 -385.715 361.441 C-390.24 358.078 -393.55 358.433 -399.125 358.438 C-408.569 358.431 -408.569 358.431 -413 354 C-413.785 347.722 -413.64 346.64 -409 342 C-399.204 340.262 -393.69 341.897 -386 348 C-382.43 348.713 -378.899 349.066 -375.277 349.43 C-370.966 350.18 -368.418 352.365 -365 355 C-359.153 355.365 -356.041 351.883 -352 348 C-349.787 343.575 -350.444 337.802 -351 333 C-353.562 329.5 -353.562 329.5 -356 327 C-355.67 325.35 -355.34 323.7 -355 322 C-351.346 320.956 -347.678 319.959 -344 319 C-343.238 318.151 -342.476 317.301 -341.691 316.426 C-337.881 312.992 -335.219 313.495 -330.188 313.688 C-329.421 313.71 -329.421 313.71 -325.543 313.824 C-324.374 313.882 -323.205 313.94 -322 314 C-324.645 309.68 -327.262 306.783 -331.25 303.688 C-335.169 300.266 -335.903 299.534 -336.875 294.188 C-336 290 -336 290 -332 286 C-325.747 284.958 -323.59 287.022 -319 291 C-313.512 289.628 -311.779 286.446 -308.316 282.152 C-306 280 -306 280 -301 280 C-300.134 280.825 -299.268 281.65 -298.375 282.5 C-293.542 286.08 -289.863 285.477 -284 285 C-280 283 -280 283 -276 279 C-271.485 278.355 -269.09 278.101 -265.5 281.062 C-264.675 282.032 -263.85 283.001 -263 284 C-260.345 286.347 -257.681 288.683 -255 291 C-250 288 -250 288 -248 286 C-245.335 285.919 -242.665 285.914 -240 286 C-241 281 -241 281 -245 277 C-245.309 275.536 -245.619 274.071 -245.938 272.562 C-247.107 267.542 -248.1 266.191 -252 263 C-265.719 251.567 -265.719 251.567 -266.438 245 C-266 241 -266 241 -262 237 C-257.291 236.327 -255.023 236.143 -251.312 239.25 C-250.549 240.158 -249.786 241.065 -249 242 C-248.175 242.66 -247.35 243.32 -246.5 244 C-241.711 247.831 -237.913 252.305 -234 257 C-231.223 259.923 -228.583 262.304 -225.312 264.688 C-221.081 268.919 -220.966 272.201 -220 278 C-218.68 279.32 -217.36 280.64 -216 282 C-215.773 282.712 -215.773 282.712 -214.625 286.312 C-212.856 291.416 -210.837 294.241 -207 298 C-205.68 298.33 -204.36 298.66 -203 299 C-203.33 292.611 -204.601 289.619 -209 285 C-211.292 280.416 -210.187 273.817 -210.23 268.77 C-211.145 263.102 -213.114 261.092 -217 257 C-217.688 254.005 -218.356 251.005 -219 248 C-219.413 247.598 -219.413 247.598 -221.5 245.562 C-225.088 241.885 -225.008 237.958 -226 233 C-228.25 230.188 -228.25 230.188 -231 228 C-237.315 222.738 -242.648 217.244 -248 211 C-250.66 208.207 -253.314 205.745 -256.312 203.312 C-259 201 -259 201 -259 199 C-263.496 197.876 -267.429 197.831 -272.062 197.812 C-273.662 197.798 -275.262 197.784 -276.91 197.77 C-281 198 -281 198 -284 200 C-284.336 203.082 -284.336 203.082 -284.375 206.812 C-284.668 212.954 -285.338 214.907 -290 219 C-290.289 220.629 -290.577 222.259 -290.875 223.938 C-292.242 230.087 -294.064 231.298 -299 235 C-305.334 240.631 -305.434 244.796 -305.672 252.816 C-306.111 257.074 -307.581 258.535 -311 261 C-311.722 261.908 -312.444 262.815 -313.188 263.75 C-316.55 267.924 -319.847 267.317 -325 267 C-328 264 -328 264 -329.188 259.438 C-331 255 -331 255 -335.188 253.438 C-336.446 253.293 -337.704 253.149 -339 253 C-338 258 -338 258 -335 262 C-336 266 -336 266 -338 268.312 C-340 271 -340 271 -340.5 274.625 C-341 278 -341 278 -345 281 C-349.25 281.688 -349.25 281.688 -353 282 C-352 286 -352 286 -348 290 C-346.907 295.467 -346.709 296.674 -350 301 C-355.125 302.812 -355.125 302.812 -360 304 C-362.185 306.185 -361.433 311.697 -361.562 314.5 C-361.604 315.371 -361.604 315.371 -361.816 319.781 C-362 325 -362 325 -361.719 329.84 C-362.145 336.147 -365.128 337.724 -369.965 341.301 C-374.213 343.679 -377.25 343.891 -382 343 C-385 340 -385 340 -385.625 335.938 C-387 332 -387 332 -391.438 330.688 C-392.943 330.461 -394.449 330.234 -396 330 C-400.1 325.9 -399.61 323.64 -399 318 C-396.438 315.188 -396.438 315.188 -394 313 C-395 309 -395 309 -399 305 C-400.197 297.701 -397.7 295.288 -393 290 C-393 288.02 -393 286.04 -393 284 C-396 282 -396 282 -399.5 281.562 C-403 281 -403 281 -406 278 C-406.38 274.173 -406.555 270.578 -406.562 266.75 C-406.599 265.725 -406.636 264.7 -406.674 263.645 C-406.717 256.184 -404.975 253.312 -400 248 C-399.406 244.535 -399.406 244.535 -399.5 241.062 C-399.325 234.126 -397.208 231.523 -393 226 C-392.5 222.609 -392.374 219.379 -392.398 215.953 C-392 213 -392 213 -388 209 C-384.328 208.391 -384.328 208.391 -380.25 208.25 C-378.894 208.193 -377.538 208.137 -376.141 208.078 C-375.622 208.065 -375.622 208.065 -373 208 C-374 204 -374 204 -378 200 C-378.785 193.722 -378.64 192.64 -374 188 C-364.414 186.299 -358.416 187.663 -351 194 C-345.907 193.907 -345.907 193.907 -344 192 C-344 190.02 -344 188.04 -344 186 C-347 184 -347 184 -351.062 183.062 C-355 182 -355 182 -357 179 C-357.796 171.951 -357.796 171.951 -354.75 168.312 C-353.842 167.549 -352.935 166.786 -352 166 C-351.464 165.134 -350.928 164.268 -350.375 163.375 C-346.678 159.678 -341.97 159.34 -337 158 C-336.113 157.113 -335.226 156.226 -334.312 155.312 C-330.913 151.913 -328.624 152.277 -324 153 C-321.188 155.437 -321.188 155.437 -319 158 C-312.898 160.034 -306.871 160.386 -301.625 156.5 C-300.759 155.675 -299.893 154.85 -299 154 C-291.942 154 -289.096 157.48 -285 163 C-284.691 164.609 -284.381 166.217 -284.062 167.875 C-283.712 169.236 -283.361 170.597 -283 172 C-278.062 173.812 -278.062 173.812 -273 175 C-272.01 176.32 -271.02 177.64 -270 179 C-268.371 179.33 -266.741 179.66 -265.062 180 C-258.059 181.614 -254.508 186.1 -249.922 191.383 C-246.522 194.428 -244.49 194.81 -240 195 C-241 190 -241 190 -245 186 C-245.309 184.536 -245.619 183.071 -245.938 181.562 C-247.446 175.086 -250.445 173.134 -255.688 169.312 C-259.923 165.077 -259.973 161.797 -261 156 C-263.583 152.753 -266.327 150.762 -269.688 148.312 C-273.923 144.077 -273.973 140.797 -275 135 C-277.583 131.753 -280.327 129.762 -283.688 127.312 C-287.923 123.077 -287.973 119.797 -289 114 C-291.25 111.188 -291.25 111.188 -294 109 C-297.846 105.795 -301.506 102.589 -305 99 C-305.99 98.01 -306.98 97.02 -308 96 C-308.144 95.196 -308.144 95.196 -308.875 91.125 C-310.064 85.709 -310.797 84.343 -315 81 C-321.191 75.88 -322.627 74.277 -322 66 C-317.358 61.358 -316.291 61.129 -310 62 C-307.375 64.188 -307.375 64.188 -305 67 C-304.474 67.361 -304.474 67.361 -301.812 69.188 C-297.948 73.052 -297.991 76.715 -297 82 C-294.75 84.812 -294.75 84.812 -292 87 C-287.088 91.093 -282.554 95.096 -278.5 100.062 C-276 103 -276 103 -273.312 104.75 C-269.794 108.173 -269.933 112.277 -269 117 C-266.75 119.812 -266.75 119.812 -264 122 C-260.154 125.205 -256.494 128.411 -253 132 C-252.01 132.99 -251.02 133.98 -250 135 C-249.856 135.804 -249.856 135.804 -249.125 139.875 C-247.594 146.851 -244.87 148.605 -239.312 152.75 C-235.25 156.736 -235.081 159.518 -234 165 C-233.587 165.402 -233.587 165.402 -231.5 167.438 C-227.912 171.115 -227.992 175.042 -227 180 C-224.417 183.247 -221.673 185.238 -218.312 187.688 C-214.077 191.923 -214.027 195.203 -213 201 C-212.169 201.758 -211.337 202.516 -210.48 203.297 C-207.127 206.952 -207.433 209.305 -207.438 214.188 C-207.434 218.48 -207.434 218.48 -207 222 C-205.68 222.66 -204.36 223.32 -203 224 C-199.5 227.5 -200.511 232.888 -200.375 237.625 C-200.336 238.713 -200.298 239.801 -200.258 240.922 C-200.163 243.614 -200.081 246.307 -200 249 C-194.818 247.704 -192.38 244.76 -190 240 C-189.922 237.771 -189.862 235.542 -189.812 233.312 C-189.407 226.574 -187.771 223.87 -183 219 C-182.856 217.824 -182.711 216.649 -182.562 215.438 C-181.743 210.432 -178.93 208.997 -175 206 C-173.68 204.68 -172.36 203.36 -171 202 C-165.973 201.434 -165.973 201.434 -160.062 201.438 C-158.115 201.416 -156.167 201.394 -154.16 201.371 C-148.609 202.048 -147.29 202.678 -144 207 C-143.092 207.722 -142.185 208.444 -141.25 209.188 C-137.352 212.327 -137.92 214.868 -137.812 219.688 C-137.41 226.54 -137.41 226.54 -133.938 230.438 C-129.447 235.883 -129.65 242.195 -131 249 C-133.48 251.898 -133.48 251.898 -136 254 C-137.996 255.996 -137.309 259.678 -137.375 262.312 C-137.424 263.649 -137.473 264.986 -137.523 266.363 C-136.88 270.832 -135.689 271.611 -132 274 C-130.155 277.69 -130.818 282.252 -130.77 286.324 C-130 290 -130 290 -126.984 293.258 C-122.933 298.337 -123.364 301.776 -123.438 308.188 C-123.54 318.441 -123.54 318.441 -120.535 321.551 C-119.699 322.029 -118.862 322.507 -118 323 C-115.2 328.601 -116.729 337.137 -116.705 343.303 C-116.688 346.356 -116.644 349.408 -116.6 352.461 C-116.591 354.379 -116.583 356.297 -116.574 358.273 C-116.567 359.157 -116.567 359.157 -116.53 363.63 C-117 368 -117 368 -121 372 C-127.278 372.785 -128.36 372.64 -133 368 C-133.467 364.947 -133.467 364.947 -133.434 361.406 C-133.443 360.129 -133.453 358.851 -133.463 357.535 C-133.446 354.845 -133.425 352.155 -133.4 349.465 C-133.411 348.187 -133.422 346.91 -133.434 345.594 C-133.424 344.425 -133.414 343.257 -133.404 342.053 C-134.177 338.095 -135.739 337.21 -139 335 C-141.572 329.856 -140.19 321.893 -140.23 316.23 C-141.119 310.189 -142.189 309.371 -147 306 C-147.707 302.675 -148.374 299.341 -149 296 C-149.83 295.339 -150.66 294.678 -151.514 293.997 C-155.444 289.258 -154.726 283.931 -154.707 278.043 C-154.722 276.785 -154.737 275.527 -154.753 274.231 C-154.796 270.216 -154.805 266.202 -154.812 262.188 C-154.836 259.464 -154.861 256.741 -154.889 254.018 C-154.952 247.345 -154.984 240.673 -155 234 C-159.739 235.185 -161.027 236.167 -164 240 C-164.698 243.327 -165.366 246.66 -166 250 C-170 254 -170 254 -172 254 C-172.001 254.79 -172.001 254.79 -172.008 258.785 C-172.045 260.878 -172.084 262.97 -172.125 265.062 C-172.122 266.101 -172.12 267.139 -172.117 268.209 C-172.251 273.482 -172.367 276.31 -176 280.269 C-179.764 284.95 -179.772 287.463 -179.797 293.406 C-179.805 295.202 -179.812 296.998 -179.82 298.848 C-179.797 300.713 -179.774 302.578 -179.75 304.5 C-179.773 306.365 -179.796 308.231 -179.82 310.152 C-179.813 311.948 -179.805 313.744 -179.797 315.594 C-179.793 316.412 -179.793 316.412 -179.776 320.553 C-178.832 325.963 -176.673 328.033 -173 332 C-172.364 337.391 -172.501 342.546 -172.594 347.969 C-172 353 -172 353 -169.007 355.931 C-164.627 361.858 -165.199 366.955 -165.301 374.141 C-165.294 375.5 -165.288 376.859 -165.281 378.259 C-165.263 382.59 -165.285 386.919 -165.312 391.25 C-165.324 395.595 -165.327 399.939 -165.312 404.284 C-165.305 406.985 -165.313 409.686 -165.338 412.387 C-165.335 421.665 -165.335 421.665 -162 425 C-154.088 425.565 -148.138 417.138 -143 412 C-139.469 411.469 -139.469 411.469 -135.5 411.5 C-134.845 411.495 -134.845 411.495 -131.531 411.469 C-128 412 -128 412 -124 416 C-123.549 419.679 -123.549 419.679 -123.602 424.09 C-123.596 425.679 -123.591 427.267 -123.586 428.904 C-123.612 432.256 -123.646 435.608 -123.688 438.959 C-123.68 440.549 -123.672 442.139 -123.664 443.777 C-123.679 445.234 -123.694 446.69 -123.709 448.191 C-122.801 453.067 -120.907 454.142 -117 457 C-116.336 460.34 -116.336 460.34 -116.375 463.938 C-116.153 471.524 -114.326 474.674 -109 480 C-104 478 -104 478 -101 475 C-100.371 474.856 -100.371 474.856 -97.188 474.125 C-93 473 -93 473 -90.062 470.5 C-87 468 -87 468 -82.438 467 C-76.328 465.623 -74.306 462.92 -70.875 457.875 C-66.827 453.827 -62.465 453.428 -57 452 C-56.154 451.154 -55.309 450.309 -54.438 449.438 C-50.861 445.861 -46.86 445.947 -42 445 C-41.34 443.68 -40.68 442.36 -40 441 C-38.474 440.567 -36.947 440.134 -35.375 439.688 C-28.351 437.482 -24.329 433.687 -19.562 428.188 C-16.042 425.182 -12.472 424.994 -8 424 C-7.175 423.175 -6.35 422.35 -5.5 421.5 C-2.068 418.068 1.331 418.038 6 417 C6.825 416.175 7.65 415.35 8.5 414.5 C11 412 11 412 15.562 411 C20.474 409.893 21.353 409.073 24 405 C24.99 404.34 25.98 403.68 27 403 C27.385 399.22 27.376 395.497 27.398 391.699 C28.127 387.219 29.559 385.839 33 383 C35.415 380.585 34.264 374.009 34.328 370.734 C35.142 366.208 36.7 365.062 40 362 C40.247 361.082 40.247 361.082 41.5 356.438 C43 351 43 351 45.562 349.125 C49.72 345.5 48.51 340.829 48.469 335.629 C49.129 331.122 50.584 329.89 54 327 C54.887 325.928 55.774 324.855 56.688 323.75 C59 321 59 321 61 320 C61.268 318.618 61.536 317.236 61.812 315.812 C63.042 310.831 64.474 308.619 68 305 C65 300 65 300 63 298 C62.435 293.073 62.265 290.882 65.5 287 C66.325 286.34 67.15 285.68 68 285 C66 281 66 281 63 277 C65 272 65 272 69 269 C69.434 265.82 69.434 265.82 69.438 262.125 C69.688 255.993 70.343 254.089 75 250 C75.698 246.673 76.366 243.34 77 240 C81 236 81 236 83 236 C83 233.03 83 230.06 83 227 C78.014 225.338 72.773 225.815 67.562 225.812 C66.417 225.8 65.272 225.788 64.092 225.775 C55.597 225.76 51.74 226.829 46 233 C45.443 233.866 44.886 234.732 44.312 235.625 C40.855 239.176 36.692 239.651 32 241 C30.68 242.32 29.36 243.64 28 245 C23 245 23 245 20.316 242.531 C15.779 239.068 12.578 239.467 6.938 239.5 C-3.46 239.561 -3.46 239.561 -8 234 C-11.236 232.921 -13.621 232.875 -17.023 232.859 C-18.209 232.84 -19.395 232.821 -20.617 232.801 C-23.114 232.767 -25.612 232.749 -28.109 232.746 C-39.062 232.52 -39.062 232.52 -43 227 C-44.052 226.278 -45.104 225.556 -46.188 224.812 C-50.052 220.948 -50.009 217.285 -51 212 C-53.25 209.188 -53.25 209.188 -56 207 C-59.517 204.171 -62.454 201.48 -65.438 198.062 C-68.737 194.3 -72.184 191.217 -76 188 C-76.66 187.01 -77.32 186.02 -78 185 C-81.264 183.912 -83.758 183.931 -87.188 183.875 C-95.91 183.282 -99.9 178.8 -105 172 C-105.144 171.361 -105.144 171.361 -105.875 168.125 C-107 164 -107 164 -109.5 161.062 C-112 158 -112 158 -113 153.438 C-114 149 -114 149 -116.562 146.812 C-119.61 143.296 -119.312 141.698 -119.438 137.125 C-119.649 130.357 -121.332 127.966 -126 123 C-126.838 117.972 -126.846 116.019 -123.562 112.062 C-122.717 111.382 -121.871 110.701 -121 110 C-118.389 107.389 -119.718 95.828 -119.672 92.266 C-118.956 86.653 -118.368 85.322 -114 82 C-113.587 81.505 -113.587 81.505 -111.5 79 C-103.635 69.561 -103.635 69.561 -97.188 68.188 C-93 67 -93 67 -90 64.438 C-86.309 61.439 -83.675 61.242 -79 61 C-80.223 56.107 -82.09 54.995 -86 52 C-91 55 -91 55 -93 57 C-96.336 57.336 -96.336 57.336 -100.375 57.375 C-101.703 57.403 -103.03 57.432 -104.398 57.461 C-108 57 -108 57 -112 53 C-112.673 48.291 -112.857 46.023 -109.75 42.312 C-108.842 41.549 -107.935 40.786 -107 40 C-106.464 39.134 -105.928 38.267 -105.375 37.375 C-101.678 33.678 -96.97 33.34 -92 32 C-91.216 31.134 -90.433 30.267 -89.625 29.375 C-85.787 25.903 -82.094 26.349 -77.059 26.238 C-71.777 25.827 -69.724 23.724 -66 20 C-64.536 19.691 -63.071 19.381 -61.562 19.062 C-57 18 -57 18 -54.5 15.5 C-51.068 12.068 -47.669 12.038 -43 11 C-42.291 10.17 -41.582 9.34 -40.852 8.484 C-36.692 4.86 -33.302 5.329 -27.875 5.25 C-16.592 5.021 -11.025 -0.769 0 0 Z M-19 24 C-20 29 -20 29 -19 32 C-16 33 -16 33 -14 32 C-13 27 -13 27 -14 24 C-17 23 -17 23 -19 24 Z M-39.125 38.375 C-43 41 -43 41 -47.875 42.062 C-49.236 42.372 -50.598 42.681 -52 43 C-52.33 44.32 -52.66 45.64 -53 47 C-48.842 49.772 -46.012 49.088 -41.062 48.812 C-39.465 48.736 -37.868 48.66 -36.223 48.582 C-32 48 -32 48 -28 45 C-28 43.02 -28 41.04 -28 39 C-34.676 34.994 -34.676 34.994 -39.125 38.375 Z M-74 44 C-74 44.99 -74 45.98 -74 47 C-73.01 47 -72.02 47 -71 47 C-71 46.01 -71 45.02 -71 44 C-71.99 44 -72.98 44 -74 44 Z M-37 63 C-41.98 63.699 -41.98 63.699 -47.188 63.688 C-55.127 63.705 -59.171 64.171 -65 70 C-66.444 70.289 -67.888 70.577 -69.375 70.875 C-74.461 72.112 -75.482 73.392 -79 77 C-80.258 77.289 -81.516 77.577 -82.812 77.875 C-88.289 79.346 -91.133 81.922 -95 86 C-94 90 -94 90 -90 94 C-89.333 101.333 -89.333 101.333 -92 104 C-93.733 104.557 -95.465 105.114 -97.25 105.688 C-102.776 107.597 -105.571 110.18 -109 115 C-108.34 115.99 -107.68 116.98 -107 118 C-102.867 117.921 -100.495 117.337 -97.062 115 C-92.553 112.055 -88.139 111.287 -83 113 C-82.688 117.812 -82.688 117.812 -83 123 C-88 126 -88 126 -91.688 127.375 C-95 129 -95 129 -97 134 C-96.34 134.99 -95.68 135.98 -95 137 C-90 136 -90 136 -85 133 C-81.622 132.663 -81.622 132.663 -77.793 132.699 C-76.401 132.691 -75.01 132.682 -73.576 132.674 C-70.662 132.683 -67.748 132.704 -64.834 132.736 C-56.098 132.66 -51.771 131.969 -45 126 C-41.656 125.371 -41.656 125.371 -38.5 125.438 C-32.316 125.252 -29.127 123.563 -24 120 C-19.5 118.688 -19.5 118.688 -16 118 C-16 116.68 -16 115.36 -16 114 C-18.899 112.55 -21.523 112.779 -24.758 112.684 C-25.431 112.663 -25.431 112.663 -28.84 112.557 C-30.254 112.517 -31.668 112.478 -33.125 112.438 C-34.547 112.394 -35.969 112.351 -37.434 112.307 C-40.956 112.2 -44.478 112.098 -48 112 C-48 109.69 -48 107.38 -48 105 C-47.133 105.001 -46.266 105.002 -45.373 105.003 C-41.415 104.991 -37.458 104.934 -33.5 104.875 C-32.818 104.876 -32.818 104.876 -29.367 104.883 C-20.664 104.714 -16.91 103.535 -10 98 C-4.582 97.238 -4.582 97.238 1.188 97.312 C3.099 97.309 5.011 97.305 6.98 97.301 C12.473 98.066 13.514 98.976 17 103 C18.32 102.67 19.64 102.34 21 102 C21.33 98.7 21.66 95.4 22 92 C26.29 91.67 30.58 91.34 35 91 C34.67 89.35 34.34 87.7 34 86 C31.033 84.905 28.026 83.919 25 83 C24.34 82.567 24.34 82.567 21 80.375 C16.496 77.701 13.183 77.243 8 77 C8.352 71.018 9.804 69.088 14 65 C14 60 14 60 10 57 C3.608 56.287 -2.823 56.444 -9.25 56.438 C-11.025 56.401 -12.8 56.364 -14.629 56.326 C-24.287 56.294 -29.544 56.409 -37 63 Z M25 65 C25 65.99 25 66.98 25 68 C25.66 68 26.32 68 27 68 C27 67.01 27 66.02 27 65 C26.34 65 25.68 65 25 65 Z M36 91 C37.289 97.443 39.903 99.062 45 103 C45.99 103 46.98 103 48 103 C48 97.902 46.899 97.878 43 95 C42.34 94.01 41.68 93.02 41 92 C39.35 91.67 37.7 91.34 36 91 Z M229 105 C225.74 105.678 225.74 105.678 222.594 105.594 C221.437 105.592 220.281 105.591 219.09 105.59 C216.697 105.53 214.303 105.47 211.91 105.41 C203.926 105.401 200.186 106.511 194 112 C191.347 112.72 188.682 113.399 186 114 C184 117 184 117 183.5 120.562 C183 124 183 124 181 126 C179.412 126.268 177.824 126.536 176.188 126.812 C170.607 128.09 169.787 129.116 166 133 C164.5 133.333 164.5 133.333 157 135 C156.175 135.825 155.35 136.65 154.5 137.5 C151.068 140.932 147.669 140.962 143 142 C142.154 142.866 141.309 143.733 140.438 144.625 C136.985 147.989 134.651 147.6 130 147 C126.285 143.285 126.418 141.104 126 136 C124.68 135.67 123.36 135.34 122 135 C121.587 135.392 121.587 135.392 119.5 137.375 C114.416 141.188 110.309 140.664 104 141 C100 143 100 143 96 147 C91.249 147.839 86.441 147.602 81.625 147.562 C80.968 147.574 80.968 147.574 77.641 147.635 C65.753 147.617 65.753 147.617 61 142 C56.338 144.797 54.017 146.604 51 151 C51 157.772 51.202 157.932 56 162 C56.402 162.454 56.402 162.454 58.438 164.75 C63.242 167.784 67.358 167.65 72.953 167.762 C76 168 76 168 78 170 C78.268 171.588 78.536 173.176 78.812 174.812 C80.056 180.246 80.779 181.643 85 185 C92 190.788 92 190.788 92 198 C91.67 199.32 91.34 200.64 91 202 C80.25 202.25 80.25 202.25 78 200 C77.866 199.278 77.866 199.278 77.188 195.625 C75.857 190.443 75.209 189.899 71 187 C69.845 185.618 68.69 184.236 67.5 182.812 C64 179 64 179 59 178 C58.424 181.453 58.006 184.836 57.887 188.336 C57.606 195.864 57.021 200.055 52 206 C52.33 206.99 52.66 207.98 53 209 C58.833 209.227 64.666 209.428 70.5 209.625 C72.15 209.689 73.8 209.754 75.5 209.82 C77.098 209.872 78.697 209.923 80.344 209.977 C81.81 210.029 83.276 210.081 84.787 210.135 C89.202 209.994 92.828 209.457 97 208 C98.839 204.322 99.886 200.935 101 197 C103.198 194.802 107.171 195.829 110 196 C113.942 199.942 113.72 201.562 113 207 C112.515 207.516 112.515 207.516 110.062 210.125 C106.083 215.161 106.507 218.603 106.336 224.836 C105.889 229.049 104.112 230.268 101 233 C100.711 234.629 100.423 236.259 100.125 237.938 C98.767 244.049 96.957 245.387 92 249 C90.315 250.648 88.642 252.309 87 254 C86.67 254.33 86.34 254.66 86 255 C85.902 257.598 85.868 260.198 85.859 262.797 C85.84 264.395 85.821 265.994 85.801 267.641 C85.767 271.031 85.749 274.422 85.746 277.812 C85.722 279.416 85.697 281.02 85.672 282.672 C85.667 283.41 85.667 283.41 85.644 287.144 C84.876 291.744 83.465 293.021 80 296 C78.921 299.236 78.875 301.621 78.859 305.023 C78.84 306.209 78.821 307.395 78.801 308.617 C78.767 311.114 78.749 313.612 78.746 316.109 C78.519 327.123 78.519 327.123 73 331 C72.299 331.887 71.598 332.774 70.875 333.688 C69 336 69 336 66 338 C65.773 338.887 65.773 338.887 64.625 343.375 C63 349 63 349 60.43 350.887 C56.276 354.499 57.49 359.184 57.531 364.371 C56.878 368.834 55.416 370.18 52 373 C49.585 375.415 50.736 381.991 50.672 385.266 C49.868 389.735 48.444 391.155 45 394 C42.585 396.415 43.736 402.991 43.672 406.266 C42.862 410.765 41.434 412.102 38 415 C37.34 415.846 36.68 416.691 36 417.562 C33.887 420.138 31.634 421.974 29 424 C28.505 424.495 28.505 424.495 26 427 C23.039 427.406 23.039 427.406 19.625 427.5 C13.177 427.678 9.67 429.33 5 434 C4.278 434.144 4.278 434.144 0.625 434.875 C-4.461 436.112 -5.482 437.392 -9 441 C-11.664 441.677 -14.331 442.343 -17 443 C-17.99 443.825 -18.98 444.65 -20 445.5 C-23 448 -23 448 -26.812 448.812 C-34.209 450.91 -38.645 456.645 -44 462 C-44.732 462.155 -44.732 462.155 -48.438 462.938 C-54.618 464.377 -56.646 467.009 -60.125 472.125 C-64.173 476.173 -68.535 476.572 -74 478 C-74.784 478.866 -75.567 479.733 -76.375 480.625 C-80.15 484.04 -83.598 483.473 -88.551 483.371 C-92 484 -92 484 -95.521 486.996 C-101.115 490.748 -104.416 490.729 -111.105 490.699 C-112.148 490.706 -113.19 490.712 -114.264 490.719 C-117.572 490.737 -120.879 490.715 -124.188 490.688 C-127.506 490.676 -130.825 490.674 -134.143 490.688 C-137.147 490.699 -140.15 490.681 -143.153 490.663 C-151.05 491.212 -155.342 495.594 -160 501.562 C-162.113 504.138 -164.366 505.974 -167 508 C-167.495 508.495 -167.495 508.495 -170 511 C-170.722 511.144 -170.722 511.144 -174.375 511.875 C-179 513 -179 513 -181.156 515.559 C-185.369 519.175 -188.688 518.421 -194.125 518.188 C-203.727 517.818 -203.727 517.818 -207 520 C-206 524 -206 524 -204 525 C-201.98 525.078 -199.959 525.138 -197.938 525.188 C-191.225 525.649 -187.201 527.579 -182 532 C-181 536 -181 536 -183.438 539.25 C-184.283 540.158 -185.129 541.065 -186 542 C-183.981 546.038 -182.361 547.675 -179 550.562 C-176.183 552.991 -174.07 554.895 -172 558 C-171.113 558.237 -171.113 558.237 -166.625 559.438 C-161 561 -161 561 -157 565 C-148.806 566.639 -144.792 561.249 -139 556 C-137.314 554.353 -135.644 552.689 -134 551 C-133.196 550.216 -132.391 549.433 -131.562 548.625 C-129.625 546.64 -127.786 544.559 -126 542.438 C-123.448 539.513 -121.051 537.347 -118 535 C-115.448 532.511 -113.013 530.015 -110.688 527.312 C-107.3 524.397 -104.304 524.059 -100 523 C-99.515 522.587 -99.515 522.587 -97.062 520.5 C-94 518 -94 518 -89.438 517 C-84.486 515.884 -83.148 514.848 -80 511 C-74.281 504.084 -72.074 503.858 -63.262 503.477 C-58.356 502.76 -55.44 500.44 -52 497 C-47.38 496.663 -47.38 496.663 -41.488 496.699 C-39.347 496.692 -37.206 496.683 -35.064 496.674 C-31.692 496.676 -28.319 496.687 -24.947 496.715 C-21.689 496.736 -18.433 496.72 -15.176 496.699 C-14.201 496.704 -14.201 496.704 -9.267 496.725 C-3.183 495.888 -0.606 493.928 4 490 C7.344 489.406 7.344 489.406 10.5 489.5 C17.054 489.311 19.925 487.215 25 483 C25.639 482.866 25.639 482.866 28.875 482.188 C36.12 480.102 40.778 474.222 46 469 C46.722 468.856 46.722 468.856 50.375 468.125 C55 467 55 467 57.25 464.438 C61.178 460.956 64.731 461.396 69.844 461.336 C75.717 460.711 79.127 457.066 83 453 C83.433 452.577 83.433 452.577 85.625 450.438 C89.173 446.796 90.902 444.479 91.938 439.438 C93 435 93 435 97 432 C97.268 430.412 97.536 428.824 97.812 427.188 C99.229 421 100.979 419.66 106 416 C110.178 412.658 110.913 411.492 111.875 406.062 C113.233 399.951 115.043 398.613 120 395 C124.178 391.658 124.913 390.492 125.875 385.062 C127.233 378.951 129.043 377.613 134 374 C139.587 369.556 140.194 364.753 142 358 C143.32 357.01 144.64 356.02 146 355 C146.237 354.103 146.237 354.103 147.438 349.562 C149 344 149 344 151.566 342.117 C155.723 338.501 154.51 333.821 154.469 328.629 C155.128 324.127 156.731 323.016 160 320 C160.155 319.196 160.155 319.196 160.938 315.125 C162.14 309.326 164.151 307.34 168 303 C168.144 301.824 168.289 300.649 168.438 299.438 C169.258 294.424 172.063 293.018 176 290 C178.592 287.47 181.037 284.956 183.375 282.188 C186.882 279.265 188.534 279.23 193 280 C196.938 282.5 196.938 282.5 200 285 C202.697 283.382 205.383 281.744 208 280 C210.333 279.333 212.667 278.667 215 278 C215.495 277.67 215.495 277.67 218 276 C218 275.34 218 274.68 218 274 C219.32 273.34 220.64 272.68 222 272 C223.362 270.357 224.699 268.692 226 267 C229.474 265.263 233.195 265.893 237 266 C238 267 238 267 238 272 C231.356 280.443 224.757 286.879 214 289 C212.329 290.328 210.663 291.662 209 293 C207.206 293.598 205.411 294.196 203.562 294.812 C197.771 297.09 195.549 299.012 192 304 C192.66 304.99 193.32 305.98 194 307 C199.374 306.899 202.05 305.511 206 302 C209 301 209 301 214.188 300.812 C220 300 220 300 223.875 297 C228.291 293.788 229.167 293.706 234.312 293.688 C244.143 293.413 249.424 286.576 256 280 C258.953 279.602 258.953 279.602 262.25 279.625 C268.906 279.335 271.815 277.234 277 273 C279.997 272.321 282.997 271.653 286 271 C286.361 270.584 286.361 270.584 288.189 268.479 C292.183 264.957 295.019 265.388 300.281 265.398 C301.187 265.391 301.187 265.391 305.77 265.352 C307.661 265.359 309.552 265.367 311.5 265.375 C315.24 265.375 318.979 265.363 322.719 265.336 C324.378 265.342 326.038 265.347 327.748 265.353 C334.276 264.811 337.678 261.538 342 257 C342.866 256.154 343.733 255.309 344.625 254.438 C349.936 248.986 349.936 248.986 350.25 244.125 C351.256 238.59 353.617 237.377 358 234 C364.345 228.36 364.417 224.191 364.688 216.164 C365.117 211.813 366.571 210.626 370 208 C375.325 202.196 378.287 197.774 380 190 C380.846 189.299 381.691 188.597 382.562 187.875 C386.086 183.72 385.47 179.88 385.371 174.57 C386 171 386 171 388.992 167.723 C392.996 162.767 392.772 159.607 392.688 153.312 C392.691 151.473 392.695 149.634 392.699 147.738 C391.933 142.548 391.379 141.573 387 139 C385.609 136.219 385.855 133.894 385.824 130.785 C385.8 129.542 385.777 128.299 385.752 127.018 C385.709 124.385 385.678 121.752 385.658 119.119 C385.63 117.875 385.603 116.63 385.574 115.348 C385.567 114.775 385.567 114.775 385.53 111.879 C385 109 385 109 381 106 C377.688 105.642 377.688 105.642 373.696 105.663 C372.201 105.662 370.705 105.662 369.165 105.662 C367.548 105.674 365.931 105.686 364.266 105.699 C360.852 105.692 357.437 105.683 354.023 105.674 C348.634 105.676 343.244 105.688 337.854 105.715 C332.658 105.736 327.462 105.72 322.266 105.699 C321.461 105.708 321.461 105.708 317.391 105.755 C308.194 105.695 304.301 104.818 297 99 C292.461 98.107 287.989 98.158 283.375 98.203 C282.074 98.197 280.772 98.192 279.431 98.186 C276.688 98.182 273.944 98.193 271.201 98.218 C267.013 98.25 262.829 98.218 258.641 98.18 C255.969 98.184 253.297 98.191 250.625 98.203 C249.379 98.191 248.133 98.179 246.849 98.166 C238.872 98.295 235.26 99.731 229 105 Z M402 114 C400.114 117.773 400.698 122.237 400.625 126.375 C400.601 127.317 400.601 127.317 400.477 132.086 C401.067 137.628 401.573 138.119 406 141 C406.618 143.7 407.236 146.4 407.848 149.102 C409.674 153.696 413.032 156.186 416.82 159.223 C421.836 163.312 420.378 169.887 420.363 175.871 C419.918 180.935 418.103 183.065 415 187 C414.621 190.117 414.621 190.117 414.5 193.625 C414.274 199.468 413.367 201.049 409 205 C408.526 206.815 408.051 208.63 407.562 210.5 C405.887 216.398 404.895 217.671 400 221 C397.447 223.49 395.014 225.984 392.688 228.688 C390 231 390 231 386.312 231.75 C378.311 234.069 373.016 240.589 368 247 C364.919 250.257 361.634 253.192 358.25 256.125 C354 260 354 260 353 263 C355 265 355 265 358.25 264.938 C362 264 362 264 364.875 261.562 C368 259 368 259 372.188 258.438 C378.673 256.5 381.258 252.729 385.422 247.555 C388 245 388 245 393 245 C393.614 255.193 393.614 255.193 390.812 258.875 C389.884 259.576 388.956 260.278 388 261 C385.352 263.582 382.897 266.127 380.562 269 C377.203 272.933 373.288 275.975 369.25 279.188 C366.09 283.137 365.83 287.083 365 292 C363 294 363 294 358.188 294.812 C352.607 296.09 351.787 297.116 348 301 C346.494 301.33 344.989 301.66 343.438 302 C338.452 303.124 337.726 303.911 335 308 C333.35 309.354 331.683 310.687 330 312 C327.448 314.489 325.013 316.985 322.688 319.688 C319.307 322.596 316.311 323.081 312 324 C310 326 310 326 310 332 C314.279 335.209 315.048 335.362 320.086 335.336 C320.675 335.342 320.675 335.342 323.656 335.375 C326.128 335.375 328.599 335.367 331.07 335.352 C338.025 335.443 342.08 335.539 347 341 C351.816 343.408 358.905 342.251 364.207 342.328 C369.586 343.082 370.568 344.047 374 348 C377.662 349.017 381.328 350.018 385 351 C385.495 351.66 385.495 351.66 388 355 C391.285 356.095 393.921 356.139 397.375 356.25 C403.26 356.652 405.026 357.608 409 362 C412.659 363.028 416.326 364.029 420 365 C420.66 365.66 420.66 365.66 424 369 C426.759 370.38 429.171 370.152 432.25 370.25 C437.998 370.626 441.026 371.571 445 376 C450 373 450 373 452 371 C454.993 370.303 457.993 369.635 461 369 C463.249 366.751 462.221 362.877 462 360 C457.795 357.898 455.665 357.703 451.047 357.586 C450.377 357.567 450.377 357.567 446.984 357.469 C445.587 357.438 444.19 357.407 442.75 357.375 C441.337 357.336 439.924 357.298 438.469 357.258 C434.979 357.164 431.49 357.078 428 357 C428 354.69 428 352.38 428 350 C429.32 349.959 430.64 349.918 432 349.875 C437 349 437 349 440.712 345.991 C445.809 342.435 448.461 342.257 454.609 342.266 C456.415 342.249 458.221 342.232 460.082 342.215 C461.952 342.226 463.823 342.238 465.75 342.25 C469.474 342.242 473.198 342.227 476.922 342.203 C478.568 342.21 480.213 342.217 481.909 342.224 C488.133 341.883 490.912 339.395 495 335 C495.536 334.134 496.072 333.268 496.625 332.375 C499 330 499 330 504.25 328.688 C510.948 326.722 513.449 324.178 518 319 C518.949 318.072 519.898 317.144 520.875 316.188 C526.792 310.097 525.291 303.07 525.363 294.977 C526.049 289.615 526.781 288.179 531 285 C532.936 283.064 532.169 279.451 532.193 276.897 C532.209 275.372 532.225 273.847 532.242 272.275 C532.286 265.284 532.327 258.293 532.35 251.301 C532.367 247.608 532.394 243.914 532.432 240.22 C532.487 234.912 532.509 229.605 532.523 224.297 C532.535 223.469 532.535 223.469 532.592 219.281 C532.589 217.743 532.586 216.205 532.583 214.62 C532.588 213.943 532.588 213.943 532.608 210.518 C531.858 206.18 530.339 204.758 527 202 C526 201 526 201 525.25 196.25 C523.952 190.799 523.239 189.372 519 186 C515.164 182.868 512.03 179.91 509 176 C505.104 171.812 502.221 169.306 496.375 168.5 C493 168 493 168 491 166 C490.866 165.206 490.866 165.206 490.188 161.188 C488.447 153.585 485.535 151.921 479 148 C477.659 147.711 476.319 147.423 474.938 147.125 C470.422 145.835 469.558 144.794 467 141 C465.356 139.311 463.686 137.647 462 136 C460.804 134.763 459.608 133.525 458.375 132.25 C455 129 455 129 452 128 C442.886 135.457 442.886 135.457 442.895 145.223 C442.88 147.123 442.865 149.024 442.85 150.982 C442.819 155.009 442.82 159.033 442.834 163.061 C442.813 164.97 442.791 166.88 442.77 168.848 C442.765 170.601 442.761 172.354 442.757 174.16 C441.854 179.935 439.652 182.533 436 187 C435.125 192 435.125 192 435 196 C432.69 196 430.38 196 428 196 C426.841 191.366 427.337 187.416 427.743 182.699 C428.199 176.137 428.045 169.574 428 163 C427.99 161.136 427.979 159.271 427.969 157.35 C427.934 152.192 427.87 147.035 427.792 141.877 C427.764 139.728 427.743 137.578 427.729 135.428 C427.708 132.289 427.661 129.151 427.609 126.012 C427.599 125.086 427.599 125.086 427.546 120.401 C427 116 427 116 423 113 C418.777 112.672 418.777 112.672 413.938 112.75 C412.338 112.765 410.738 112.781 409.09 112.797 C405 113 405 113 402 114 Z M-68 150 C-69.294 154.715 -69.239 158.959 -68.938 163.812 C-68.921 165.026 -68.905 166.24 -68.889 167.49 C-68.608 176.392 -68.608 176.392 -64 181 C-60.875 180.938 -60.875 180.938 -58 180 C-56 177 -56 177 -55.812 173.688 C-54.692 168.601 -52.066 167.084 -48 164 C-47.01 163.01 -46.02 162.02 -45 161 C-38.237 160.127 -36.605 161.395 -32 166 C-28.686 166.759 -25.352 167.434 -22 168 C-18.994 171.006 -19.627 173.639 -19.562 177.812 C-19.543 178.517 -19.543 178.517 -19.441 182.082 C-20.112 186.789 -21.406 188.028 -25 191 C-25.763 191.928 -26.526 192.856 -27.312 193.812 C-31.127 196.918 -33.191 196.79 -38 196 C-40.71 194.059 -43.38 192.061 -46 190 C-47.65 190 -49.3 190 -51 190 C-51.66 190.99 -52.32 191.98 -53 193 C-50.183 196.42 -47.478 199.603 -44.062 202.438 C-40.265 205.615 -37.208 209.237 -34 213 C-33.67 213.33 -33.67 213.33 -32 215 C-28 214 -28 214 -25.688 211.938 C-22.136 209.377 -20.298 209.321 -16 210 C-13.963 211.621 -11.962 213.289 -10 215 C-7.125 216.188 -7.125 216.188 -4 216 C-2.742 215.031 -1.484 214.061 -0.188 213.062 C4.701 209.487 7.085 209.363 13 210 C14 211 14 211 14 216 C12.68 217.32 11.36 218.64 10 220 C12.517 225.034 15.385 228.174 20.855 229.902 C25.104 230.034 26.419 228.656 29.562 225.875 C30.471 225.089 31.38 224.302 32.316 223.492 C38.399 217.844 42.127 214.374 42.25 205.75 C42.538 200.647 42.671 199.397 46.062 195.312 C50.69 188.519 49.972 180.995 49 173 C46.464 168.773 44.48 166.314 41 163 C40.196 162.175 39.391 161.35 38.562 160.5 C36 158 36 158 33.125 155.688 C30 153 30 153 26.438 148.875 C23 145 23 145 18 142 C17.319 142.825 16.639 143.65 15.938 144.5 C10.063 148.23 3.788 148.267 -3 147 C-5.777 144.523 -5.777 144.523 -8 142 C-14.938 139.687 -22.984 140.527 -30.275 140.43 C-32.411 140.394 -34.547 140.339 -36.682 140.266 C-61.727 139.423 -61.727 139.423 -68 150 Z M-97 153 C-97.656 158.983 -97.665 161.113 -94 166 C-91 165 -91 165 -89.5 160.25 C-89.005 158.518 -88.51 156.785 -88 155 C-87.01 153.35 -86.02 151.7 -85 150 C-89.734 145.266 -93.856 148.598 -97 153 Z M-332 176 C-333 179 -333 179 -332 181 C-327 182 -327 182 -324 181 C-323 178 -323 178 -324 176 C-329 175 -329 175 -332 176 Z M388 199 C386.797 201.84 386.797 201.84 385.812 204.75 C384 210 384 210 380 214 C379 218 379 218 380 221 C386.985 221 387.98 218.508 392 213 C393.065 209.687 394.073 206.354 395 203 C396.32 201.68 397.64 200.36 399 199 C400 195 400 195 398 191 C392.751 191 391.005 195.046 388 199 Z M-312 198 C-312 198.99 -312 199.98 -312 201 C-311.01 201 -310.02 201 -309 201 C-309 200.01 -309 199.02 -309 198 C-309.99 198 -310.98 198 -312 198 Z M-333 211 C-333 212.32 -333 213.64 -333 215 C-328.409 213.852 -326.357 212.281 -323 209 C-323 207.68 -323 206.36 -323 205 C-327.731 205 -329.739 207.8 -333 211 Z M-381 226 C-380.67 227.32 -380.34 228.64 -380 230 C-376 231 -376 231 -373 230 C-372 227 -372 227 -373 225 C-378 224 -378 224 -381 226 Z M-382 254 C-382 254.99 -382 255.98 -382 257 C-381.01 257 -380.02 257 -379 257 C-379 256.01 -379 255.02 -379 254 C-379.99 254 -380.98 254 -382 254 Z M-368 260 C-368 261.32 -368 262.64 -368 264 C-363.409 262.852 -361.357 261.281 -358 258 C-358 256.68 -358 255.36 -358 254 C-362.731 254 -364.739 256.8 -368 260 Z M562 255 C561.821 258.476 561.732 261.957 561.688 265.438 C561.65 267.354 561.613 269.271 561.574 271.246 C561.715 272.815 561.855 274.384 562 276 C562.66 276.33 562.66 276.33 566 278 C568.737 273.894 568.266 270.904 568.25 266 C568.255 264.391 568.26 262.783 568.266 261.125 C568 257 568 257 566 254 C563 254 563 254 562 255 Z M549 261 C545.109 266.836 546.812 275.021 546.947 281.843 C547.002 285.106 547.01 288.369 547.02 291.633 C547.052 293.839 547.087 296.044 547.125 298.25 C547.122 299.284 547.119 300.318 547.116 301.383 C547.316 308.986 549.639 312.931 554 319 C554.734 322.398 554.734 322.398 554.75 325.375 C555 331 555 331 557 334 C562.006 335.524 562.583 335.313 567 332 C567 325.314 566.299 324.613 562 320 C559.605 315.21 560.704 307.787 560.658 302.404 C560.492 295.839 559.964 291.496 556 286 C552.439 280.659 553.638 273.74 553.539 267.465 C553.361 265.991 553.183 264.518 553 263 C551.68 262.34 550.36 261.68 549 261 Z M571 289 C571 289.99 571 290.98 571 292 C571.66 292 572.32 292 573 292 C573 291.01 573 290.02 573 289 C572.34 289 571.68 289 571 289 Z M-235 296 C-235 296.99 -235 297.98 -235 299 C-234.01 299 -233.02 299 -232 299 C-232 298.01 -232 297.02 -232 296 C-232.99 296 -233.98 296 -235 296 Z M-201 302 C-200.67 303.32 -200.34 304.64 -200 306 C-199.01 306 -198.02 306 -197 306 C-197.33 304.68 -197.66 303.36 -198 302 C-198.99 302 -199.98 302 -201 302 Z M577 303 C577 303.99 577 304.98 577 306 C577.99 306 578.98 306 580 306 C580 305.01 580 304.02 580 303 C579.01 303 578.02 303 577 303 Z M-270 310 C-270 310.99 -270 311.98 -270 313 C-269.01 313 -268.02 313 -267 313 C-267 312.01 -267 311.02 -267 310 C-267.99 310 -268.98 310 -270 310 Z M-320 316 C-319.67 317.32 -319.34 318.64 -319 320 C-318.01 320 -317.02 320 -316 320 C-316.33 318.68 -316.66 317.36 -317 316 C-317.99 316 -318.98 316 -320 316 Z M-222 318 C-222.234 321.203 -222.361 324.414 -222.438 327.625 C-222.498 329.391 -222.559 331.157 -222.621 332.977 C-221.886 338.924 -220.062 340.76 -216 345 C-215.691 346.65 -215.381 348.3 -215.062 350 C-213.778 356.045 -211.742 358.158 -207 362 C-205.68 362.33 -204.36 362.66 -203 363 C-200.906 354.623 -200.756 344.055 -205.938 337 C-206.948 336.01 -207.959 335.02 -209 334 C-209.155 333.175 -209.155 333.175 -209.938 329 C-211.217 322.978 -213.27 320.817 -218 317 C-221 317 -221 317 -222 318 Z M170 327 C169.621 330.662 169.289 334.33 169 338 C168 339.667 168 339.667 163 348 C162.948 348.557 162.948 348.557 162.688 351.375 C161.774 356.194 159.165 358.318 156 362 C155.297 364.657 154.625 367.323 154 370 C152.68 370.99 151.36 371.98 150 373 C149.732 374.588 149.464 376.176 149.188 377.812 C147.771 384 146.021 385.34 141 389 C136.822 392.342 136.087 393.508 135.125 398.938 C133.767 405.049 131.957 406.387 127 410 C122.822 413.342 122.087 414.508 121.125 419.938 C119.767 426.049 117.957 427.387 113 431 C108.679 434.437 108.014 435.946 106.562 441.5 C104.866 447.47 103.875 448.559 99 452 C93.998 457.002 92.477 459.971 92 467 C90 469 90 469 85.188 469.812 C80 471 80 471 77.688 473.562 C73.801 477.088 70.164 476.65 65.059 476.762 C58.349 477.284 54.767 481.779 50.812 486.75 C47.783 490.51 45.52 490.074 40.875 490.188 C34.239 490.625 31.142 492.729 26 497 C23.338 497.686 20.672 498.354 18 499 C17.113 499.846 16.226 500.691 15.312 501.562 C11.522 504.352 10.365 504.223 5.812 504.25 C-4.091 504.601 -9.364 511.364 -16 518 C-17.464 518.309 -18.929 518.619 -20.438 518.938 C-27.062 520.48 -29.033 523.711 -33 529 C-33.293 532.453 -33.293 532.453 -33.188 536.25 C-33.16 537.513 -33.133 538.777 -33.105 540.078 C-33.071 541.042 -33.036 542.007 -33 543 C-31.68 543.33 -30.36 543.66 -29 544 C-26.555 541.543 -26.555 541.543 -23.875 538.188 C-18.847 532.393 -15.724 530.939 -8 530 C-7.24 529.177 -6.48 528.353 -5.698 527.505 C-2.114 524.177 -0.046 524.374 4.785 524.363 C6.285 524.343 7.785 524.323 9.33 524.303 C10.111 524.304 10.111 524.304 14.062 524.312 C17.158 524.296 20.253 524.272 23.348 524.238 C24.719 524.239 26.091 524.239 27.504 524.24 C33.317 523.841 36.234 521.162 40 517 C42 513 42 513 42.5 509.375 C43 506 43 506 45 504 C46.588 503.732 48.176 503.464 49.812 503.188 C55.356 501.918 56.279 500.917 60 497 C62.664 496.323 65.331 495.657 68 495 C68.99 494.175 69.98 493.35 71 492.5 C74.585 489.512 77.518 489.12 82 488 C82.887 487.154 83.774 486.309 84.688 485.438 C88.478 482.648 89.635 482.777 94.188 482.75 C104.091 482.399 109.364 475.636 116 469 C117.464 468.691 118.929 468.381 120.438 468.062 C126.657 466.614 128.54 463.798 132.438 459 C135 456 135 456 137.938 453.562 C146.766 446.176 146.766 446.176 147.438 439.938 C148.216 434.491 150.695 433.228 155 430 C157.585 427.535 159.91 425.114 162.125 422.312 C164 420 164 420 167 418 C167.454 416.267 167.908 414.535 168.375 412.75 C170 407 170 407 172.564 404.484 C176.322 399.109 175.669 393.905 175.602 387.5 C175.61 386.191 175.618 384.882 175.626 383.533 C175.649 379.355 175.639 375.178 175.625 371 C175.621 366.822 175.625 362.645 175.646 358.467 C175.658 355.869 175.655 353.271 175.636 350.674 C175.638 350.083 175.638 350.083 175.647 347.094 C175.643 346.059 175.639 345.025 175.635 343.959 C176.274 338.778 178.353 335.647 182 332 C182 326 182 326 178 323 C174 323 174 323 170 327 Z M519 334 C514.847 338.085 511.895 340.686 506.375 342.625 C498.875 345.939 488.711 352.866 486 361 C488 363 488 363 491.188 363.062 C496.295 361.639 498.422 358.839 502 355 C505.385 352.424 508.256 350.902 512.25 349.375 C516.729 347.135 518.594 345.526 521.875 341.938 C526.896 336.569 530.888 335.44 538 334 C539 332 539 332 539 326 C529.244 320.147 525.524 326.481 519 334 Z M-276 331 C-282.692 336.077 -282.692 336.077 -284 340 C-282 342 -282 342 -278.5 341.75 C-275 341 -275 341 -273 339 C-272.875 335.375 -272.875 335.375 -273 332 C-273.99 331.67 -274.98 331.34 -276 331 Z M-325 337 C-326 340 -326 340 -325 342 C-320 343 -320 343 -317 342 C-316 339 -316 339 -317 337 C-322 336 -322 336 -325 337 Z M-241 345 C-245.589 348.642 -249.4 352.407 -253 357 C-254.643 358.362 -256.308 359.699 -258 361 C-258.99 361.99 -259.98 362.98 -261 364 C-263.659 364.696 -266.326 365.363 -269 366 C-271 368 -271 368 -271 374 C-268.75 376.625 -268.75 376.625 -266 379 C-264.68 380.32 -263.36 381.64 -262 383 C-260.35 383.495 -258.7 383.99 -257 384.5 C-252 386 -252 386 -248 390 C-241.303 391.339 -239.277 388.957 -234 385 C-227.217 384.081 -221 383.633 -215.25 387.562 C-214.879 387.965 -214.879 387.965 -213 390 C-212.01 389.67 -211.02 389.34 -210 389 C-209 385 -209 385 -212 380 C-213.822 378.237 -215.679 376.51 -217.562 374.812 C-222.768 369.757 -224.019 366.261 -225 359 C-227.125 356.375 -227.125 356.375 -230 354 C-230.681 353.299 -230.681 353.299 -234.125 349.75 C-238 346 -238 346 -241 345 Z M-340 352 C-340 352.99 -340 353.98 -340 355 C-339.01 355 -338.02 355 -337 355 C-337 354.01 -337 353.02 -337 352 C-337.99 352 -338.98 352 -340 352 Z M-299 362 C-299.495 363.485 -299.99 364.97 -300.5 366.5 C-302 371 -302 371 -306 375 C-306 381 -306 381 -302 384 C-297.597 383.824 -296.506 383.76 -294 380 C-293.897 378.102 -293.794 376.205 -293.688 374.25 C-293.327 368.53 -291.871 365.367 -288 361 C-288.66 360.01 -289.32 359.02 -290 358 C-295 358 -295 358 -299 362 Z M-201 365 C-200.67 366.32 -200.34 367.64 -200 369 C-199.01 369 -198.02 369 -197 369 C-197.33 367.68 -197.66 366.36 -198 365 C-198.99 365 -199.98 365 -201 365 Z M480 373 C479.134 373.763 478.267 374.526 477.375 375.312 C474 378 474 378 469.438 379 C465 380 465 380 462.848 382.523 C458.706 386.125 455.4 385.601 450 385.625 C442.004 385.684 437.866 386.134 432 392 C430.783 392.247 429.566 392.495 428.312 392.75 C421.835 394.628 417.912 398.849 413.5 403.812 C410.237 406.667 407.187 407.108 403 408 C399.593 411.407 400.616 415.732 400.562 420.375 C400.523 422.26 400.483 424.144 400.441 426.086 C401.054 431.473 401.464 432.391 406 435 C407.338 436.663 408.672 438.329 410 440 C411.32 440.99 412.64 441.98 414 443 C414.309 444.609 414.619 446.217 414.938 447.875 C416.067 453.322 416.785 454.647 421 458 C424.836 461.132 427.97 464.09 431 468 C433.619 470.757 436.045 473.031 439.188 475.188 C443.052 479.052 443.009 482.715 444 488 C446.583 491.247 449.327 493.238 452.688 495.688 C456.923 499.923 456.973 503.203 458 509 C460.583 512.247 463.327 514.238 466.688 516.688 C470.923 520.923 470.973 524.203 472 530 C474.583 533.247 477.327 535.238 480.688 537.688 C484.923 541.923 484.973 545.203 486 551 C487.646 552.687 489.312 554.355 491 556 C491.667 559 492.333 562 493 565 C495.432 567.973 498.09 570.073 501.062 572.5 C503.812 574.84 505.798 577.159 508 580 C510.619 582.757 513.045 585.031 516.188 587.188 C520.052 591.052 520.009 594.715 521 600 C523.25 602.812 523.25 602.812 526 605 C529.837 608.132 532.937 611.121 536 615 C537.32 615.99 538.64 616.98 540 618 C540.309 619.609 540.619 621.217 540.938 622.875 C542 628 542 628 544.525 630.309 C547.894 633.972 547.645 636.268 547.664 641.188 C547.671 642.773 547.677 644.359 547.684 645.992 C547.664 647.645 547.645 649.297 547.625 651 C547.644 652.653 547.664 654.305 547.684 656.008 C547.68 656.801 547.68 656.801 547.664 660.812 C547.658 662.263 547.653 663.713 547.647 665.207 C546.869 669.767 545.522 671.117 542 674 C539.352 676.582 536.897 679.127 534.562 682 C531.937 685.074 529.144 687.471 526 690 C525.01 690.99 524.02 691.98 523 693 C522.278 693.144 522.278 693.144 518.625 693.875 C514 695 514 695 511.5 697.5 C508.068 700.932 504.669 700.962 500 702 C497.25 704.25 497.25 704.25 495 707 C488.101 715.342 483.668 714.198 472.891 714.426 C465.644 715.277 462.181 718.211 458 724 C460 727 460 727 464.508 727.301 C468.237 727.309 471.966 727.309 475.695 727.301 C481.818 728.108 484.354 730.077 489 734 C493.252 734.255 494.517 733.471 497.562 730.5 C502.062 727.228 505.526 727.359 510.977 727.238 C516.236 726.824 518.293 724.707 522 721 C526.59 720.496 526.59 720.496 531.938 720.438 C539.94 720.338 544.132 719.868 550 714 C555.909 713.301 561.867 713.491 567.812 713.5 C569.466 713.472 571.119 713.443 572.822 713.414 C574.414 713.411 576.005 713.409 577.645 713.406 C579.102 713.399 580.56 713.392 582.062 713.385 C586.735 714.115 588.689 715.709 592 719 C598.074 715.356 601.514 712.924 602.707 705.75 C602.742 704.182 602.777 702.615 602.812 701 C602.856 699.329 602.9 697.659 602.945 695.938 C602.963 694.308 602.981 692.679 603 691 C603.039 689.598 603.077 688.195 603.117 686.75 C603.292 677.438 603.292 677.438 601 674 C599.68 674 598.36 674 597 674 C595.513 676.975 595.921 679.814 595.875 683.125 C595.458 690.506 593.686 694.012 588 699 C584.526 700.737 580.805 700.107 577 700 C576 699 576 699 576 694 C576.825 693.361 577.65 692.721 578.5 692.062 C582.49 687.174 582.229 681.065 581 675 C578.523 672.844 578.523 672.844 576 671 C575.324 668.002 574.658 665.002 574 662 C572.373 660.295 570.711 658.621 569 657 C569 652 569 652 570 651 C576.712 650.317 579.102 651.547 584 656 C585.32 656 586.64 656 588 656 C589.03 651.466 589.178 650.355 587 646 C586.175 645.278 585.35 644.556 584.5 643.812 C581.228 640.132 581.056 636.754 580 632 C578.354 630.313 576.688 628.645 575 627 C574.333 624.333 573.667 621.667 573 619 C572.175 618.216 571.35 617.432 570.5 616.625 C566.945 612.892 566.996 608.979 566 604 C565.165 603.228 564.329 602.456 563.469 601.66 C560.219 598.158 560.463 596.138 560.5 591.438 C560.55 585.176 559.992 583.652 555 580 C553.989 576.336 552.99 572.67 552 569 C550.354 567.313 548.688 565.645 547 564 C546.333 561 545.667 558 545 555 C544.165 554.238 543.329 553.476 542.469 552.691 C539.233 549.163 539.463 547.149 539.5 542.438 C539.555 535.526 539.555 535.526 536.531 532.66 C535.696 532.112 534.861 531.564 534 531 C532.585 528.171 532.872 525.762 532.859 522.602 C532.84 521.318 532.821 520.034 532.801 518.711 C532.767 515.995 532.749 513.279 532.746 510.562 C532.722 509.276 532.697 507.99 532.672 506.664 C532.663 505.483 532.653 504.302 532.644 503.084 C531.812 499.099 530.175 498.393 527 496 C525.989 492.336 524.99 488.67 524 485 C521.397 481.746 518.688 479.773 515.312 477.312 C511.077 473.077 511.027 469.797 510 464 C507.75 461.188 507.75 461.188 505 459 C501.168 455.871 498.015 452.919 495 449 C493.68 447.68 492.36 446.36 491 445 C490.642 442.337 490.306 439.67 490 437 C489.505 436.835 489.505 436.835 487 436 C485.68 437.32 484.36 438.64 483 440 C478 440 478 440 477 439 C476.658 432.923 476.675 426.836 476.625 420.75 C476.588 419.032 476.55 417.313 476.512 415.543 C476.5 413.894 476.489 412.246 476.477 410.547 C476.467 409.788 476.467 409.788 476.417 405.948 C477.107 401.279 478.381 399.902 482 397 C484.348 394.652 483.089 388.286 483.062 384.938 C483.058 383.893 483.053 382.848 483.049 381.771 C483.037 379.181 483.019 376.59 483 374 C482.01 373.67 481.02 373.34 480 373 Z M-352 379 C-352.33 379.495 -352.33 379.495 -354 382 C-353.381 382.825 -352.762 383.65 -352.125 384.5 C-350 388 -350 388 -348.938 392.312 C-348.628 393.529 -348.319 394.746 -348 396 C-345 397 -345 397 -343 396 C-341.066 390.198 -341.314 384.994 -345 380 C-348.562 378.938 -348.562 378.938 -352 379 Z M-290 386 C-290.33 387.32 -290.66 388.64 -291 390 C-288.543 392.691 -288.543 392.691 -285.188 395.562 C-279.144 400.784 -279.144 400.784 -277 404 C-275.206 404.351 -273.411 404.701 -271.562 405.062 C-266 407 -266 407 -264 412.062 C-263.67 413.692 -263.34 415.321 -263 417 C-259.313 419.458 -258.17 419.065 -254 418 C-252 416 -252 416 -252 410 C-254.336 406.789 -254.336 406.789 -257.375 403.625 C-258.373 402.565 -259.37 401.506 -260.398 400.414 C-263 398 -263 398 -265 398 C-265.33 397.01 -265.66 396.02 -266 395 C-267.965 393.292 -269.967 391.626 -272 390 C-272.99 389.01 -273.98 388.02 -275 387 C-277.884 385.558 -280.417 385.906 -283.625 385.938 C-284.219 385.942 -284.219 385.942 -287.227 385.965 C-287.684 385.971 -287.684 385.971 -290 386 Z M-319 394 C-319 394.99 -319 395.98 -319 397 C-318.01 397 -317.02 397 -316 397 C-316 396.01 -316 395.02 -316 394 C-316.99 394 -317.98 394 -319 394 Z M-396 401 C-396.33 402.32 -396.66 403.64 -397 405 C-395.68 404.67 -394.36 404.34 -393 404 C-393 403.01 -393 402.02 -393 401 C-393.99 401 -394.98 401 -396 401 Z M-416 407 C-416.33 408.32 -416.66 409.64 -417 411 C-413.062 414.75 -413.062 414.75 -409 418 C-404.391 415.235 -402.139 413.215 -399 409 C-399 408.34 -399 407.68 -399 407 C-404.61 407 -410.22 407 -416 407 Z M-228 415 C-227.67 416.32 -227.34 417.64 -227 419 C-226.01 419 -225.02 419 -224 419 C-224.33 417.68 -224.66 416.36 -225 415 C-225.99 415 -226.98 415 -228 415 Z M-367 421 C-368 424 -368 424 -367 426 C-362 427 -362 427 -359 426 C-358 423 -358 423 -359 421 C-364 420 -364 420 -367 421 Z M-222 421 C-223 422 -223 422 -222.812 425.875 C-222 430 -222 430 -218 433 C-216.35 433 -214.7 433 -213 433 C-212.34 432.01 -211.68 431.02 -211 430 C-217.5 422.125 -217.5 422.125 -222 421 Z M-438 436 C-438 436.99 -438 437.98 -438 439 C-437.01 439 -436.02 439 -435 439 C-435 438.01 -435 437.02 -435 436 C-435.99 436 -436.98 436 -438 436 Z M-411 438 C-411 439.98 -411 441.96 -411 444 C-406 447 -406 447 -402.75 446.25 C-400 445 -400 445 -399 444 C-399 442.02 -399 440.04 -399 438 C-405 434.4 -405 434.4 -411 438 Z M-242 436 C-242 436.99 -242 437.98 -242 439 C-241.01 439 -240.02 439 -239 439 C-239 438.01 -239 437.02 -239 436 C-239.99 436 -240.98 436 -242 436 Z M-151 444 C-152.883 447.766 -152.241 452.462 -152.328 456.617 C-153.161 460.811 -154.527 461.681 -158 464 C-159 466 -159 466 -159 472 C-154.674 475.244 -153.848 475.294 -148.75 475.312 C-142.145 475.631 -139.156 477.839 -134 482 C-130.112 482 -128.744 481.744 -126 479 C-125.695 471.525 -130.054 468.019 -135 463 C-136.32 462.01 -137.64 461.02 -139 460 C-139.32 455.219 -139.32 455.219 -139.125 449.5 C-138.804 439.294 -138.804 439.294 -141 436 C-146.097 436 -147.956 440.279 -151 444 Z M-207 443 C-207 443.99 -207 444.98 -207 446 C-206.01 446 -205.02 446 -204 446 C-204 445.01 -204 444.02 -204 443 C-204.99 443 -205.98 443 -207 443 Z M-200 457 C-200 457.99 -200 458.98 -200 460 C-199.01 460 -198.02 460 -197 460 C-197 459.01 -197 458.02 -197 457 C-197.99 457 -198.98 457 -200 457 Z M-424 464 C-424 464.99 -424 465.98 -424 467 C-423.01 467 -422.02 467 -421 467 C-421 466.01 -421 465.02 -421 464 C-421.99 464 -422.98 464 -424 464 Z M-445 492 C-445 492.99 -445 493.98 -445 495 C-444.01 495 -443.02 495 -442 495 C-442 494.01 -442 493.02 -442 492 C-442.99 492 -443.98 492 -445 492 Z M-466 499 C-466 499.99 -466 500.98 -466 502 C-465.01 502 -464.02 502 -463 502 C-463 501.01 -463 500.02 -463 499 C-463.99 499 -464.98 499 -466 499 Z M-45 513 C-45.969 513.784 -46.939 514.567 -47.938 515.375 C-52.055 518.035 -53.445 518.372 -58.125 518.625 C-64.68 519.043 -67.391 520.391 -72 525 C-73.444 525.289 -74.888 525.577 -76.375 525.875 C-81 527 -81 527 -83.25 529.562 C-87.195 533.06 -90.807 532.605 -95.941 532.664 C-99 533 -99 533 -103 536 C-103.764 538.977 -104.439 541.978 -105 545 C-106 546 -106 546 -111 546.938 C-116 548 -116 548 -117 550 C-117.177 553.309 -117.268 556.624 -117.312 559.938 C-117.35 561.741 -117.387 563.544 -117.426 565.402 C-117 570 -117 570 -113 573 C-108.812 573.434 -108.812 573.434 -104 573.438 C-102.412 573.457 -100.824 573.476 -99.188 573.496 C-95 573 -95 573 -91 569 C-90.897 567.886 -90.794 566.773 -90.688 565.625 C-89.721 560.53 -87.036 559.062 -83 556 C-82.01 555.01 -81.02 554.02 -80 553 C-78.556 552.711 -77.112 552.423 -75.625 552.125 C-71 551 -71 551 -68.75 548.438 C-64.79 544.928 -61.114 545.306 -55.961 545.141 C-53 545 -53 545 -50 544 C-48.566 541.131 -48.884 538.51 -48.812 535.312 C-48.41 528.649 -46.904 525.7 -42 521 C-41 517 -41 517 -42 514 C-42.99 513.67 -43.98 513.34 -45 513 Z M37 536 C37 542 37 542 41 545 C50.878 545.561 50.878 545.561 56 543 C56.5 539.562 56.5 539.562 56 536 C49.742 531.306 43.258 531.306 37 536 Z M-19 557 C-20 562 -20 562 -18 565 C-12.785 562.914 -11.297 561.333 -8 557 C-8.66 556.01 -9.32 555.02 -10 554 C-15 554 -15 554 -19 557 Z M-5 565 C-5 566.98 -5 568.96 -5 571 C-3.68 571.33 -2.36 571.66 -1 572 C2.75 568.062 2.75 568.062 6 564 C5.34 563.01 4.68 562.02 4 561 C-1 561 -1 561 -5 565 Z M24 562 C24 562.99 24 563.98 24 565 C24.99 565 25.98 565 27 565 C27 564.01 27 563.02 27 562 C26.01 562 25.02 562 24 562 Z M-38 569 C-38.99 569.99 -39.98 570.98 -41 572 C-40.67 573.65 -40.34 575.3 -40 577 C-39.34 577.165 -39.34 577.165 -36 578 C-34 576 -34 576 -34.188 572.938 C-34.456 571.968 -34.724 570.999 -35 570 C-35.99 569.67 -36.98 569.34 -38 569 Z M-109 590 C-108.34 591.32 -107.68 592.64 -107 594 C-96.483 594.915 -92.471 593.471 -85 586 C-85 585.01 -85 584.02 -85 583 C-94.625 578.188 -102.462 583.462 -109 590 Z M-194 626 C-195.294 633.412 -195.294 633.412 -194 636 C-192.35 635.34 -190.7 634.68 -189 634 C-188 629 -188 629 -189 626 C-192 625 -192 625 -194 626 Z M-199 638 C-199.33 639.32 -199.66 640.64 -200 642 C-198.68 641.67 -197.36 641.34 -196 641 C-196 640.01 -196 639.02 -196 638 C-196.99 638 -197.98 638 -199 638 Z M-173 654 C-175.274 660.821 -174.185 668.872 -174.188 676 C-174.2 677.774 -174.212 679.548 -174.225 681.375 C-174.227 683.066 -174.228 684.758 -174.23 686.5 C-174.235 688.057 -174.239 689.614 -174.243 691.219 C-174 695 -174 695 -172 698 C-171.34 697.835 -171.34 697.835 -168 697 C-166.71 693.131 -166.87 689.802 -166.867 685.719 C-166.866 684.073 -166.865 682.426 -166.863 680.73 C-166.867 679.004 -166.871 677.278 -166.875 675.5 C-166.871 673.774 -166.867 672.048 -166.863 670.27 C-166.864 669.446 -166.864 669.446 -166.867 665.281 C-166.868 664.524 -166.868 664.524 -166.871 660.689 C-167 657 -167 657 -168 654 C-171 653 -171 653 -173 654 Z M591 660 C588.55 663.675 589.076 664.843 590 669 C590.66 669.165 590.66 669.165 594 670 C596.45 666.325 595.924 665.157 595 661 C593.68 660.67 592.36 660.34 591 660 Z M178 737 C178.33 738.32 178.66 739.64 179 741 C179.66 741.165 179.66 741.165 183 742 C182.67 740.35 182.34 738.7 182 737 C180.68 737 179.36 737 178 737 Z " fill="currentColor" transform="translate(718,411)"/>
    <path d="M0 0 C1.617 3.234 1.109 6.528 1.105 10.113 C1.12 11.754 1.135 13.394 1.15 15.084 C1.175 18.558 1.18 22.032 1.166 25.506 C1.177 26.328 1.177 26.328 1.23 30.488 C1.235 31.999 1.239 33.511 1.243 35.068 C2.197 40.021 4.017 41.105 8 44 C8.644 47.544 8.502 50.739 8.406 54.332 C9 58 9 58 12 61.824 C16.505 68.095 15.543 73.637 15.406 81.125 C16 86 16 86 18.99 89.679 C22.623 94.894 22.76 97.715 22.762 104.012 C22.765 105.903 22.768 107.795 22.771 109.744 C22.744 111.705 22.716 113.667 22.688 115.688 C22.702 117.66 22.717 119.633 22.732 121.666 C22.64 137.608 22.64 137.608 17 142 C13.158 145.842 15.626 163.55 15.595 169.125 C15.573 172.071 15.539 175.017 15.492 177.962 C15.425 182.206 15.398 186.448 15.379 190.691 C15.365 191.347 15.365 191.347 15.295 194.666 C15.313 202.825 16.457 206.666 22 213 C22.594 218.129 22.594 218.129 22.5 223.562 C22.353 232.12 23.52 234.663 29 241 C29.559 245.742 29.559 245.742 29.438 250.875 C29.602 259.829 30.377 263.948 37 270 C40.298 271.099 42.84 271.157 46.312 271.211 C47.553 271.239 48.793 271.268 50.07 271.297 C52.69 271.349 55.31 271.393 57.93 271.43 C59.17 271.461 60.41 271.492 61.688 271.523 C62.826 271.543 63.964 271.563 65.137 271.583 C68 272 68 272 71 275 C69.649 281.754 65.713 283.82 60 287 C55.375 288.438 55.375 288.438 52 289 C52 289.99 52 290.98 52 292 C53.526 292.412 55.053 292.825 56.625 293.25 C62 295 62 295 64.75 297.125 C69.339 299.772 73.628 299.534 78.855 299.629 C82 300 82 300 85 303 C84 308 84 308 82 309 C78.404 309.146 74.824 309.235 71.227 309.281 C70.151 309.3 69.076 309.318 67.968 309.337 C64.52 309.396 61.073 309.449 57.625 309.5 C53.096 309.568 48.568 309.641 44.039 309.719 C42.994 309.732 41.949 309.746 40.873 309.76 C36.729 309.831 33.036 309.991 29 311 C28.34 312.32 27.68 313.64 27 315 C22.584 317.208 16.404 316.137 11.488 316.141 C8.701 316.159 5.914 316.179 3.127 316.199 C-1.28 316.228 -5.686 316.25 -10.093 316.25 C-14.337 316.254 -18.58 316.288 -22.824 316.328 C-24.138 316.321 -25.452 316.314 -26.805 316.307 C-34.393 316.408 -37.899 317.24 -44 322 C-48.375 322.568 -48.375 322.568 -53.215 322.488 C-54.083 322.48 -54.083 322.48 -58.479 322.439 C-60.28 322.398 -62.081 322.356 -63.938 322.312 C-65.766 322.29 -67.595 322.267 -69.479 322.244 C-73.987 322.185 -78.493 322.103 -83 322 C-84 317 -84 317 -80.75 312.812 C-75.123 307.091 -72.927 306.764 -65.02 306.797 C-63.215 306.785 -61.411 306.774 -59.553 306.762 C-55.745 306.754 -51.938 306.762 -48.131 306.785 C-47.226 306.777 -47.226 306.777 -42.645 306.734 C-41.816 306.736 -41.816 306.736 -37.624 306.741 C-31.995 305.839 -29.359 303.568 -25 300 C-22.003 299.321 -19.003 298.653 -16 298 C-15.367 297.17 -14.734 296.34 -14.082 295.484 C-9.097 291.466 -3.585 292.296 2.625 292.312 C5.076 292.296 7.526 292.272 9.977 292.238 C11.06 292.239 12.144 292.239 13.26 292.24 C16 292 16 292 19 290 C19.439 285.806 19.698 281.767 19.812 277.562 C19.863 276.404 19.914 275.246 19.967 274.053 C20.264 265.395 20.264 265.395 18 262 C17.34 262 16.68 262 16 262 C15.629 263.671 15.257 265.341 14.875 267.062 C13.365 272.583 11.278 276.064 7 280 C5.35 280.33 3.7 280.66 2 281 C-3.481 275.519 -1.517 266.666 -1.501 259.25 C-1.5 256.143 -1.542 253.039 -1.586 249.934 C-1.589 247.978 -1.591 246.023 -1.594 244.008 C-1.601 242.21 -1.608 240.412 -1.615 238.559 C-0.929 233.477 0.008 232.062 4 229 C7.461 225.539 5.392 212.638 5.438 207.938 C5.483 206.054 5.529 204.17 5.576 202.229 C5.591 200.409 5.606 198.589 5.621 196.715 C5.634 195.88 5.634 195.88 5.697 191.656 C5 187 5 187 2.009 183.019 C-1.745 178.005 -1.76 175.191 -1.762 168.988 C-1.765 167.097 -1.768 165.205 -1.771 163.256 C-1.744 161.295 -1.716 159.333 -1.688 157.312 C-1.702 155.34 -1.717 153.367 -1.732 151.334 C-1.64 135.392 -1.64 135.392 4 131 C7.446 127.554 5.368 115.043 5.405 109.856 C5.427 107.589 5.461 105.323 5.508 103.056 C5.575 99.786 5.602 96.517 5.621 93.246 C5.634 92.265 5.634 92.265 5.697 87.299 C4.892 81.178 2.953 78.624 -1 74 C-1.523 70.727 -1.523 70.727 -1.375 67.625 C-1.636 58.967 -6.334 53.826 -13 48.688 C-16.011 44.641 -15.323 40.772 -15.078 35.863 C-15 33 -15 33 -16 31 C-17.32 31 -18.64 31 -20 31 C-20.66 32.32 -21.32 33.64 -22 35 C-23.98 35 -25.96 35 -28 35 C-30.304 30.392 -30.287 28.89 -29 24 C-26.688 21.375 -26.688 21.375 -24 19 C-23.34 18.154 -22.68 17.309 -22 16.438 C-20 14 -20 14 -17.688 12.188 C-14 9.186 -11.123 5.577 -8 2 C-4 -1 -4 -1 0 0 Z " fill="currentColor" transform="translate(1027,866)"/>
    <path d="M0 0 C1.667 1.667 3.333 3.333 5 5 C5.877 5.227 5.877 5.227 10.312 6.375 C16.594 8.17 19.581 10.254 24 15 C24.165 15.825 24.165 15.825 25 20 C19.514 25.486 10.617 23.477 3.195 23.446 C0.078 23.438 -3.038 23.466 -6.154 23.498 C-8.113 23.497 -10.072 23.497 -12.09 23.496 C-12.992 23.497 -12.992 23.497 -17.554 23.502 C-22 23 -22 23 -26 19 C-26.785 12.722 -26.64 11.64 -22 7 C-20.536 6.691 -19.071 6.381 -17.562 6.062 C-13 5 -13 5 -10.438 2.375 C-6.936 -1.036 -4.72 -0.737 0 0 Z " fill="currentColor" transform="translate(632,1138)"/>
    <path d="M0 0 C0.655 0.001 0.655 0.001 3.969 0.004 C7.5 0.438 7.5 0.438 11.5 3.438 C11.5 4.098 11.5 4.757 11.5 5.438 C18.237 7.122 25.371 6.973 32.307 7.16 C41.894 7.677 47.952 10.115 53.5 18.438 C54.098 24.721 54.164 25.774 49.5 30.438 C46.004 31.004 46.004 31.004 42.062 31 C40.764 31.022 39.466 31.044 38.129 31.066 C33.695 30.298 32.409 28.757 29.5 25.438 C25.266 24.026 21.07 24.106 16.629 23.914 C13.5 23.438 13.5 23.438 9.5 20.438 C9.5 19.777 9.5 19.118 9.5 18.438 C4.822 17.268 0.399 17.172 -4.406 17.012 C-7.5 16.438 -7.5 16.438 -11.5 12.438 C-12.656 3.187 -9.054 -0.134 0 0 Z " fill="currentColor" transform="translate(519.5,1144.5625)"/>
  </g>
</svg>
