<svg xmlns="http://www.w3.org/2000/svg" width="512" height="512" fill="currentColor" data-name="fish" style="color:#212529" viewBox="0 0 512 512"><style>@media (prefers-color-scheme:dark){:root{color:#f8fafc}}</style><path d="M309.8 115.2c8.5 3.4 11.9 17.6 14.4 25.6l.5 1.7.9 3.9q.4 3 1.2 5.9a84 84 0 0 1 1.6 11.3q.4 3.5.5 7c0 2.4 0 2.4.4 3.5v2.9l.2 4.5c.1.9.1.9.7 1.9l2.4.7a55 55 0 0 1 9.7 3.8q6 3 12 6.7l1 .6q7.1 4.6 13.7 10.2l.9.8 4.7 4 1.8 1.6q3 2.8 6 5.8l1.2 1.2q3 3 5.5 6.2l1.6 1.5q2.3 2.4 4.2 4.9l4.3 5 3.3 4.2 2.4 3.3q3 4 5.7 8.3l1 1.4c0 .2 0 .2.8 1.3l.8 1.2c.8 1.6.6 2.7-.1 4.2l-.6.8-3 4.7-.9 1.5-.4.7-2.4 3.9-.8 1.3-1.8 2.7c-.6 1.2-.6 1.2-.3 2.8l2 1 1.4.5 1.4.5 5.1 1.9 1 .3 1.9 1c.4 1.9-.1 2.3-1.3 3.8l-2 3a119 119 0 0 1-11 15q-6.9 8.9-14.9 16.6l-1.1 1.2a73 73 0 0 1-6.8 6.1l-1.4 1a48 48 0 0 1-29 12.2H347q-3 0-6-.7c-2.2-.2-3.6.4-5.6 1.4a25 25 0 0 1-8.8 2.9c-1 .2-1 .2-1.9 1.1l-1.5 4.1-.7 2.2q-3.8 11.8-8.7 23.2l-.4.8c-3 6.9-6.3 13.3-12 18.4h-1c-.6-1.2-.4-2.4-.4-3.6v-23.7c.1-11 .1-11-.9-16.3v-.6l-1-.1q-3.1-.4-6.4-1.2l-2.1-.3q-3.8-.5-7.4-1.3l-4.7-.7q-4-.7-7.8-1.7-3.3-.9-6.6-1.4L259 344l-1.8-.4q-4.6-1.1-8.7-3c-1-.4-1-.4-2.3-.1l-1 1.8-.6 1.1-.6 1.3-.6 1.2-3.1 6.4-.6 1.1-2.3 4.7-2 4-1.3 2.5-.6 1.3q-1.4 3-3.3 6l-.9 1.7q-2 3.8-4.2 7.5l-.6 1a41 41 0 0 1-8 9c-1.6 1.5-1.6 1.5-2.6 1.9-.4-1.5-.2-2 .2-3.3l.5-1.4.2-.8 1.1-3.4 1.7-5.2.4-1.2.9-2.7q.6-1.6.8-3.3l1-4.6a92 92 0 0 0 1.7-11c.1-1.2.1-1.2.4-2.2.5-9.6.4-19.3-6.3-27-2.5-3-3.8-7.2-5.3-10.8-.5-1.2-.5-1.2-1.5-1.5l-.9 1.2c-1 1.3-1 1.3-2 1.6q-2.2-2.7-3.5-6.1c-1.2-2.5-1.2-2.5-2.6-2.8l-.5 1c-.7.9-.7.9-2 1.2q-1.1-1.7-1.8-3.8a22 22 0 0 0-1.7-4.2h-.7l-1.4 2.5c-.5.7-.5.7-1.8.7l-3.5-10.5c-1.3 0-1.3 0-2 1l-.9.9c-1.6-.3-1.6-.3-2-1l-.4-1-.5-.9-.4-1-.4-1-1-2.5c-1 0-1 0-2 1.3-1.7-.4-1.7-1-2.4-2.5l-.5-1.3-.6-1.3-1.6-3.5c-1.6.3-1.6.3-2.5 1.1l-.7.8c-2.5-.7-4-4.2-5.3-6.4-.8-1.1-1.6-1-3-1-2.4 0-3.9.8-5.8 2.3h-.6l-.7 1.6-1.4 2q-1.7 2.8-2.7 6l-2.5 6.6-1.7 4.1-.6 1.4-1 2.7-3 6.9-1.7 3.9a134 134 0 0 1-8.1 16.7 46 46 0 0 1-4.3 7.2q-2.5 4.3-6 7.7l-.6.7q-1.4 1.8-3.5 2.5l-1 .4c-2 .5-3.6-.2-5.4-1-1.4-2.2.6-6.4 1.2-8.9q1.9-7 3.5-14l1.2-4.7 1.8-8.3 1-4.3q1.6-6.7 2.8-13.6l.2-1.2c2.4-12.7 2.4-12.7 2.4-18.7v-1.3q0-5.7-1-11.3l-.6-5.7c0-1.1 0-1.1-.3-2v-4.6c0-2.4 0-2.4.3-3.5 1.3-10-1.9-20.7-4.8-30.3l-.8-2.9q-1.8-7-4.3-14l-1.5-4.7a282 282 0 0 0-12.7-33.2l-2.1-4.8q-.5-1.4-.4-2.9c4.3-.8 8.7 1.7 11.7 4.4q2.6 2.4 4.6 5.2l.7 1a63 63 0 0 1 5.6 8.3q4.3 7 7.8 14.4l.6 1.2 2.7 5.2 5.5 11.7q1.5 3.8 3.4 7.4l3.4 7.2q2.1 4.8 4.6 9.5l.4.8 1.2 2.5.8 1.4q1 2 2.4 3.7v.6c1.9.6 3-.1 4.8-1h.6l.7-1.2 3.5.6 1-3.8q.5 0 1 .2c1.2 0 1.2 0 1.5-.2l.1-1.2.2-1c1.3-.5 1.7 0 3 .5l1 .6.8.4.1-.8.2-1 .2-1c.2-1 .2-1 .8-2 1.6.3 1.6.3 3 1 1.2.6 1.2.6 2.1.3l.7-3.2.6-3.2c1-.3 1-.3 2 .3l1.5 1.3h1.3l.4-1.3c1-2.9 1-2.9 1.5-3.8 2-.4 2.7.1 4.5 1 1.3-.4 1.3-.4 1.8-1.5l.5-1.3c1.1-3.4 1.1-3.4 1.9-4.6q1.5-.4 3.2-.3c1.2 0 1.4-.4 2.2-1.3l.8-1.7.4-1 .5-.9.4-1 1.1-2.5c2 .2 3 .8 4.5 2l1.3.3.6-1.6 1.3-2.6.7-1.4c.6-1.1.6-1.1 1.2-1.8q2.6.9 5 2.4c1 .5 1 .5 2.4.2l1.5-2.7c1.3-2.8 1.3-2.8 1.7-3 2 0 3.4 1 5 2 1.2.5 1.7.7 3 .5l1.2-2 1.4-2 .7-1 .8-1.1 1 .1c3 .3 3 .3 4.3-.9 2.5-4 3.2-7.7 2-12.2l-.5-3.3q-.7-5.3-4.2-9.3l-.1-1a7 7 0 0 0-1.6-3.4l-.9-1.3-4-5.3c-2.7-3.7-2.7-3.7-2.7-5 5.3-2.6 14.2.8 18.9 3.2l3.2 2.2.9.6q6.3 4.7 10.6 11.3l.8 1.1 3.2 5.2.8 1.4h1l.6-1.3c1.6-1.7 3.3-2.5 5.4-3.3l4.3-1.9 3.9-1.7c13.1-5.8 25.2-16.6 28.3-31.2l.5-4.5.5-2.2V126c0-1 0-1-.3-2.6l-.2-4-.1-1.2c0-2.7 0-2.7.3-3.1m5 18.9q-.9 2.2-1.2 4.5-.5 3.2-1.6 6.4l-.5 1.4q-1.5 4.7-4.3 8.8l-1.1 1.8a53 53 0 0 1-24.3 19.6l-3 1.5q-3 1.4-6 2.3c-3.1 1.5-3.1 1.5-3.7 3.4q0 1.9.4 3.7.6 2.8.9 5.7.1 2.5 1.3 4.9c1.4.3 1.8.2 3.1-.3q5-1.4 10.2-1.5l3-.5q3.4-.4 7-.2h1.2q4.6.2 9 1.2l1.3.3 3.6 1 1.2.3q4.5 1.5 8.7 3.8l1 .5a45 45 0 0 1 9.2 6.6l.9.7 2.3 2.2 1.4 1c1.8 1.7 2.4 2.6 2.2 5l-.4.7c-1.4-.4-1.8-.8-2.9-1.8a54 54 0 0 0-13-9.7l-2.2-1.1-2.3-1.2-1-.5a60 60 0 0 0-37.6-2.7l-1.2.2-1 .3-1 .2c-.8.3-.8.3-2 1.2v1l-1.4-.6c-5.7.3-11.9 4.2-17 6.7l-2.2 1.1q-5.6 2.8-11 5.8l-6.2 3q-2.5 1.2-4.9 2.7-3.1 1.8-6.5 3.4l-8.5 4.5q-9.7 5.3-19.5 10.2l-2.6 1.3-11.5 5.7-2.4 1.3q-10.2 5.2-21 9l-1.4.5c-10.5 3.6-10.5 3.6-15.8 3.6h-1c-2.7.1-5.8 0-8-1.9-.3-1.6-.3-1.6 0-2.5l1.7.4 1 .3 1.8.5c11.2.7 22.8-4.2 32.6-9.2-.3-2-1.1-2.8-2.5-4.2l-1.3-.3c-.9.8-1 1.7-1.3 2.9-1.4-.1-1.9-.4-3-1.4s-1.1-.9-2.7-.9c-.8.8-.8.8-1.3 1.6l.8.4c.8.6.8.6 1 1.5-.3 1.4-1 1.6-2.1 2.3-9 2.6-18.5-.3-26-5.6-1-.5-1-.5-2.2-.5q-.6 1.4-.4 2.8v4.2q0 4.8.7 9.5l.2 1 .5 2.7a47 47 0 0 1-.4 17.6l-.2 2.5-.5 3.4-.3 1.5-.2 1.5-.3 1.6q-2 10.5-4.3 21l-.7 3.1-2.2 9.4-.4 1.5-.9 3.2-.3 1.4-.4 1.3c-.1 1-.1 1 .5 2.3 5.2-5.1 8.4-11.6 11.7-18l1.2-2.2a156 156 0 0 0 6.2-13.6q1.7-3.8 3.2-7.8l3.8-9.4 1.3-3.2c2.5-6.2 5.2-12.8 11.6-15.9 2.6-.5 5.8-.9 8 .7q1.5 1.7 2.6 3.5l.6 1c1.7-.4 1.9-.5 3-1.7l1.2-1.2c1.6.5 1.8 2 2.4 3.5l.4.9 1 2.3.4.6c1.2-.3 1.2-.3 2.2-1.6 1.5.6 1.8 2 2.4 3.5l.4.9 1.7 4 1 .6q1.2-1.1 2-2.5l.5-.7h1.3l3.2 9.3c1.6-.4 2.1-1.3 3.2-2.6 1 .5 1.1 1.5 1.5 2.6l.6 1.3 1 3c.4 1.1.4 1.1 1.7 1.8l.7-1c.9-1 .9-1 1.8-1l.7 1.6 2.2 4.8.5 1 .4.9c.4.7.4.7 1 1.3 2.1-.4 2.4-1.2 3.6-2.8l1-.4q.2.9.6 1.6 2.9 4.2 6.9 7.2l2.1 1.7q5.3 4.2 11 7.9l2.2 1.5 4.7 3.2.8.6 3 1.8q2 1.1 3.8 2.6c6.5 4.6 16 6 23.6 7.7l1.3.3q3.6.8 7.3 1.2l3.4.8q3.9 1 7.8 1.4l2.4.5h2.9q-.4-2.6-1.6-5l-.4-2a46 46 0 0 1 17.3-4.5q.4 3 .5 5.8l.1 1.6v1.3c1.8-.4 2-.6 3.2-1.8l3-3c1.4-1.1 2.1-2.3 3.1-3.9l1-1q-.4 2.7-1.2 5.2-.9 2.8-1.5 5.6-1.5 6.9-3.4 13.6-.4 1.5-.3 3.2c2.4-3.3 3.4-7.9 4.7-11.6l.5-1.4q1.1-3 1.9-6.3.8-2.6 1.8-5.3l.3-1.1 1-2.8c1.8.4 2.4 1.6 3.2 3.2q.5 2.1 0 4.2c.7.6 1.7.3 2.6.3l2.7-1.2 1.3-.7c1.1-.7 1.1-.7 1.4-1.6l-.8-3.2q-1.5-5.4-2.4-11l-.2-1.5-1-7.3q-.4-2.5-1-5.2-1-4.3-.7-8.8v-1.5c0-3.6 0-3.6.4-4.7q0-1.5.3-2.8.4-4.4 1.3-8.8l.2-1.3 1.4-6.4q.8-2.9.9-5.8c0-.9 0-.9.4-1.8l.1-2.7.1-1.6v-1.6l.2-3.3.1-1.5c.1-1.2.1-1.2.4-2.1l.2-3.1v-1.7l.1-1.3 1-.3-.3 12.7v5.7q0 5.7-1.5 11.3-1.6 6-2.2 12.2l-.5 2c-.6 5.6-.9 11.7.4 17.3q.4 2 .6 4 .2 2.3.6 4.4.4 2 .6 4 .6 4.5 1.7 9l.2 1.2c1 4.3 1 4.3 2.8 5.2a24 24 0 0 0 16.2.3l1-.3c7-2 13.6-6.4 19.1-11l.9-.6a104 104 0 0 0 12.6-11.8l2-2.3 1.7-1.8q2.5-2.6 4.6-5.6 1.3-1.8 2.7-3.4c.5-.7.5-.7.2-1.6h-4.5c-2.4 0-3.5-.1-5-2-.8-1-.8-1-2-1.2q-3.6 1.6-6.1 4.4l-.9.8q-3.8 3.9-6.8 8.5l-1.5 2-.5.8c-3.1 4.1-7.2 6.7-12.5 6.6q-3.4-.6-5.7-3.6-.9-1.7-1.3-3.5l-.2-1c-1.6-5.7-1.1-12.1-1.1-18V280q0-3.7.7-7.4l.3-1.6c1.1-5.3 3.3-11 7.7-14.4l1.3.4c0 2.2-1 2.9-2.6 4.4q-2.4 3.6-3.8 7.7l-.4 1.2c-1.6 5.1-1.4 10.3-1.3 15.6v9.2c0 .9 0 .9.4 1.9l.1 2.2c.2 3.1.7 6.4 3.1 8.6 2.6 1.6 5.3 1.3 8 .5 3.6-1.8 5.9-4.4 8.1-7.6q3.3-4.6 7.3-8.5l1-1.2a14 14 0 0 1 3.6-2.4l2.4-1.2 1-.5c1-.8 1-2 1.2-3.2.7-2.3 2.2-4.3 3.6-6.3l1.6-2.4.8-1.2a85 85 0 0 0 4.3-7.2l3.4-5.4c1-1.6 1.6-2.4 1-4.2q-1-1.7-2.2-3.2l-.9-1.3-2-2.6-2.4-3.3a148 148 0 0 0-13-14.9q-1.5-1.5-2.8-3.4a22 22 0 0 0-5.8-5.3l-1.6-1.9-1.7-1.5-3-2.7a80 80 0 0 0-6.5-5.4l-1.2-1a114 114 0 0 0-23.7-14.3l-1.6-.7a60 60 0 0 0-10-3.2l-2.5-.6v-1.4c-.2-15.2-.2-15.2-.6-20.8l-1-8.2-.2-1-.3-1.8-.3-2.3c-1-7.2-2.9-16-6.9-22.1zm-71.3 30.7c.3 1.3.3 1.3 1.6 2.2l1.3.4c0-1.4-.6-1.7-1.6-2.6zm2.3 8c0 1.5.1 2 1.2 3.2l1.8 1q3.5 2.1 6.2 5l.7-.2c-8.4-10.5-8.4-10.5-10-9m-133.5 6.4 1 3.2.2.9 2.5 7.5c1.7 5.2 1.7 5.2 3.7 6.6l.9 1.7.5 1 .5 1.2 1.2 2.3q2.2 4.5 4.1 9.2l2 4.5.7 1.5a20 20 0 0 0 2.2 3.6h.4q-.4-2.7-1.5-5.1l-2.4-5.6-3.1-7.6-.8-2c-3.4-8-3.4-8-5.4-11.8q-1.4-2.7-2.6-5.4-.7-1.6-1.8-3.1l-.5-1c-.5-1-.5-1-1.8-1.6m134.7 2v1.2l2 .3c-.7-1.3-.7-1.3-2-1.6m12.8 7 .5 1.3.8 2.5-.6-.4-1-.5-.7-.5-2.2-1.2.4 2-5.8-1.6c.6 1.2.6 1.2 1.6 2.6 1 1.2 1 1.2 1 2.2-2.3.2-4-.5-6-1.3-1-.3-1-.3-2.7 0l-1.4 2.3c-3 5.8-3 5.8-5 6.3h-1.6c-2 0-2.3.5-3.4 2.1l-.5 1c-1.8 2.8-1.8 2.8-2.8 3.6-2 0-3.6-1.1-5.4-2.1-1-.4-1-.4-2.3.2l-2.1 4.3c-.8 1.2-.8 1.2-2.4 1.5l-2-1.3c-2-1.3-2-1.3-3.7-1.3-.5.6-.5.6-1 1.6l-.7 1.4-.8 1.4-.8 1.5-.6 1.2c-1.3-.2-1.9-.4-3-1.2s-1.1-.8-2.7-.4a22 22 0 0 0-2 4.4c-.6 1.6-.6 1.6-1.2 2.3h-3c-.9 0-.9 0-1.8.6l-.8 1.7-.3 1-.4 1-.4 1c-1 2.6-1 2.6-1 3.3q-2-.1-3.8-1c-1.6.4-1.6.4-2.2 1.7l-.5 1.5-.5 1.6-.4 1.3q0 .4-.3.7c-1.3-.3-1.3-.3-2.5-1.3h-1.3a23 23 0 0 0-1 5.1c-1.7.4-2.3-.2-3.8-1-1.3.4-1.3.4-1.6.7l-.4 2.3-.1 1.2-.2 1c-1.6-.3-1.6-.3-2.5-1h-1q-.6 1.5-.4 3v1.4c.1 1 .1 1 1 1.7 3.3-1 6.3-2.8 9.3-4.4l3.6-1.9q3.8-1.8 7.5-3.8l1.2-.6 6.7-3.5 3.4-1.9 8.1-4.3 5.7-3q.4-.4 1-.6l3.8-2.1 3-1.6.9-.5 6.5-3.6 9.4-5 3.9-2a156 156 0 0 1 12.6-6.3 99 99 0 0 1 11.4-4.8c.3-.3.3-.3.2-1.3a23 23 0 0 0-1.3-4.1l-.6-1.5q-.8-2-1.8-4l-1.3.3.3 3.2-.6-.7-.7-1-.8-1c-.8-.8-.8-.8-2-1.4m-137.2 21.7c-.6 1.6 0 3 .5 4.6l.3 1c.4 1.8.8 3 2 4.3l1.6 2.4c0 .2 0 .2.7 1.2l.6 1c.4-1.6.2-1.9-.3-3.2l-.5-1.2-2.4-5.7-.6-1.1-.5-1.2-.4-1c-.4-.8-.4-.8-1-1m9.6 12.8c.5 2.5.5 2.5 1.2 2.9-.2-2.2-.2-2.2-1.2-2.9m1.6 3.5q0 .6.3 1v-1zm1 2 .2.6Zm-8 .3c-.2 2-.2 2 .5 3 .7.5.7.5 1.3.5-.1-1.6-.2-2.2-1.2-3.5zm14 3.8.3.7Zm.3.7.3.6Zm.3.6c1 3.9 3 7.4 4.8 10.9l.6 1c1.2 2.4 1.2 2.4 2.3 3.1h1.6a6 6 0 0 0-1.6-2.9 44 44 0 0 1-5.8-9.3l-1.5-2.8zm-13 5.4c-.4 1.8-.4 2.2.6 3.6l1.9.6c-.1-1.8-.8-2.8-2-4.2zm265.5 47.4c.3 1.6.3 1.6 1 2 3 0 3 0 4.1-1l-1.5-.8-.8-.5q-1.6-.9-2.8.3m-164.5 43.8c-2.5 1.4-2.5 1.4-2.8 2.9v1c1.2 0 1.2 0 2.3-1.4.9-1.5.9-1.5.5-2.5m9.6 6.8-2 3.4q-3.4 6.5-7.6 12.6c-1.7 2.5-2.3 3.9-2.2 7l.6.6q1.6-1.7 2.5-3.8l.6-1.4.8-1.5q2.8-5.8 6-11.5l1-1.6 1.4-2.5c.5-1 .5-1 .5-2.3-1 0-1 0-1.6 1m-11.5 1.2c-.3 1.6-.3 1.6 0 2.3 1.8-.5 2-1.3 2.9-2.9v-1c-1.4 0-1.9.7-2.9 1.6m79 1.7-1.5.5c-1.3.4-1.3.4-2.6 1.4q.2 3 1.3 5.7c1.3 0 1.3 0 2.1-1q-.1-.1.5-.7 1-1.5 2-2.6 1.6-1.8 2.7-3.7c-1.8-.3-2.7 0-4.5.4m-76.3 2.8-1 1.1c-1.5 1.6-1.8 2.6-1.7 4.7l.3.6c1.4-.7 1.6-1 2.3-2.2l.5-1 .5-1 .5-.9c1.4-2.4 1.4-2.4 1.4-3.5-1.3 0-2 1.3-2.8 2.2m76 7.4c-1.5 1-1.5 1-1.7 2.3l.1.9h1l1.3-2.6zm-1.2 7a4 4 0 0 0 0 2.9c1.5-.8 1.5-1 1.9-2.6v-1.6c-1 0-1.3.6-2 1.3m.3 6.4c-.6 1.2-.4 2.6-.4 3.9v9c0 2.1 0 2.1.4 2.8 1-.3 1-.3 1.6-1.6l.4-2 .3-1.2.2-1.2.6-2.4q0-.6.2-1.1l.6-2.5c.2-1.1.2-1.1 0-2.7l-.8.7-1.2 1.2v-4.8c-.7 0-1.5 1.4-2 2"/><path d="M384 247.4c2.8 2.6 2.8 7.3 2.4 10.8a8 8 0 0 1-3.4 5.5c-1.6 0-2.5-.3-3.5-1.6v-.7h-.6c.7 4 .7 4 2.5 4.8 1.8.2 3 .1 4.5-1 .7-1.3.7-1.3 1.3-3 1.3-3.4 1.3-3.4 2.9-4.3q2.9-.2 5.4 1l.7 1c-1.1 1-2.6 1-4.1 1.2-1.5.5-1.9 1.3-2.4 2.7l-.4 1.2c-.6 2.1-1.3 3.5-2.7 5l-.7.9a7 7 0 0 1-4.8.5c-3-2-4.3-4.9-4.8-8.4v-7.4c.8-3.5 3.4-9.9 7.7-8.2m-3.8 3.5-.4 2.2c.7 0 .7 0 1.6-1.3 1 0 1 0 2 .4.9 2.3.9 4 0 6.4q-.9 0-1.6.3c-1-1-1-1-1.6-2-.7 1.3-.7 1.3-.3 2.5.6 1 .6 1 1.9 2 .9.1.9.1 1.9-.3q2.8-4.3 1.3-9.3c-.6-1.4-.9-1.8-2.3-2.5-1.4 0-1.7.5-2.5 1.6M322.2 257.3c1.6.3 1.6.3 2 .6.1 2 0 3.3-1.3 4.8-3.2 2-6.9 2.4-10.5 2.8q-3.2.3-6.5 1l-1.8.3c-4.7.7-9.5 2.2-13.5 4.9.3 1.4.5 1.6 1.6 2.5l.8.6q-.2.1.8.7l3.2 3c4.2 3.8 11 9.5 17 9.8 1.3-.5 1.4-1.2 2-2.6l.5-1.4 1.6-4q1.3-3.7 3.8-6.7c1.3-.3 1.3-.3 2.6-.3 1.2 1.2 1.1 1.8 1 3.5-1 1.3-1 1.3-2 1.7-1.4.8-1.7 1.8-2.3 3.2l-.4.9q-1.7 3.7-3 7.5c-.7 1.4-1.2 2.5-2.3 3.7-6.8 1.2-15.1-6.8-19.8-11l-1.2-1-3.2-2.8a21 21 0 0 0-5-3.7c-.9-.4-.9-.4-1.5-1.7.2-3.4 2.5-5.6 5.2-7.4q4.3-2.3 8.9-3.5l.9-.3q2.2-.7 4.6-1l1-.1 2.8-.5 1.1-.2 1.8-.3.9-.1 1.3-.3c7.6-1.2 7.6-1.2 9-2.6"/></svg>