<svg xmlns="http://www.w3.org/2000/svg" viewBox="0 0 512 512" fill="currentColor" width="512" height="512" data-name="umbrella">
  <style>:root{color:#212529;}@media(prefers-color-scheme:dark){:root{color:#f8fafc;}}</style>
  <g transform="scale(0.32000)">
    <path d="M0 0 C1.3 0 2.6 0 4 0 C5.4 0 6.8 0 8.3 0 C9.7 0 11.2 0 12.7 0 C15.8 0 18.9 0 22 0 C26.7 0 31.4 0 36.1 0 C39.1 0 42.1 0 45.1 0 C46.5 0 47.9 0 49.4 0 C56.8 0 63.5 0.5 70.7 2.3 C79.8 3.9 88.6 4.6 97.9 4.8 C107.7 5 117.3 5.6 127.1 6.9 C130.7 7.3 130.7 7.3 134.2 7.2 C138.2 7.3 141.6 8.1 145.5 9.2 C153.1 11.1 160.2 11.8 168 11.9 C171.9 12.3 174.2 13.4 177.7 15.3 C181.3 16.2 184.4 16.5 188.1 16.6 C197.3 17.3 205.7 18.5 213.7 23.3 C215.3 23.4 216.9 23.5 218.5 23.7 C223.9 24.3 226.2 25.6 230.7 28.3 C232.4 28.6 234.2 29 236 29.3 C240.7 30.3 240.7 30.3 242.7 33.3 C243.2 37.6 243 39.7 240.8 43.5 C234.5 49 227.2 49.4 219.2 50.1 C209.4 51 200.8 53.9 191.7 57.3 C185.3 59.4 179 61.2 172.4 62.6 C161.9 65 151.6 68.1 142.7 74.3 C139.7 75.3 136.7 76.3 133.7 77.3 C131.3 78.1 128.9 78.9 126.5 79.7 C125.3 80.1 124.2 80.5 123 80.9 C119.5 82.3 116.8 84.2 113.7 86.3 C112.3 86.7 111 87.1 109.6 87.5 C104.2 89.4 99.8 92.1 95 95.1 C91.9 97.1 88.7 99 85.5 100.8 C80 104 74.8 107.6 69.7 111.3 C68.6 111.9 67.6 112.6 66.5 113.3 C64.3 114.8 62.1 116.4 59.9 118.1 C56.9 120.4 53.8 122.5 50.7 124.6 C45.8 128 41.8 132 37.7 136.3 C37.2 136.6 37.2 136.6 34.7 138.2 C31.1 140.7 28.5 143.7 25.7 147 C22.9 150.1 19.8 152.6 16.7 155.3 C15.3 156.9 14 158.6 12.7 160.3 C12.2 160.6 12.2 160.6 9.8 162.6 C5 166.7 1.6 171.5 -1.3 177 C-3.3 180.3 -3.3 180.3 -6.3 182.1 C-10.7 185.2 -11.4 189.3 -13.3 194.3 C-15.3 196.6 -17.3 199 -19.3 201.3 C-21.6 205.1 -23.7 209 -25.7 213.1 C-27.5 216.6 -29.4 220 -31.3 223.4 C-34 228.6 -36.4 233.6 -38.3 239.2 C-39.7 243.4 -41.3 247.5 -42.9 251.6 C-43.5 253.1 -44.1 254.7 -44.6 256.2 C-47.2 262.4 -49.1 265.8 -55.3 268.3 C-56.5 268.5 -57.6 268.7 -58.8 268.9 C-63.1 270.2 -66 271.7 -69.8 274.1 C-75.1 277.2 -79.9 279.2 -85.9 280.8 C-93 282.7 -98.4 285.4 -104.5 289.4 C-108.2 291.8 -112.2 293.5 -116.3 295.3 C-119 296.9 -121.7 298.6 -124.3 300.3 C-125.4 300.7 -126.5 301.2 -127.6 301.6 C-132.1 303.6 -136.1 306 -140.3 308.5 C-142.9 310 -145.7 311.4 -148.5 312.8 C-153.8 315.5 -158.5 318.7 -163.3 322.3 C-168.1 325.7 -172.9 329 -178 332 C-187.1 337.4 -196 343.6 -203.3 351.3 C-206.3 354.3 -206.3 354.3 -209 356 C-213.3 358.9 -217.3 362.1 -221.3 365.3 C-221.7 365.6 -221.7 365.6 -223.8 367.2 C-229 371.3 -234.1 375.6 -239 380.2 C-240.6 381.6 -242.3 383 -244 384.3 C-246.3 386.3 -246.3 386.3 -248.1 389.1 C-251.1 393.4 -255.2 396 -259.3 399.3 C-262.3 404.3 -262.3 404.3 -261.3 409.3 C-259.1 411.3 -256.8 413.3 -254.5 415.2 C-252.3 417.3 -252.3 417.3 -250.3 422.3 C-249 422.9 -247.7 423.6 -246.3 424.3 C-244.9 425.8 -243.4 427.3 -242.1 428.9 C-238.1 433.5 -233.9 437.3 -229.3 441.3 C-228 442.9 -226.7 444.6 -225.3 446.3 C-224.1 447.4 -222.8 448.4 -221.5 449.6 C-217.3 453.3 -217.3 453.3 -214.3 457.4 C-211.3 461.3 -208.3 463.4 -204.3 466.3 C-203.7 467.9 -203 469.6 -202.3 471.3 C-199.7 473.6 -197 476 -194.3 478.3 C-193 479.9 -191.7 481.6 -190.3 483.3 C-189.2 484.2 -188.1 485.2 -186.9 486.2 C-181.3 491 -176.2 496.3 -171 501.5 C-170.5 502 -170.5 502 -168 504.5 C-166.2 506.3 -164.4 508.2 -162.6 510 C-159.5 513.1 -157.3 515.3 -153.3 517.3 C-151.6 519.5 -151.6 519.5 -149.8 522.1 C-147.5 525.7 -145.4 528.2 -142.3 531.3 C-141 532.6 -139.7 533.9 -138.3 535.3 C-137.1 536.4 -135.8 537.4 -134.5 538.6 C-124.5 547.4 -124.5 547.4 -121.4 552.3 C-118.7 556.2 -115.1 558.4 -111.3 561.3 C-109.3 563.5 -107.3 565.9 -105.3 568.3 C-104.1 569.6 -102.9 571 -101.7 572.4 C-99.8 574.5 -98 576.7 -96.2 578.9 C-94.3 581.3 -94.3 581.3 -91.6 583.9 C-89.3 586.3 -89.3 586.3 -88.3 589.3 C-87 589.9 -85.7 590.6 -84.3 591.3 C-84 592.2 -83.7 593.2 -83.3 594.3 C-81.7 594.9 -80 595.6 -78.3 596.3 C-76.1 598.5 -76.1 598.5 -73.8 601.1 C-70.9 604.6 -67.9 607.4 -64.3 610.3 C-63.2 611.5 -62.1 612.8 -61 614.1 C-57.3 618.3 -57.3 618.3 -53.3 621.8 C-49.3 625.3 -46.5 629 -43.3 633.3 C-40.7 635.6 -38 638 -35.3 640.3 C-33.7 641.9 -32 643.6 -30.3 645.3 C-29.8 645.7 -29.8 645.7 -26.9 648.1 C-23.1 651.5 -20.4 655.2 -17.3 659.3 C-15 661.3 -12.7 663.3 -10.3 665.3 C-8.7 667.3 -7 669.3 -5.3 671.3 C-4.3 672.1 -3.3 672.9 -2.2 673.8 C0.7 676.3 0.7 676.3 1.9 679.1 C4.1 683 7.1 685 10.6 687.7 C15.7 692 20 696.9 24.5 701.8 C26.4 703.8 28.3 705.9 30.3 707.9 C33.7 711.3 36.9 715 40.1 718.6 C42.7 721.3 42.7 721.3 45.7 723.3 C48.9 725.4 50.9 727.7 53.3 730.8 C56 734.2 58.6 737.2 61.7 740.3 C70.7 749.3 70.7 749.3 73.2 752.1 C75.7 754.3 75.7 754.3 80.7 753.3 C81.7 752.6 82.6 751.9 83.7 751.3 C90.8 751.5 94 753.9 98.1 759.6 C102.8 765.7 108.1 771 113.6 776.4 C114.7 777.5 115.7 778.6 116.8 779.7 C121.9 784.7 126.8 789.2 132.7 793.3 C134.4 797.3 134.7 799.8 134.4 804.2 C135 812.9 143.1 817.5 149.7 822.3 C151.4 823.9 153 825.6 154.7 827.3 C157.3 829.5 159.5 831.2 162.7 832.7 C165.7 834.3 165.7 834.3 167.9 836.6 C173 841.5 179.4 844.1 185.7 847.3 C186.8 847.8 188 848.4 189.2 849 C201.8 855.2 211.1 856 224.7 851.3 C228.5 848.3 228.5 848.3 231.7 845.3 C232.5 844.6 233.4 843.9 234.3 843.3 C244.6 834.6 247.5 824.9 247.1 811.9 C247.1 810.8 247.1 809.6 247.1 808.5 C246.9 794.7 240.7 785.1 231.7 775.3 C231.7 774.6 231.7 773.9 231.7 773.3 C230 772.6 228.4 771.9 226.7 771.3 C224.6 768.2 224.6 768.2 222.8 764.6 C222.2 763.4 221.6 762.2 220.9 760.9 C218.5 753.8 221 745.7 224.7 739.3 C231.5 732.5 237.3 729.8 246.9 730.8 C256.6 732.7 263.4 738 268.7 746.3 C269.5 746.9 270.2 747.5 271 748.1 C278 753.8 283.4 762 286.7 770.3 C287.7 771.6 288.6 772.9 289.7 774.3 C289.7 774.8 289.7 774.8 290 777.4 C290.2 778.3 290.5 779.3 290.7 780.3 C292.3 780.9 294 781.6 295.7 782.3 C298.1 784.7 296.9 792 296.9 795.5 C296.9 796.7 296.9 798 296.9 799.2 C296.9 801.9 297 804.5 297 807.1 C297 811.1 297 815.1 297.1 819.1 C297.1 821.7 297.1 824.2 297.1 826.8 C297.1 828 297.1 829.2 297.1 830.4 C297.1 838.9 297.1 838.9 292.7 842.3 C292 842.3 291.3 842.3 290.7 842.3 C290.4 843.1 290.1 844 289.9 844.9 C288.7 848.2 287.3 850.7 285.4 853.6 C283.1 857 281.2 860.2 279.4 863.8 C275.9 869.5 271.5 873.7 266.7 878.3 C265 879.9 263.3 881.6 261.7 883.3 C256.7 888 252 890.6 245.7 893.3 C244 894.2 242.4 895.2 240.7 896.3 C236.3 898.9 233.8 899.9 229 900.9 C222.8 902.2 222.8 902.2 220.7 903.3 C207 904.2 192.6 903.3 180.7 896.3 C179.3 896.1 177.9 895.9 176.5 895.8 C172.1 895.2 171 894 167.7 891.3 C166.5 891 165.3 890.8 164.1 890.5 C158.8 889 155.2 886.5 150.7 883.4 C147.9 881.4 145 879.6 142.1 877.8 C133.4 872.2 125.4 866.1 117.7 859.3 C116.7 858.6 115.7 858 114.7 857.4 C111.2 854.9 108.4 851.9 105.4 848.8 C99.3 843 92.5 837.8 85.5 833.2 C81.8 830.7 79.4 827.7 76.7 824.3 C76.7 823.6 76.7 822.9 76.7 822.3 C75.8 822 74.9 821.8 74 821.6 C70.2 820.1 68.4 818.3 65.6 815.4 C63.1 812.8 60.8 810.4 58 808.1 C55.1 805.8 53.6 803.3 51.7 800.3 C50.6 799.1 49.5 798 48.4 796.8 C45.2 792.6 45.1 791.2 46.7 786.3 C47.3 785.3 48 784.3 48.7 783.3 C46.7 775.3 41.8 771.4 35.7 766.3 C28.6 759.9 21.9 753.5 15.7 746.3 C6.5 736.7 6.5 736.7 2 733.2 C-2.9 729.2 -6.7 724.1 -10.4 719 C-13.3 715.4 -15.5 713.8 -19.3 711.3 C-22.1 708.4 -24.7 705.3 -27.3 702.3 C-28.7 700.9 -30 699.6 -31.3 698.3 C-32.1 697.3 -32.9 696.3 -33.7 695.3 C-36.3 692.3 -36.3 692.3 -39.2 690.4 C-43.3 687.6 -46.1 684.1 -49.3 680.3 C-50.5 678.9 -51.7 677.6 -52.9 676.2 C-55.1 673.7 -57.2 671.2 -59.3 668.7 C-62.3 665.3 -62.3 665.3 -65.8 662.2 C-69.9 658.6 -73.9 654.9 -77.8 651.1 C-79 649.9 -80.2 648.7 -81.5 647.5 C-84.3 644.3 -84.3 644.3 -85.3 640.3 C-87 639.6 -88.6 638.9 -90.3 638.3 C-92.8 636.2 -92.8 636.2 -95.4 633.6 C-96.3 632.7 -97.2 631.8 -98.2 630.8 C-98.7 630.3 -98.7 630.3 -101.1 627.9 C-102.1 626.9 -103 626 -104 625 C-104.9 624.1 -105.9 623.1 -106.8 622.2 C-107.7 621.3 -108.5 620.5 -109.4 619.6 C-111.3 617.3 -111.3 617.3 -112.3 613.3 C-113.7 612.6 -115 611.9 -116.3 611.3 C-119.7 607.8 -122.8 604.2 -126 600.6 C-129.3 597.3 -129.3 597.3 -132.3 595.4 C-135.7 593 -137.7 590.2 -140.2 586.9 C-144.7 581.4 -149.9 576.5 -155 571.5 C-155.5 571 -155.5 571 -158.3 568.1 C-160.4 566.1 -162.5 564 -164.6 562 C-166.3 560.2 -168.1 558.5 -169.9 556.7 C-172.4 554.2 -174.9 551.7 -177.5 549.2 C-179.4 547.3 -181.4 545.4 -183.3 543.4 C-184.3 542.5 -185.3 541.5 -186.3 540.5 C-191.5 535.4 -195.6 530.6 -199.3 524.3 C-202 522.2 -204.6 520.2 -207.3 518.3 C-209.7 515.6 -212.1 513 -214.3 510.3 C-215.7 508.9 -217 507.6 -218.3 506.3 C-218.7 505.8 -218.7 505.8 -220.7 503.3 C-223.3 500.3 -223.3 500.3 -226.4 498.3 C-229.3 496.3 -229.3 496.3 -231.1 493.5 C-233.7 489.7 -237 487.3 -240.7 484.5 C-243.4 482.2 -245.4 479.9 -247.5 477.2 C-255.3 467.3 -264.1 458.5 -274.3 451.3 C-276.4 448.6 -278.4 446 -280.3 443.3 C-282 441.9 -283.6 440.6 -285.3 439.3 C-286 438.4 -286.7 437.4 -287.3 436.5 C-289.3 434.3 -289.3 434.3 -294.3 434.3 C-297.2 437 -297.2 437 -300.1 440.7 C-301.2 442 -302.2 443.3 -303.3 444.6 C-304.3 445.8 -305.3 447 -306.3 448.3 C-307.8 449.9 -309.3 451.6 -310.8 453.3 C-313.7 456.5 -316 459.7 -318.3 463.3 C-320.3 465.6 -322.3 467.9 -324.3 470.3 C-325 471.1 -325.7 472 -326.4 472.9 C-328.3 475.3 -328.3 475.3 -330.6 477.5 C-333.5 480.4 -336 483.5 -338.4 486.8 C-341.1 490.2 -343.9 493.6 -346.6 496.9 C-348.3 499.3 -348.3 499.3 -350.3 504.3 C-351.2 505.3 -352.1 506.4 -353.1 507.4 C-356.8 511.8 -359.4 516.4 -362.3 521.3 C-364 523.4 -365.7 525.5 -367.3 527.6 C-372.9 535 -378 542.8 -382.6 550.8 C-385 554.7 -387.4 557.9 -390.3 561.3 C-393.3 566.3 -393.3 566.3 -395.1 570.3 C-398.7 578.3 -402.7 586.1 -407.9 593.3 C-412.8 600.2 -416.3 607.6 -419.3 615.4 C-421.5 620.6 -424.2 624.7 -427.3 629.3 C-430.1 634.6 -432.2 639.9 -434 645.8 C-436.2 653.2 -440.4 654.6 -447.3 657.3 C-451.2 658.1 -455 658.8 -458.9 659.5 C-462.9 660.4 -465.8 662.1 -469.3 664.3 C-472.7 665 -476 665.6 -479.3 666.3 C-481.9 667 -484.5 667.8 -487.1 668.6 C-488.3 669 -489.5 669.3 -490.8 669.7 C-494.7 671.4 -497.2 673.5 -500.3 676.3 C-502.6 677.3 -505 678.3 -507.3 679.3 C-514.8 682.6 -514.8 682.6 -517.2 685.7 C-519.3 688.3 -519.3 688.3 -524.1 690.6 C-529.7 693.4 -533 696.7 -537.3 701.3 C-538.3 701.9 -539.3 702.5 -540.3 703.2 C-543.9 705.6 -546.4 708.7 -549.2 712 C-552.3 715.4 -555.9 718.2 -559.3 721.3 C-561 723.2 -562.7 725.2 -564.3 727.3 C-566.7 729.9 -569 732.6 -571.3 735.3 C-574.5 738.9 -577.5 742.4 -580.3 746.3 C-581 746.3 -581.7 746.3 -582.3 746.3 C-582.7 747.1 -582.7 747.1 -584.3 751.3 C-586.1 753.7 -587.8 756.2 -589.5 758.7 C-592.7 763.2 -595.1 768 -597.7 772.9 C-600.3 777.7 -603 782.3 -606 786.8 C-608.5 790.5 -609.9 793.8 -611 798.1 C-612.2 802.9 -613.1 804.8 -616.3 808.3 C-618.3 812.3 -618.3 812.3 -619.3 816.8 C-620.3 821.3 -620.3 821.3 -623.3 825.3 C-623.6 826.6 -623.9 827.9 -624.1 829.3 C-625.4 834.5 -627.4 838.7 -629.9 843.5 C-631.5 846.7 -632.9 849.9 -634.3 853.3 C-635 854.2 -635.7 855.2 -636.3 856.3 C-636.4 857.1 -636.4 857.1 -636.7 861.1 C-637.3 866.3 -637.3 866.3 -639.3 869.1 C-641.9 873.1 -641.8 876.5 -642 881 C-642.5 885.4 -643.9 889.2 -645.4 893.3 C-646.8 897.9 -647 902.4 -647.3 907.3 C-647.7 908.2 -648 909.2 -648.3 910.3 C-648.5 912.1 -648.7 913.9 -648.8 915.8 C-649.3 921.3 -649.3 921.3 -650.3 923.3 C-650.4 925.1 -650.4 926.9 -650.5 928.8 C-651 936 -653.2 939.3 -658.3 944.3 C-662.1 945 -662.1 945 -665.3 944.3 C-671.6 938 -672.8 933 -674.3 924.3 C-674.6 923.8 -674.6 923.8 -675.8 921.3 C-677.8 917.3 -678.2 913.5 -678.9 909.1 C-679.3 906.3 -679.3 906.3 -680.5 903.1 C-681.3 900.3 -681.3 900.3 -681.2 896.1 C-681.3 890.9 -682.5 887.2 -684.3 882.3 C-686.7 875.6 -687.8 870.4 -687.3 863.3 C-687.6 862.3 -688 861.4 -688.3 860.4 C-689.4 857.1 -689.6 854.4 -689.7 850.9 C-689.7 849.7 -689.7 848.5 -689.8 847.2 C-689.8 846 -689.8 844.7 -689.8 843.4 C-690.5 816.8 -690.5 816.8 -694.3 807.3 C-694.6 803.7 -694.8 800.1 -694.9 796.4 C-695.2 785.9 -695.2 785.9 -695.8 781.4 C-696.3 777.2 -696.5 773.2 -696.5 768.9 C-696.5 767.3 -696.5 765.7 -696.5 764 C-696.5 762.3 -696.5 760.5 -696.5 758.8 C-696.5 756.9 -696.5 755.1 -696.5 753.2 C-696.5 749.4 -696.5 745.5 -696.5 741.6 C-696.5 735.8 -696.5 730 -696.6 724.2 C-696.6 707.2 -696.5 690.2 -695.4 673.3 C-695.4 672 -695.3 670.8 -695.2 669.5 C-694.8 664.2 -694.3 660.2 -692.3 655.3 C-692.1 652.7 -691.9 650.1 -691.8 647.4 C-691.5 642 -691 636.7 -690.3 631.3 C-690.1 627.5 -689.9 623.7 -689.7 619.9 C-689.3 616.2 -688.4 612.9 -687.3 609.3 C-686.2 603.1 -685.3 597 -684.8 590.8 C-684.1 581 -682.5 572.3 -679.2 563.1 C-678.3 560.3 -678.3 560.3 -677.8 555.1 C-677.3 549.6 -675.4 545.4 -673.3 540.3 C-673.2 539.4 -673.2 539.4 -672.8 535.2 C-672.3 529.8 -670.6 526.2 -668.3 521.3 C-667.9 518.7 -667.4 516.1 -667 513.5 C-665.8 507.9 -663.8 502.5 -661.9 497 C-660.3 492.3 -659 487.5 -657.8 482.7 C-656 476.2 -654 470.9 -650.3 465.3 C-648.3 461.3 -648.3 461.3 -647.6 456.5 C-645.6 444.7 -640.3 433.9 -634.9 423.4 C-632.9 419.5 -631.7 415.4 -630.3 411.3 C-629.7 410.2 -629 409.2 -628.3 408.2 C-626.3 405.3 -626.3 405.3 -625.6 401.7 C-624 396.3 -621.3 392.3 -618.3 387.6 C-616.5 384.6 -615.3 381.8 -614.2 378.5 C-612.2 373 -609.7 369.1 -606.3 364.3 C-601.8 356.8 -597.7 349.3 -594.3 341.3 C-592.4 337.1 -590.2 333.8 -587.3 330.3 C-584.2 325.7 -581.2 321 -578.3 316.3 C-577.2 314.5 -576.1 312.8 -575 311.1 C-572.7 307.4 -570.4 303.7 -568.2 299.9 C-565.8 296 -563.7 293.3 -560.3 290.3 C-557 286.4 -554.1 282.5 -551.3 278.3 C-551 277.8 -551 277.8 -549.3 275.8 C-547.3 273.3 -547.3 273.3 -546 270.3 C-544 266.6 -541.5 264.9 -538.3 262.3 C-537 260.3 -535.6 258.3 -534.3 256.3 C-532.3 253.9 -530.3 251.6 -528.3 249.3 C-527.4 247.9 -526.4 246.6 -525.5 245.3 C-522.3 241.3 -522.3 241.3 -518.5 237.9 C-514.2 234.1 -510.8 230.1 -507.2 225.6 C-505.3 223.3 -505.3 223.3 -503.3 221.3 C-503.3 212.8 -507.6 209.9 -513.3 204.3 C-515.8 201.8 -518.2 199.5 -520.3 196.7 C-522.3 194.3 -522.3 194.3 -525.3 192.3 C-529.5 189.4 -532.2 185.7 -535.3 181.6 C-537.3 179.3 -537.3 179.3 -540.2 177.4 C-544.2 174.6 -546.5 171.2 -549.3 167.3 C-550.6 166.1 -551.9 165 -553.2 163.9 C-557.9 156.9 -557.6 149.5 -556.3 141.3 C-552.6 135.3 -547.3 132.7 -540.4 131.7 C-530.7 133 -523.4 139.7 -517.2 146.9 C-512.3 152.4 -507 157.6 -501.7 162.7 C-497.7 166.7 -494.4 170.5 -491.3 175.3 C-488.7 177.3 -486 179.3 -483.3 181.3 C-482.3 182.5 -481.2 183.8 -480.1 185.1 C-477.3 188.3 -477.3 188.3 -473.3 189.3 C-469.8 186.7 -466.6 184.1 -463.3 181.3 C-462.7 180.7 -462.7 180.7 -459.4 178.1 C-456.3 175.3 -456.3 175.3 -453.3 170.3 C-450.7 168.2 -448 166.2 -445.3 164.3 C-433.4 155.4 -433.4 155.4 -428.6 150.4 C-424.6 146.6 -420.3 144.7 -415.3 142.3 C-412.9 140 -410.6 137.7 -408.3 135.3 C-406.4 133.9 -404.4 132.6 -402.3 131.3 C-401.3 130.3 -400.3 129.3 -399.2 128.3 C-395 125 -391.1 123.5 -386.2 121.5 C-382.3 119.8 -379.5 117.2 -376.3 114.3 C-373.1 111.9 -370.1 110.1 -366.5 108.4 C-362.3 106.3 -362.3 106.3 -358.3 102.8 C-354.4 99.3 -351 97.5 -346.3 95.3 C-344.8 94.1 -343.2 92.9 -341.6 91.8 C-336.8 88.3 -332.1 86.8 -326.4 85.3 C-321.8 83.8 -318.2 81.1 -314.3 78.3 C-308.8 74.5 -303.7 72.3 -297.3 70.3 C-294.6 69 -292 67.6 -289.3 66.3 C-283.2 63.1 -277.1 60.2 -270.8 57.7 C-268.2 56.6 -265.6 55.5 -263.1 54.5 C-262.3 54.1 -262.3 54.1 -258.6 52.6 C-257.9 52.3 -257.9 52.3 -254.4 50.8 C-250.4 49.3 -246.5 48.3 -242.3 47.3 C-239 46 -235.6 44.6 -232.3 43.3 C-227.3 41.3 -227.3 41.3 -222.7 40.3 C-218.3 39.3 -218.3 39.3 -215.3 37.3 C-212.3 36.8 -209.3 36.3 -206.3 35.9 C-203.3 35.3 -203.3 35.3 -198.3 32.3 C-194.2 31 -190.2 29.8 -186 28.7 C-185.5 28.5 -185.5 28.5 -182.7 27.8 C-179.6 26.9 -176.5 26.1 -173.3 25.3 C-171.9 24.9 -170.5 24.5 -169 24.1 C-165.4 23.3 -162 22.8 -158.4 22.4 C-153.9 21.8 -151.1 21.1 -147 19.2 C-141.2 16.8 -136.3 16.8 -130.1 16.7 C-126.3 16.3 -126.3 16.3 -123.4 14.3 C-119.4 11.7 -116.8 11.8 -112.1 11.7 C-102.4 11.4 -93 9.9 -83.3 8.3 C-81 7.9 -78.7 7.5 -76.3 7.1 C-75.9 7.1 -75.9 7.1 -73.6 6.7 C-60.9 5 -48.2 5 -35.4 4.8 C-33.8 4.8 -32.2 4.8 -30.5 4.7 C-29.1 4.7 -27.6 4.7 -26.1 4.7 C-22.3 4.3 -22.3 4.3 -17.3 1.3 C-14.7 1.5 -12 1.9 -9.3 2.3 C-5.8 -0.1 -4.2 0 0 0 Z M-36 31 C-36.7 31.1 -36.7 31.1 -40.2 31.2 C-48.6 31.7 -55.4 33.4 -63.3 36.3 C-67.4 36.8 -67.4 36.8 -70.9 36.8 C-71.5 36.8 -71.5 36.8 -74.8 36.8 C-76.1 36.8 -77.4 36.8 -78.8 36.8 C-81.4 36.8 -84.1 36.9 -86.7 36.9 C-87.9 36.9 -89 36.9 -90.2 36.9 C-93.3 37.3 -93.3 37.3 -98.3 40.3 C-101.5 40.7 -104.7 41 -107.8 41.2 C-116.2 41.9 -123.4 43.5 -131.3 46.3 C-137.5 48.3 -143.2 48.6 -149.7 48.9 C-153.2 49.2 -156 50.1 -159.3 51.3 C-161.1 51.5 -162.8 51.8 -164.6 52.1 C-170.3 53.2 -175 55 -180.3 57.3 C-187 59.9 -193.3 61.7 -200.3 63.2 C-209.5 65.2 -217.7 67.5 -225.3 73.3 C-228 73.7 -230.7 74.2 -233.3 74.6 C-240.2 76.1 -246.3 79.7 -252.4 82.9 C-257.3 85.3 -257.3 85.3 -262.3 86.2 C-268.5 87.5 -272.1 89.9 -277.3 93.3 C-279.3 94.3 -281.3 95.3 -283.3 96.3 C-284 96.9 -284.7 97.6 -285.3 98.3 C-287 98.7 -288.6 99.1 -290.3 99.5 C-297.7 101.4 -303.9 104.8 -309.3 110.3 C-311.1 110.8 -313 111.4 -314.8 111.9 C-320.8 113.8 -324.9 116.6 -329.8 120.4 C-333.1 122.8 -336.5 123.9 -340.3 125.3 C-342.4 126.9 -344.4 128.6 -346.3 130.3 C-347.7 131 -349 131.7 -350.4 132.5 C-357.8 136.6 -365.3 141.2 -371.3 147.3 C-372.8 147.9 -374.3 148.5 -375.8 149.2 C-380.3 151.3 -380.3 151.3 -384.3 155.3 C-385.7 156.3 -387.1 157.3 -388.6 158.4 C-392.3 161.3 -392.3 161.3 -392.3 163.3 C-386.8 162.8 -382.5 162.3 -377.3 160.3 C-375.1 159.9 -372.9 159.5 -370.6 159.3 C-366.4 158.7 -362.4 158.1 -358.2 157.2 C-354.4 156.5 -350.9 156 -347 155.8 C-341.3 155.3 -341.3 155.3 -336.3 153.3 C-325.1 151.4 -313.8 151 -302.5 150.6 C-297.7 150.4 -293.1 150.1 -288.3 149.3 C-285.3 149.6 -282.3 149.9 -279.3 150.3 C-277.3 150 -275.3 149.6 -273.3 149.3 C-272.8 149.4 -272.8 149.4 -270.3 150.3 C-266.8 150.4 -263.2 150.5 -259.7 150.6 C-250.9 150.9 -242.8 152 -234.2 154.3 C-229.3 155.5 -224.4 156.2 -219.4 156.8 C-216.8 157.2 -214.2 157.7 -211.6 158.3 C-207.3 159.3 -207.3 159.3 -202.6 159.6 C-194.6 160.6 -187.1 163.4 -179.8 166.9 C-176.2 168.3 -173.2 168.7 -169.3 169.1 C-163.3 169.9 -160.1 171.4 -155.3 175.3 C-152.7 176.3 -150 177.3 -147.3 178.3 C-146.2 178.9 -145.1 179.5 -144 180.2 C-140.3 182.3 -140.3 182.3 -135.4 184.2 C-130.3 186.3 -130.3 186.3 -126.5 188.7 C-123 190.8 -120.1 192.2 -116.4 193.6 C-110.5 196 -106.3 199.3 -101.3 203.3 C-98 205.1 -94.7 206.8 -91.3 208.5 C-88.1 210.4 -85.9 212.6 -83.3 215.3 C-80 217.3 -76.7 219.3 -73.3 221.3 C-72.4 222.1 -71.4 222.9 -70.5 223.7 C-68.3 225.3 -68.3 225.3 -64.3 224.3 C-58.9 216.9 -55.3 208.2 -51.9 199.7 C-51.4 198.5 -50.9 197.2 -50.3 195.9 C-50.1 195.4 -50.1 195.4 -48.9 192.4 C-47.3 189.3 -47.3 189.3 -43.3 185.3 C-42.3 183.3 -41.3 181.3 -40.3 179.3 C-38 175.3 -35.6 171.8 -32.8 168.1 C-32.1 167.1 -31.3 166.1 -30.5 165 C-28.3 162.3 -28.3 162.3 -25.3 159.3 C-24.8 158.4 -24.2 157.5 -23.6 156.6 C-20.7 152.3 -17 148.9 -13.3 145.3 C-12.1 143.9 -10.9 142.5 -9.6 141 C-6.3 137.3 -6.3 137.3 -3.8 135.3 C-1.3 133.3 -1.3 133.3 1.5 128.9 C5.7 122.7 10.7 118.7 16.8 114.3 C20.7 111.3 20.7 111.3 23.3 107.9 C27.4 103.4 32 100.7 37.1 97.5 C40.3 95.5 43.2 93.3 46.1 90.9 C49.9 87.9 53.5 85.6 57.7 83.3 C58.7 82.3 59.8 81.4 60.8 80.4 C64.9 77.1 68.6 75.3 73.4 73.3 C80.7 70.2 87 66.6 93.7 62.3 C96 61.2 98.3 60.2 100.7 59.3 C102.1 58.3 103.5 57.4 105 56.4 C109.6 53.5 114.1 52.2 119.4 50.9 C128.2 48.6 136.1 45.3 143.7 40.3 C143.7 39.6 143.7 38.9 143.7 38.3 C139.7 36.9 135.9 36.9 131.7 36.8 C123 36.4 123 36.4 119.7 35.3 C117.9 35.1 116.1 35 114.3 34.8 C108.7 34.3 108.7 34.3 103.7 32.3 C100.5 32 97.4 31.8 94.3 31.7 C92.7 31.6 91 31.6 89.3 31.5 C88.3 31.5 87.3 31.4 86.3 31.4 C83.6 31.3 80.9 31.2 78.1 31 C61.1 30.1 44 30.1 26.9 30.1 C21.9 30.1 16.9 30.1 11.9 30 C-4.1 30 -20.1 30.2 -36 31 Z M-312.3 179.3 C-320.7 180.6 -329.1 181.3 -337.6 181.7 C-345.8 182.1 -352.4 183.6 -360.2 186.2 C-366.8 188.5 -373.3 190.2 -380.2 191.5 C-383.3 192.3 -383.3 192.3 -388.3 194.3 C-390 194.5 -391.7 194.8 -393.4 195.1 C-399.7 196.2 -405.1 198.5 -410.8 201.3 C-418.4 204.8 -425.1 206.9 -433.3 208.3 C-437.4 210.6 -437.4 210.6 -441.3 213.3 C-445.8 215.6 -450.3 217.8 -454.9 219.8 C-466.3 224.7 -470.7 229.6 -475.1 241.1 C-476.7 245.2 -478.4 249.1 -480.1 253.1 C-483 260.1 -485.9 267 -488.7 273.9 C-489 274.7 -489 274.7 -490.7 278.8 C-492.3 283.3 -492.3 283.3 -493.4 287.5 C-494.3 291.3 -494.3 291.3 -497.3 296.3 C-498 299.8 -498.5 303.5 -498.9 307.1 C-499.7 313.6 -500.7 319.9 -502.3 326.3 C-502.6 329.6 -502.8 332.9 -502.9 336.3 C-503.3 339.3 -503.3 339.3 -506.3 343.3 C-506.7 347.3 -506.8 351.2 -506.9 355.2 C-506.9 356.4 -506.9 357.6 -506.9 358.8 C-507 362.7 -507 366.7 -507.1 370.6 C-507.1 373.3 -507.1 375.9 -507.2 378.6 C-507.4 394 -507.4 409.5 -507.1 424.9 C-507.1 426.4 -507 428 -507 429.6 C-506.8 437.1 -506 443.2 -503.3 450.3 C-502.9 453 -502.5 455.7 -502.3 458.4 C-501.9 462.2 -501.5 465.6 -500.3 469.3 C-498.7 474.1 -498.5 479.2 -498 484.3 C-497.3 488.4 -496 491.5 -494.3 495.3 C-494.2 496.8 -494 498.3 -493.8 499.8 C-493.3 504.2 -492.3 506.4 -490.3 510.3 C-489.7 513.6 -489 516.9 -488.3 520.3 C-487.4 522.6 -486.4 525 -485.3 527.3 C-484.8 528.7 -484.3 530.1 -483.8 531.5 C-482.3 535.3 -482.3 535.3 -480.3 538.3 C-479.9 540 -479.5 541.7 -479.1 543.5 C-476.9 552.6 -473.9 561.8 -468.3 569.3 C-467.7 571.3 -467.1 573.4 -466.5 575.4 C-464.7 581.6 -462 586 -458.3 591.3 C-456.9 594.4 -455.6 597.5 -454.4 600.8 C-453.3 603.3 -453.3 603.3 -451.3 605.3 C-445.6 603.8 -445.8 601.6 -443.3 596.3 C-439.7 589 -436 581.9 -431 575.4 C-427.4 570.7 -425.9 566.1 -424.3 560.3 C-422.1 557.3 -422.1 557.3 -420.3 555.3 C-420.3 554.6 -420.3 553.9 -420.3 553.3 C-419.3 552.9 -418.4 552.6 -417.3 552.3 C-416 548.9 -414.7 545.6 -413.3 542.3 C-411.4 539.2 -409.4 536.2 -407.3 533.3 C-406.7 531.6 -406 530 -405.3 528.3 C-404 527.6 -402.7 526.9 -401.3 526.3 C-398.3 521.3 -398.3 521.3 -397.3 518.3 C-396 514.2 -394.1 511 -391.1 508.1 C-388 504.9 -385.6 501.4 -383.2 497.8 C-381.3 495.3 -381.3 495.3 -377.8 491.3 C-374.4 487.4 -371.8 483.4 -369 478.9 C-366.7 475.2 -364 471.7 -361.3 468.3 C-360.3 466.9 -359.3 465.5 -358.2 464.1 C-355.1 460.2 -351.9 456.4 -348.6 452.6 C-343.4 446.6 -338.5 440.4 -333.6 434.1 C-331.3 431.3 -331.3 431.3 -328.3 428.3 C-327.3 426.6 -326.4 425 -325.3 423.3 C-323.8 421.7 -322.1 420.2 -320.5 418.8 C-316.7 415.5 -313.5 412.2 -310.3 408.3 C-307.8 405.7 -305.2 403.2 -302.6 400.7 C-300.3 398.3 -300.3 398.3 -298.3 394.3 C-297.5 393.9 -297.5 393.9 -293.3 392.3 C-291.6 390.3 -290 388.3 -288.3 386.3 C-285.7 383.9 -283 381.6 -280.3 379.3 C-273.1 372.2 -273.1 372.2 -270.3 368.7 C-266.2 363.7 -261.1 359.8 -255.9 356 C-252.3 353.3 -252.3 353.3 -251.3 350.3 C-250.4 350 -249.5 349.7 -248.6 349.4 C-244.6 348 -243.3 346.3 -240.6 343.1 C-236.4 338.2 -232.3 335.1 -226.7 331.8 C-223.6 329.8 -221.7 327.1 -219.3 324.3 C-216.7 322.9 -214 321.6 -211.3 320.3 C-208.7 317.9 -206 315.6 -203.3 313.3 C-201.3 312.2 -199.3 311.2 -197.3 310.3 C-196.8 309.6 -196.8 309.6 -194.3 306.3 C-192.3 305.2 -190.3 304.2 -188.3 303.3 C-187.6 302.7 -186.9 302.1 -186.2 301.4 C-182.7 298.7 -179 296.8 -175.1 294.8 C-173.6 294 -172.1 293.2 -170.5 292.4 C-169.1 291.7 -167.7 291 -166.3 290.3 C-161.4 287.7 -156.9 285 -152.4 281.7 C-147.7 278.3 -142.7 276.4 -137.3 274.3 C-136.6 273.5 -135.8 272.7 -135 271.8 C-131.8 268.8 -129 267.7 -124.9 266.2 C-119.8 264.4 -115.8 262.3 -111.3 259.3 C-109.1 258.2 -106.8 257.3 -104.5 256.3 C-99.1 254.1 -94.2 251.6 -89.3 248.3 C-91.5 243.8 -93 242.9 -97.1 240.3 C-100.4 238.2 -103.4 236.2 -106.4 233.7 C-122.2 220.6 -143.5 209.1 -162.9 202.8 C-167.3 201.3 -167.3 201.3 -172.1 198.8 C-177.3 196.3 -181.8 195.1 -187.4 193.9 C-190.9 193.1 -194 191.7 -197.3 190.3 C-199 189.9 -200.7 189.6 -202.5 189.3 C-207.3 188.3 -207.3 188.3 -212.3 185.3 C-223 182.3 -233.5 181.4 -244.5 180.6 C-247.8 180.4 -251.2 180.2 -254.5 179.9 C-256 179.8 -257.4 179.7 -258.9 179.6 C-262.3 179.3 -262.3 179.3 -264.3 178.3 C-267.6 178.2 -271 178.1 -274.3 178.1 C-274.8 178.1 -274.8 178.1 -277.3 178.1 C-279.4 178.1 -281.4 178.1 -283.5 178.1 C-286.8 178.1 -290 178.1 -293.2 178.1 C-295.2 178.1 -297.2 178.1 -299.3 178.1 C-301.1 178.1 -303 178.1 -304.9 178.1 C-309.3 178.3 -309.3 178.3 -312.3 179.3 Z M-528.3 296.3 C-533.1 301.7 -537.3 307.3 -541.3 313.3 C-542.4 314.8 -543.4 316.3 -544.5 317.8 C-547.3 322.3 -547.3 322.3 -549.8 326.8 C-552.3 331.3 -552.3 331.3 -555.1 334.9 C-558.7 339.8 -561.7 344.9 -564.8 350.1 C-568 355.8 -571.3 361.3 -575 366.6 C-577.6 370.2 -579.7 373.5 -581.5 377.4 C-583.1 380.6 -584.6 383.7 -586.4 386.8 C-588.6 390.7 -590.2 394.8 -591.9 398.9 C-594 403.7 -596.4 408.3 -598.8 412.9 C-600.3 416.3 -600.3 416.3 -601.4 420 C-602.3 423.3 -602.3 423.3 -605.3 426.3 C-606.7 429.6 -608.1 432.9 -609.3 436.3 C-609.9 437.5 -610.4 438.7 -611 439.9 C-612.3 443.3 -612.3 443.3 -613.1 446.4 C-614.2 449.9 -615.5 452.7 -617.2 455.9 C-621.1 463.6 -623.7 471.2 -625.4 479.6 C-626.3 483.9 -627.6 487.2 -629.3 491.3 C-630.9 495.6 -632.4 500 -633.9 504.4 C-635.3 508.3 -635.3 508.3 -637.3 512.3 C-637.8 514.6 -638.3 516.9 -638.7 519.3 C-639.8 525.2 -641.4 530.8 -643.4 536.5 C-646.1 544.6 -646.8 553.1 -647.7 561.6 C-648.3 565.3 -648.3 565.3 -651.3 570.3 C-651.7 573.2 -651.7 573.2 -651.8 576.4 C-652.1 581.8 -653.3 586 -655.3 591 C-657.1 596.9 -657.4 603.1 -657.9 609.2 C-658.3 613.3 -658.3 613.3 -659.3 616.3 C-659.5 621.8 -659.7 627.3 -659.8 632.9 C-660.3 638.3 -660.3 638.3 -662.3 641.5 C-664.8 646.2 -664.9 649.6 -664.9 655 C-664.9 656.8 -665 658.7 -665 660.6 C-665 662.5 -665 664.5 -665 666.4 C-665.1 670.3 -665.1 674.1 -665.2 677.9 C-665.2 679.6 -665.2 681.3 -665.2 683.1 C-665.3 687.3 -665.3 687.3 -666.3 691.3 C-666.6 695.6 -666.8 699.9 -666.9 704.2 C-666.9 705.5 -667 706.8 -667 708.2 C-667.3 718.9 -667.5 729.7 -667.5 740.5 C-667.5 742 -667.5 743.5 -667.6 745 C-667.6 754.2 -666.9 763.1 -665.7 772.2 C-665.3 776.4 -665.8 780.1 -666.3 784.3 C-666.2 784.8 -666.2 784.8 -665.3 787.3 C-665.2 790.1 -665.2 792.9 -665.1 795.7 C-665.1 797.4 -665.1 799.1 -665 800.8 C-665 804.3 -664.9 807.9 -664.9 811.5 C-664.9 813.1 -664.8 814.8 -664.8 816.6 C-664.8 818.1 -664.8 819.7 -664.7 821.2 C-664.3 825.3 -664.3 825.3 -661.3 830.3 C-660 830.3 -658.7 830.3 -657.3 830.3 C-649.2 812.2 -649.2 812.2 -646.3 803.1 C-644.4 797 -641.9 790.9 -637.3 786.3 C-636.8 784.5 -636.3 782.8 -635.8 781 C-633.3 773.2 -628.9 767 -624.3 760.3 C-622.7 757.8 -621.1 755.3 -619.5 752.9 C-618.8 751.7 -618 750.6 -617.2 749.4 C-615.3 746.3 -615.3 746.3 -613.5 742.2 C-611.2 738.1 -608.7 735.3 -605.5 731.9 C-601.7 728 -598.6 724.4 -596.1 719.5 C-593.4 714.4 -590.8 711.5 -586.7 707.6 C-583.3 704.2 -580.5 700.5 -577.6 696.7 C-575.1 694 -572.4 692.3 -569.3 690.3 C-567.4 688.4 -565.5 686.4 -563.6 684.4 C-559.7 680.4 -556 677.2 -551.2 674.3 C-546.3 671.3 -546.3 671.3 -544.3 667.3 C-542.7 666.6 -541 665.9 -539.3 665.3 C-536.6 663.6 -533.9 662 -531.2 660.3 C-521.8 654.5 -512.2 649.3 -502.3 644.3 C-500.9 643.5 -499.5 642.8 -498.1 642 C-493.9 640 -489.9 639.2 -485.3 638.3 C-483.3 637.3 -481.3 636.3 -479.3 635.3 C-477 634.5 -474.7 633.9 -472.3 633.3 C-472.9 627.4 -474.6 622.9 -477.1 617.6 C-477.8 616.2 -478.5 614.7 -479.2 613.2 C-481.3 609.3 -481.3 609.3 -483.3 606.9 C-486.3 603 -487.6 598.6 -489.3 594 C-491.8 587.3 -494.4 580.8 -497.3 574.3 C-503.2 560.3 -508.5 546.2 -513.3 531.9 C-513.8 530.5 -514.3 529.1 -514.8 527.7 C-517.2 520.2 -519.1 513 -520.3 505.3 C-521.3 502.9 -522.3 500.6 -523.3 498.3 C-524 494.9 -524.7 491.6 -525.3 488.3 C-525.8 486.3 -526.3 484.3 -526.8 482.3 C-527.9 478.3 -528.7 474.2 -529.5 470.1 C-530.3 465.3 -530.3 465.3 -531.3 463.3 C-531.5 460.6 -531.7 458 -531.8 455.3 C-532.2 447.6 -532.2 447.6 -533.3 444.3 C-533.7 440.6 -534 436.9 -534.3 433.3 C-534.8 429.6 -535.2 426 -535.9 422.4 C-536.7 417 -536.5 411.6 -536.5 406.2 C-536.5 404.9 -536.5 403.6 -536.5 402.3 C-536.5 399.6 -536.5 397 -536.5 394.3 C-536.5 390.2 -536.5 386.1 -536.6 382 C-536.6 379.4 -536.6 376.8 -536.6 374.2 C-536.6 373 -536.6 371.8 -536.6 370.5 C-536.6 365.1 -536.4 361.3 -534.3 356.3 C-534.1 353.9 -533.9 351.5 -533.8 349.1 C-533.4 342.5 -533.4 342.5 -532.3 340.3 C-532.1 336.2 -531.9 332.2 -531.7 328.2 C-531.3 324.3 -531.3 324.3 -529.3 319.3 C-528.9 316.8 -528.6 314.3 -528.3 311.9 C-527.8 306.8 -526.8 302.1 -525.3 297.3 C-526.3 296.9 -527.3 296.6 -528.3 296.3 Z" fill="currentColor" transform="translate(999.332275390625,327.7412109375)"/>
  </g>
</svg>
