<svg xmlns="http://www.w3.org/2000/svg" width="512" height="512" fill="currentColor" data-name="winnowing-fan" style="color:#212529" viewBox="0 0 512 512"><style>@media (prefers-color-scheme:dark){:root{color:#f8fafc}}</style><path d="M226 127.7c2.2-.3 4 .8 6 1.8l1.2.5c2.8 1.3 2.8 1.3 3.6 2.7 1 1.8 2.8 1.9 4.7 2.3l1.2.4 2.5.6 5.2 1.4 1 .3a329 329 0 0 1 24.9 7.7l8.1 2.7 1.5.5 3 1 3.7 1.3q12.3 4.3 24.3 9.3l3.2 1.2q7 2.7 14 6l2.9 1.2 15.6 7.5 1.1.6a86 86 0 0 1 10.7 6q2.5 1.2 5 2.9l1 .5 5.6 3.7 1 .6a231 231 0 0 1 12.7 9.5l2 1.7q2.2 1.8 4.2 3.9l2.5 2.2 2.2 2.5 1.1 1.3q2.1 2.5 4 5.1l.6.8q4 5.8 6.5 12.4l.4 1q1.5 4.1 2 8.7l.1 1 .2.8q.5 2 1.5 3.8l.7 1.7.4 1 .8 1.8 2.4 5.4a203 203 0 0 1 5.1 12.6c2.8 6.6 4 12.4 4 19.5l.1 2.8q.1 5-1 10l-.4 1.3c-1.8 5.6-4.3 11-6.7 16.6a335 335 0 0 0-7.5 17.5l-3.6 8.3a31 31 0 0 1-14 16.2 31 31 0 0 1-13 2.5l-2.6.1-1.2.1c-1 0-1 0-2 .4l-2.2.1-1.4.1-2.9.2h-1.4l-1.3.1-2 .4-2.2.2-1.3.1-2.8.1-1.3.1h-1.3l-2 .5-2.2.2h-1.4l-2.9.2h-1.4l-1.2.1c-1 .1-1 .1-2 .5l-2.5.1-1.6.1-3 .1-1.6.1-1.4.1c-1.1.1-1.1.1-2 .4l-2.4.2h-1.4l-2.8.2-1.4.1h-1.3l-2 .5-4 .2c-1.1.1-1.1.1-2 .4l-2.8.2h-1.6l-3.5.2-1.6.1h-1.5l-2.2.5-2.5.1-1.5.1-3.1.2H294l-1.4.1-2 .4-2.7.2-1.6.1h-1.6l-3.3.2H280l-2.9.5-2.8.2h-1.6l-3.4.2h-1.7l-1.4.1c-1.2.1-1.2.1-2.2.5l-3 .1h-.8l-3.7.2-2.7.1-1.6.1c-1.3.1-1.3.1-2.3.4l-3.1.2h-1l-4 .2-2.8.1h-1.8c-1.4.2-1.4.2-2.3.5l-3.7.1H230l-4.7.2-3.4.2h-1.1c-2.6 0-2.6 0-3.6.4l-4 .2h-1.2l-5 .2-3.8.1h-1.1c-2.7.1-2.7.1-3.8.5l-2 .1h-4.2l-6 .3h-4.5l-1.4.1H178c-1 .1-1 .1-1.9.5h-4.3l-3.6.2H167l-23.3.1h-1.7l-17.5-.1-1.5-.1h-2.6c-1-.1-1-.1-1.9-.5l-2.2-.1h-1.4l-2.7-.2q-3.8-.2-7.5-1l-2.6-.4-1.3-.2c-2.2 0-3.5 1.6-5 3l-3.4 3-3 2.5c-1.3 1.1-1.3 1.1-2.6.8a28 28 0 0 1-3.4-6.8l-1.3-2.6c-.7-1.4-1-2-.4-3.4l.6-1 .2-2q.2-3.6 1-7l.3-1.3c.8-3.6.8-3.6 1.7-5 2-.4 3 .1 4.8 1a17 17 0 0 0 6.1 1.5l.7-1.2q.8-1 1.8-1.9 1.7-1.5 3.2-3.3 1.1-1.4 2.4-2.5t2.2-2.6l2.8-3.1q1.5-1.6 2.8-3.3 1-1.4 2.2-2.5l6.1-7.3 3.7-4.3 7.4-9.3 5.3-7 7-9.7a169 169 0 0 0 9.5-13.6q1.7-2.4 3.3-5l2-3q2-3 4-6.3l2-3.2q2.9-4.6 5.6-9.3l2.9-4.9a113 113 0 0 0 6.9-12.4q6.4-11.5 11.9-23.5l.6-1.1 1.6-3.7 1-2q2.4-5.2 4.6-10.5l1.6-3.6q1.8-3.8 3.4-8l2.4-6 2.7-7 .5-1.1q3-7.9 5.6-15.9l1.3-4 1.3-3.7.7-2.2.4-1.1.3-1c.2-.7.2-.7-.2-2.3-1-4.8.9-10.8 2.3-15.4l1.4.1 1.5-.1zm3.1 8.6-.6 1.3c-1 .3-1 .3-2.6.3l-.3 1.3.8.4c1.2 1.3.8 2.5.5 4l-1.7 5.1q-1.5 4.3-2.8 8.7l-1.6 4.5-2 6-3.1 8.2-1.6 4.1-1 2.6-.7 1.9-6 15-.5 1.2-1.6 3.8-.6 1.2q-1.4 3.5-3.2 6.9L199 216a93 93 0 0 1-4.4 9.5l-7.4 14.7-.5 1-2.8 5.2-.9 1.6a208 208 0 0 1-9.7 16.8l-4.5 7.5-3 4.9c-.2.1-.2.1-.6.8l-3.2 5q-1.4 2.5-3.2 4.9l-1.5 2.4-4.2 6-2.2 3.3q-3.1 4.8-6.7 9.2l-1.2 1.7-6 8-4.7 6q-1.4 1.4-2.4 3-1.7 2.2-3.6 4.2l-1.6 2q-1.7 2.2-3.6 4.3l-1.8 2.1q-1.8 2.3-4 4.5l-2 2.5q-2.2 2.6-4.6 5l-3.3 3.8q-2.4 3-5 5.6l-1 1c-2.2 2.3-2.2 2.3-4.1 2.4l-3-1c-1.3-.6-2-.9-3.4-.7l-.4 1q1.5 1.3 3.3 2l1.2.5 1 .3c-.3 1.3-.3 1.3-1.3 2.3v.6l-1.3.7c-2.4 2-2.4 2-3.2 3.8 1.3.3 1.3.3 2-.2l.8-.7c5.9-5.6 5.9-5.6 9.2-5.6H111l9.1.1h1l14.3-.1h1.6l7-.5 4-.2 2.3-.1h3.7l3.5-.2h1.1c2.6-.1 2.6-.1 3.6-.5l2.8-.2h1.7l2.7-.2h2.5l1.6-.1c1.2-.1 1.2-.1 2.2-.5l2-.1 3.4-.5 2-.2h1l2.4-.2h1l1-.1c1-.1 1-.1 1.9-.5l5-.3c2.6-.3 2.6-.3 3.6-.6l4.7-.4c2.6-.2 2.6-.2 3.7-.6l3-.3c3.6-.3 3.6-.3 5.2-.7l3.2-.4 3-.5 5.8-1a103 103 0 0 0 13.4-2.3q18.9-3.5 37.3-8.6l2.6-.6 9.7-2.9 1.6-.5q7.3-2.2 14.4-4.9l2.4-1q.6 0 1.3-.4l2.9-1q9.6-3.7 19-8.2l1.4-.6a140 140 0 0 0 11.6-6.1q13.6-7.4 25.7-17.3l.8-.7q2.5-2 4.8-4l2-1.7a84 84 0 0 0 11.3-12q2.2-2.5 4.1-5.2l1.1-1.6 1.2-1.7.6-.8 3.5-5.5.7-1.2c10.8-18.6 10.8-18.6 9.2-28v-1c-1.5-9.6-6-17.9-12.4-25.2l-.8-.9a116 116 0 0 0-25.8-20.9l-1-.6-3.2-2-1.1-.6a304 304 0 0 0-27.3-14.4l-1.1-.5a284 284 0 0 0-17.6-7.7 658 658 0 0 0-46-16.6l-5.8-2a567 567 0 0 0-37.7-10.6l-.3-2.9zm184.7 119.4q-1.2 1.9-2 4.1a95 95 0 0 1-10.5 20.2l-1.3 2q-2.3 3.2-4.8 6.3l-.7 1-5.5 6.4-.8.8-1.4 1.5c-1.6 1.7-1.6 1.7-1.2 3.4l1.7 2.6 1.6 2.2a85 85 0 0 1 14 34.9c.3 1.3.3 1.3 1 2q1.4-1.4 2-3.2l2.8-6.5.5-1 2.2-5a88 88 0 0 0 3.3-8q.9-2.2 2-4.5l2.5-5.8 1.3-3.1q2.1-4.9 3.5-10l.4-1.1c1.1-6 .6-12.7-1.4-18.4l-.3-1.2q-1.6-4.3-3.4-8.4l-2-4.8-2.9-6.4zm-37 51.7q-5.2 4.6-10.8 8.5l-3.5 2.5c-6.3 4.8-13.5 8.6-20.5 12.3l-2 1.1q-3.9 2.1-8 3.8-1.6.9-3.4 1.6-3.4 1.6-7 3l-6 2.6c-5.5 2.4-11.3 4.1-17 6l-1 .3a355 355 0 0 1-20.7 6.1l-3.3 1A251 251 0 0 1 253 361l-6 1.2-8.1 1.5-1 .2-2.6.6-.3 1c2.7.3 2.7.3 3.8 0l1.8-.2h4.4l1-.1c.8 0 .8 0 2.1-.4l2.9-.2h1.7l2.7-.2h2.7l1.6-.1c1.2-.1 1.2-.1 2.2-.5l2.8-.1 1.7-.1 2.8-.1 2.6-.1 1.6-.1c1.3-.1 1.3-.1 2.2-.4l2.7-.2h1.7l3.4-.2 1.7-.1h1.5l2.1-.5 4.2-.2 3.2-.2h1.6l1.4-.1c1.2-.1 1.2-.1 2.1-.4l2.5-.2 1.6-.1 3-.1 1.6-.1h1.4l2-.5 4-.3h3l1.5-.2h1.4c1-.1 1-.1 2-.5l4.1-.2 3.3-.1 1.5-.1 1.5-.1c1.1-.1 1.1-.1 2.1-.4l2.3-.2h1.4l2.9-.2 1.3-.1h1.3l2-.5 2.4-.1 1.5-.1 3-.2h1.5l1.4-.1 2-.4 2.2-.2 1.3-.1 2.7-.1 1.3-.1h1.2l1.9-.5 2.4-.2h1.4l3-.2h1.4l1.3-.1c1-.1 1-.1 2-.5l2.7-.1c4.6-.3 9.3-.7 12.7-4q.5-2 0-3.8l-.2-1.1-.3-1.2-.3-1.2c-3.6-16.3-3.6-16.3-7.9-23.4l-.9-1.8c-5-9.2-5-9.2-8.3-12-1.7 0-2.2.7-3.4 1.8"/><path d="m232.3 141.4 4.3 1.1q.6 0 1.1.3l6 1.8q2.2.8 4.7 1.4a207 207 0 0 1 13.7 4q8.4 2.5 16.7 5.4l7.7 2.6a263 263 0 0 1 16 5.7q6.9 2.4 13.4 5.3l3.6 1.4q8 3.2 15.6 6.8l2.4 1q4.8 2.1 9.2 4.5 2.6 1.5 5.2 2.6l5 2.7 3.3 1.7q4 2.1 7.8 4.8l5.4 3.3q1.2.7 2.2 1.5l3.4 2.4a89 89 0 0 1 21 19.4l1 1.2c6.1 8.5 9.8 19.1 6.8 29.5l-.4 1.3-.4 1q-1.4 4-3.2 7.7l-.5 1q-5.2 10.9-12.9 20l-2.2 2.8-3 3.2c-2.4 2.2-2.4 2.2-3.2 3.4-.6 1-.6 1-1.7 1.8q-2 1.5-3.8 3.4-2.7 2.9-6 5.3l-1.6 1.4q-7.1 5.7-15 10.5l-2 1.3-2.5 1.5-3.5 2q-8 4.5-16.3 8.3l-1.3.6q-10 4.8-20.5 8.4l-3.2 1.2-5.6 2-1 .2-2.2.8-3.3 1q-9.6 3.2-19.6 5.7l-2.6.6-1.3.3-3.1.8c-7.7 2-15.4 3.4-23.1 5l-6.6 1.3q-3 .7-6.2 1l-2.6.5q-3.3.6-6.7 1l-8 1.1q-4.9.9-9.9 1.3c-1.5.1-1.5.1-2.5.5l-1.8.1-1 .1-2.3.1-1 .1-1 .1-1.8.4-2 .2h-1l-2.4.2-1 .1h-1.1l-1.8.5-2.4.1-1.4.1-3 .2h-1.4l-1.3.1-2 .4-3 .2h-.8l-3.7.2-2.7.1h-1.6c-1.4.2-1.4.2-2.3.5l-2 .1h-3.7q-2.1.3-4.2.2l-5.5.2h-3.4l-2 .3q-2.1.3-4.4.2h-31.1l-.4-1q2.2-2.5 4.5-4.7l2.9-3.3 6.4-7.2c2.4-2.5 2.4-2.5 3.4-3.9l2.9-3.3 3.6-4.5 1.5-1.6q1.7-2 3.3-4.1l1.6-1.9 4.8-6.1 5.6-7.2 3.7-5 1.2-1.7.7-.9 6.5-9.1 4.3-6.2q1.7-2.6 3.6-5.2 2.5-3.7 4.8-7.6l.7-1.1 2.5-4q1.6-2.8 3.3-5.5 4-6.2 7.5-12.7l1.7-3q5-8.3 9.2-17.1l3.2-6.2q1.4-2.7 2.6-5.5l1.9-3.8 1-2.1 1.4-3a184 184 0 0 0 7.3-16.4q.7-2.2 1.8-4.2a322 322 0 0 0 11.7-30.7q4-10.9 7.2-22.2c.9-2.8 1.3-2.8 4.2-2.4m0 7.7a46 46 0 0 0-2.3 6.6l-.3.8c-4.2 13.2-4.2 13.2-6.6 19.2q-.7 1.5-1 3-2.6 7-5.6 14-1.2 2.7-2 5.4l-1.7 4.1-.7 1.7-.5.9-3.3 7.7q-2.2 5.3-4.8 10.5l-1.1 2.4q-1.6 3.4-3.4 7l-1.3 2.5-4.4 8.8-1.3 2.7a122 122 0 0 1-6.6 12l-1.4 2.4-1.9 3.3a92 92 0 0 1-6.9 11.6q-3 5.4-6.6 10.7l-.6 1-1.8 2.8-.5.8q-1.5 2.5-3.2 4.8l-3.2 4.7-6 8.6-1 1.5a134 134 0 0 1-7.6 10q-2.7 3.8-5.5 7.2l-2 2.7q-2 2.7-4.2 5.1l-4.4 5.6-4.4 5q-1.6 1.6-3 3.6l-1.8 2a44 44 0 0 0-3.9 4.7l-.7.9c-.6.7-.6.7-.6 1.6h15.3l1.2-.1 14.5-.3h1.3l1.2-.1h1l1.7-.4 3.4-.2h1l4.2-.2 3-.1h1c2.3-.1 2.3-.1 3.4-.5l2.5-.1 1.5-.1 3.2-.2h1.5l1.4-.1c1.1-.1 1.1-.1 2-.4l2.1-.2 1.3-.1 2.6-.1 1.3-.1h1l2-.5 1.8-.2h1l2.3-.2h1l1-.1c.9-.1.9-.1 1.9-.5l3.3-.2 6.5-.8 6-1 3.6-.5 5-.8a166 166 0 0 0 14.1-2.4q3.4-.5 6.7-1.3l3.6-.7q18-3.2 35.5-8.6l5-1.4a231 231 0 0 0 33.6-12l5.2-2.4 3-1.3q2.9-1.2 5.6-2.7l4.7-2.4q1.5-.7 2.9-1.8l1.7-.8q3-1.6 6-3.5l3.3-2q3.4-2.1 6.5-4.6l3.1-2.1c8.5-6 17-13.5 23.2-21.9l1.2-1.3q2.5-3 4.6-6.3l.7-1c2.1-3.6-.5-8.9-2-12.2q-4.3-9.1-11.2-16.6l-.7-.8-3.6-3.8c-1.1-1.2-1.1-1.2-1.6-2-.6-1-1.4-1.4-2.2-2q-1.6-1.4-3-2.9a52 52 0 0 0-5.5-4.8l-4.9-4a101 101 0 0 0-11.4-8.8l-8.6-6-2-1.4-1-.7-3.5-2.3-5.2-3.3q-2.7-1.5-5.2-3.4l-5-3-2-1.4-1-.6-2.2-1.3q-2.1-1.5-4.4-2.5L302 184l-3.7-2-9.8-5.6-4.6-2.5-2.6-1.4-2.7-1.5q-6.5-3.6-12.9-6.8l-3.7-1.8-.8-.5q-2.7-1.3-5.2-2.7l-5.5-2.7-9.9-4.9-1.3-.7-1.2-.6a12 12 0 0 0-5.7-1.2m41 12.2c3.8 2.8 8.3 4.8 12.5 7l9.8 5.2.8.5q3 1.6 5.7 3.3l1.5.8 5.9 3.4 5.5 3.3 7 4.1.9.6 6.6 4.2 2.4 1.6 2.4 1.6c9.3 6.2 9.3 6.2 12.1 8.6l2.9 2a67 67 0 0 1 6.7 5.1l1.4 1.2q.5.2.8.6 2.7 2 5.1 4.4l2.2 1.7q3.4 2.8 6.3 6l2.3 2.3 2.5 2.5.8.8q2.3 2.2 4.1 4.6l2 2.4q7.7 9 11.3 20.3l1.4 3.3c1.4-.7 1.5-1.1 2.1-2.6l2.4-4.5c4.1-8 3.6-16-.4-23.9q-2.1-3.8-5.1-7l-.9-1.3q-1.9-2.2-4-4.2-1.6-1.3-3.1-3a51 51 0 0 0-8.1-6.6 139 139 0 0 0-13.3-9l-2.2-1.3-5.4-3.1-2.2-1.3-7.4-3.9-9-4.5q-2.5-1.3-5.1-2.4l-9.2-4.1q-3.8-1.7-7.7-3.2l-5.7-2.3-3.2-1.2-12.5-4.9-4.4-1.5-6.6-2.3-1.3-.5-2.7-1c-5.5-1.8-5.5-1.8-8-1.8"/></svg>